<mxfile host="Electron" modified="2023-12-25T17:40:18.522Z" agent="Mozilla/5.0 (Windows NT 10.0; Win64; x64) AppleWebKit/537.36 (KHTML, like Gecko) draw.io/22.1.11 Chrome/114.0.5735.289 Electron/25.9.8 Safari/537.36" etag="V8Ag33uLd5mqDsceA7dL" version="22.1.11" type="device">
  <diagram name="Страница — 1" id="bvpkTDKyIWOJHQTsJ5FW">
    <mxGraphModel dx="1036" dy="614" grid="1" gridSize="10" guides="1" tooltips="1" connect="1" arrows="1" fold="1" page="1" pageScale="1" pageWidth="827" pageHeight="1169" math="0" shadow="0">
      <root>
        <mxCell id="0" />
        <mxCell id="1" parent="0" />
        <mxCell id="LSEXf3g2ld3hCHJIZ-9w-322" value="" style="edgeStyle=orthogonalEdgeStyle;rounded=0;orthogonalLoop=1;jettySize=auto;html=1;" parent="1" source="LSEXf3g2ld3hCHJIZ-9w-1" target="LSEXf3g2ld3hCHJIZ-9w-272" edge="1">
          <mxGeometry relative="1" as="geometry" />
        </mxCell>
        <mxCell id="LSEXf3g2ld3hCHJIZ-9w-1" value="Вывод (&quot;исходный массив&quot;)" style="shape=parallelogram;perimeter=parallelogramPerimeter;whiteSpace=wrap;html=1;fixedSize=1;" parent="1" vertex="1">
          <mxGeometry x="310" y="70" width="120" height="60" as="geometry" />
        </mxCell>
        <mxCell id="LSEXf3g2ld3hCHJIZ-9w-4" value="" style="edgeStyle=orthogonalEdgeStyle;rounded=0;orthogonalLoop=1;jettySize=auto;html=1;" parent="1" source="LSEXf3g2ld3hCHJIZ-9w-3" target="LSEXf3g2ld3hCHJIZ-9w-1" edge="1">
          <mxGeometry relative="1" as="geometry" />
        </mxCell>
        <mxCell id="LSEXf3g2ld3hCHJIZ-9w-3" value="Начало" style="ellipse;whiteSpace=wrap;html=1;" parent="1" vertex="1">
          <mxGeometry x="310" width="120" height="40" as="geometry" />
        </mxCell>
        <mxCell id="LSEXf3g2ld3hCHJIZ-9w-5" style="edgeStyle=orthogonalEdgeStyle;rounded=0;orthogonalLoop=1;jettySize=auto;html=1;exitX=1;exitY=0.5;exitDx=0;exitDy=0;entryX=0;entryY=0.5;entryDx=0;entryDy=0;endArrow=none;endFill=0;" parent="1" edge="1">
          <mxGeometry relative="1" as="geometry">
            <Array as="points">
              <mxPoint x="1360" y="3195" />
              <mxPoint x="1360" y="3680" />
              <mxPoint x="980" y="3680" />
              <mxPoint x="980" y="3125" />
            </Array>
            <mxPoint x="1150" y="3125" as="targetPoint" />
          </mxGeometry>
        </mxCell>
        <mxCell id="LSEXf3g2ld3hCHJIZ-9w-6" style="edgeStyle=orthogonalEdgeStyle;rounded=0;orthogonalLoop=1;jettySize=auto;html=1;exitX=1;exitY=0.5;exitDx=0;exitDy=0;entryX=0;entryY=0.5;entryDx=0;entryDy=0;endArrow=none;endFill=0;" parent="1" edge="1">
          <mxGeometry relative="1" as="geometry">
            <mxPoint x="1150" y="3195" as="targetPoint" />
            <Array as="points">
              <mxPoint x="1310" y="3265" />
              <mxPoint x="1310" y="3670" />
              <mxPoint x="1060" y="3670" />
              <mxPoint x="1060" y="3195" />
            </Array>
          </mxGeometry>
        </mxCell>
        <mxCell id="LSEXf3g2ld3hCHJIZ-9w-7" style="edgeStyle=orthogonalEdgeStyle;rounded=0;orthogonalLoop=1;jettySize=auto;html=1;exitX=1;exitY=0.5;exitDx=0;exitDy=0;endArrow=none;endFill=0;" parent="1" edge="1">
          <mxGeometry relative="1" as="geometry">
            <Array as="points">
              <mxPoint x="2000" y="1470" />
              <mxPoint x="2000" y="1610" />
              <mxPoint x="1920" y="1610" />
            </Array>
            <mxPoint x="1980" y="1470" as="sourcePoint" />
          </mxGeometry>
        </mxCell>
        <mxCell id="LSEXf3g2ld3hCHJIZ-9w-8" style="edgeStyle=orthogonalEdgeStyle;rounded=0;orthogonalLoop=1;jettySize=auto;html=1;exitX=1;exitY=0.5;exitDx=0;exitDy=0;endArrow=none;endFill=0;" parent="1" edge="1">
          <mxGeometry relative="1" as="geometry">
            <Array as="points">
              <mxPoint x="2140" y="2010" />
              <mxPoint x="2140" y="2380" />
              <mxPoint x="1905" y="2380" />
            </Array>
            <mxPoint x="1970" y="2010" as="sourcePoint" />
          </mxGeometry>
        </mxCell>
        <mxCell id="LSEXf3g2ld3hCHJIZ-9w-9" style="edgeStyle=orthogonalEdgeStyle;rounded=0;orthogonalLoop=1;jettySize=auto;html=1;exitX=1;exitY=0.5;exitDx=0;exitDy=0;entryX=0;entryY=0.5;entryDx=0;entryDy=0;endArrow=none;endFill=0;" parent="1" edge="1">
          <mxGeometry relative="1" as="geometry">
            <Array as="points">
              <mxPoint x="1990" y="2180" />
              <mxPoint x="1990" y="2360" />
              <mxPoint x="1730" y="2360" />
              <mxPoint x="1730" y="2010" />
            </Array>
            <mxPoint x="1850" y="2010" as="targetPoint" />
          </mxGeometry>
        </mxCell>
        <mxCell id="LSEXf3g2ld3hCHJIZ-9w-10" style="edgeStyle=orthogonalEdgeStyle;rounded=0;orthogonalLoop=1;jettySize=auto;html=1;exitX=0.5;exitY=1;exitDx=0;exitDy=0;entryX=0;entryY=0.5;entryDx=0;entryDy=0;endArrow=none;endFill=0;" parent="1" edge="1">
          <mxGeometry relative="1" as="geometry">
            <Array as="points">
              <mxPoint x="1908" y="2360" />
              <mxPoint x="1730" y="2360" />
              <mxPoint x="1730" y="2010" />
            </Array>
            <mxPoint x="1850" y="2010" as="targetPoint" />
          </mxGeometry>
        </mxCell>
        <mxCell id="LSEXf3g2ld3hCHJIZ-9w-11" style="edgeStyle=orthogonalEdgeStyle;rounded=0;orthogonalLoop=1;jettySize=auto;html=1;exitX=1;exitY=0.5;exitDx=0;exitDy=0;endArrow=none;endFill=0;" parent="1" edge="1">
          <mxGeometry relative="1" as="geometry">
            <Array as="points">
              <mxPoint x="2060" y="2440" />
              <mxPoint x="2060" y="2680" />
              <mxPoint x="1898" y="2680" />
            </Array>
            <mxPoint x="1967.5" y="2440" as="sourcePoint" />
          </mxGeometry>
        </mxCell>
        <mxCell id="LSEXf3g2ld3hCHJIZ-9w-12" style="edgeStyle=orthogonalEdgeStyle;rounded=0;orthogonalLoop=1;jettySize=auto;html=1;exitX=1;exitY=0.5;exitDx=0;exitDy=0;endArrow=none;endFill=0;" parent="1" edge="1">
          <mxGeometry relative="1" as="geometry">
            <Array as="points">
              <mxPoint x="2180" y="1480" />
              <mxPoint x="2180" y="2050" />
              <mxPoint x="1935" y="2050" />
            </Array>
            <mxPoint x="2000.62" y="1480" as="sourcePoint" />
          </mxGeometry>
        </mxCell>
        <mxCell id="LSEXf3g2ld3hCHJIZ-9w-13" style="edgeStyle=orthogonalEdgeStyle;rounded=0;orthogonalLoop=1;jettySize=auto;html=1;exitX=1;exitY=0.5;exitDx=0;exitDy=0;endArrow=none;endFill=0;" parent="1" edge="1">
          <mxGeometry relative="1" as="geometry">
            <Array as="points">
              <mxPoint x="2040" y="1430" />
              <mxPoint x="2040" y="2000.0000000000002" />
              <mxPoint x="1795" y="2000.0000000000002" />
            </Array>
            <mxPoint x="1860.62" y="1430" as="sourcePoint" />
          </mxGeometry>
        </mxCell>
        <mxCell id="LSEXf3g2ld3hCHJIZ-9w-14" style="edgeStyle=orthogonalEdgeStyle;rounded=0;orthogonalLoop=1;jettySize=auto;html=1;exitX=1;exitY=0.5;exitDx=0;exitDy=0;entryX=0;entryY=0.5;entryDx=0;entryDy=0;endArrow=none;endFill=0;" parent="1" edge="1">
          <mxGeometry relative="1" as="geometry">
            <Array as="points">
              <mxPoint x="2270" y="3715" />
              <mxPoint x="2270" y="4200" />
              <mxPoint x="1890" y="4200" />
              <mxPoint x="1890" y="3645" />
            </Array>
            <mxPoint x="2060" y="3645" as="targetPoint" />
          </mxGeometry>
        </mxCell>
        <mxCell id="LSEXf3g2ld3hCHJIZ-9w-15" style="edgeStyle=orthogonalEdgeStyle;rounded=0;orthogonalLoop=1;jettySize=auto;html=1;exitX=1;exitY=0.5;exitDx=0;exitDy=0;endArrow=none;endFill=0;" parent="1" edge="1">
          <mxGeometry relative="1" as="geometry">
            <Array as="points">
              <mxPoint x="2910" y="1990" />
              <mxPoint x="2910" y="2130" />
              <mxPoint x="2830" y="2130" />
            </Array>
            <mxPoint x="2890" y="1990" as="sourcePoint" />
          </mxGeometry>
        </mxCell>
        <mxCell id="LSEXf3g2ld3hCHJIZ-9w-16" style="edgeStyle=orthogonalEdgeStyle;rounded=0;orthogonalLoop=1;jettySize=auto;html=1;exitX=1;exitY=0.5;exitDx=0;exitDy=0;endArrow=none;endFill=0;" parent="1" edge="1">
          <mxGeometry relative="1" as="geometry">
            <Array as="points">
              <mxPoint x="3050" y="2530" />
              <mxPoint x="3050" y="2900" />
              <mxPoint x="2815" y="2900" />
            </Array>
            <mxPoint x="2880" y="2530" as="sourcePoint" />
          </mxGeometry>
        </mxCell>
        <mxCell id="LSEXf3g2ld3hCHJIZ-9w-17" style="edgeStyle=orthogonalEdgeStyle;rounded=0;orthogonalLoop=1;jettySize=auto;html=1;exitX=1;exitY=0.5;exitDx=0;exitDy=0;entryX=0;entryY=0.5;entryDx=0;entryDy=0;endArrow=none;endFill=0;" parent="1" edge="1">
          <mxGeometry relative="1" as="geometry">
            <Array as="points">
              <mxPoint x="2900" y="2700" />
              <mxPoint x="2900" y="2880" />
              <mxPoint x="2640" y="2880" />
              <mxPoint x="2640" y="2530" />
            </Array>
            <mxPoint x="2760" y="2530" as="targetPoint" />
          </mxGeometry>
        </mxCell>
        <mxCell id="LSEXf3g2ld3hCHJIZ-9w-18" style="edgeStyle=orthogonalEdgeStyle;rounded=0;orthogonalLoop=1;jettySize=auto;html=1;exitX=0.5;exitY=1;exitDx=0;exitDy=0;entryX=0;entryY=0.5;entryDx=0;entryDy=0;endArrow=none;endFill=0;" parent="1" edge="1">
          <mxGeometry relative="1" as="geometry">
            <Array as="points">
              <mxPoint x="2818" y="2880" />
              <mxPoint x="2640" y="2880" />
              <mxPoint x="2640" y="2530" />
            </Array>
            <mxPoint x="2760" y="2530" as="targetPoint" />
          </mxGeometry>
        </mxCell>
        <mxCell id="LSEXf3g2ld3hCHJIZ-9w-19" style="edgeStyle=orthogonalEdgeStyle;rounded=0;orthogonalLoop=1;jettySize=auto;html=1;exitX=1;exitY=0.5;exitDx=0;exitDy=0;endArrow=none;endFill=0;" parent="1" edge="1">
          <mxGeometry relative="1" as="geometry">
            <Array as="points">
              <mxPoint x="2970" y="2960" />
              <mxPoint x="2970" y="3200" />
              <mxPoint x="2808" y="3200" />
            </Array>
            <mxPoint x="2877.5" y="2960" as="sourcePoint" />
          </mxGeometry>
        </mxCell>
        <mxCell id="LSEXf3g2ld3hCHJIZ-9w-20" style="edgeStyle=orthogonalEdgeStyle;rounded=0;orthogonalLoop=1;jettySize=auto;html=1;exitX=1;exitY=0.5;exitDx=0;exitDy=0;endArrow=none;endFill=0;" parent="1" edge="1">
          <mxGeometry relative="1" as="geometry">
            <Array as="points">
              <mxPoint x="1910" y="3790" />
              <mxPoint x="1910" y="4360" />
              <mxPoint x="1665" y="4360" />
            </Array>
            <mxPoint x="1730.62" y="3790" as="sourcePoint" />
          </mxGeometry>
        </mxCell>
        <mxCell id="LSEXf3g2ld3hCHJIZ-9w-21" style="edgeStyle=orthogonalEdgeStyle;rounded=0;orthogonalLoop=1;jettySize=auto;html=1;exitX=1;exitY=0.5;exitDx=0;exitDy=0;endArrow=none;endFill=0;" parent="1" edge="1">
          <mxGeometry relative="1" as="geometry">
            <Array as="points">
              <mxPoint x="1983" y="4460" />
              <mxPoint x="1983" y="5030" />
              <mxPoint x="1738" y="5030" />
            </Array>
            <mxPoint x="1803.62" y="4460" as="sourcePoint" />
          </mxGeometry>
        </mxCell>
        <mxCell id="LSEXf3g2ld3hCHJIZ-9w-22" style="edgeStyle=orthogonalEdgeStyle;rounded=0;orthogonalLoop=1;jettySize=auto;html=1;exitX=1;exitY=0.5;exitDx=0;exitDy=0;endArrow=none;endFill=0;" parent="1" edge="1">
          <mxGeometry relative="1" as="geometry">
            <Array as="points">
              <mxPoint x="1810" y="4030" />
              <mxPoint x="1810" y="4170" />
              <mxPoint x="1730" y="4170" />
            </Array>
            <mxPoint x="1790" y="4030" as="sourcePoint" />
          </mxGeometry>
        </mxCell>
        <mxCell id="LSEXf3g2ld3hCHJIZ-9w-23" style="edgeStyle=orthogonalEdgeStyle;rounded=0;orthogonalLoop=1;jettySize=auto;html=1;exitX=1;exitY=0.5;exitDx=0;exitDy=0;endArrow=none;endFill=0;" parent="1" edge="1">
          <mxGeometry relative="1" as="geometry">
            <Array as="points">
              <mxPoint x="1950" y="4570" />
              <mxPoint x="1950" y="4940" />
              <mxPoint x="1715" y="4940" />
            </Array>
            <mxPoint x="1780" y="4570" as="sourcePoint" />
          </mxGeometry>
        </mxCell>
        <mxCell id="LSEXf3g2ld3hCHJIZ-9w-24" style="edgeStyle=orthogonalEdgeStyle;rounded=0;orthogonalLoop=1;jettySize=auto;html=1;exitX=1;exitY=0.5;exitDx=0;exitDy=0;entryX=0;entryY=0.5;entryDx=0;entryDy=0;endArrow=none;endFill=0;" parent="1" edge="1">
          <mxGeometry relative="1" as="geometry">
            <Array as="points">
              <mxPoint x="1800" y="4740" />
              <mxPoint x="1800" y="4920" />
              <mxPoint x="1540" y="4920" />
              <mxPoint x="1540" y="4570" />
            </Array>
            <mxPoint x="1660" y="4570" as="targetPoint" />
          </mxGeometry>
        </mxCell>
        <mxCell id="LSEXf3g2ld3hCHJIZ-9w-25" style="edgeStyle=orthogonalEdgeStyle;rounded=0;orthogonalLoop=1;jettySize=auto;html=1;exitX=0.5;exitY=1;exitDx=0;exitDy=0;entryX=0;entryY=0.5;entryDx=0;entryDy=0;endArrow=none;endFill=0;" parent="1" edge="1">
          <mxGeometry relative="1" as="geometry">
            <Array as="points">
              <mxPoint x="1718" y="4920" />
              <mxPoint x="1540" y="4920" />
              <mxPoint x="1540" y="4570" />
            </Array>
            <mxPoint x="1660" y="4570" as="targetPoint" />
          </mxGeometry>
        </mxCell>
        <mxCell id="LSEXf3g2ld3hCHJIZ-9w-26" style="edgeStyle=orthogonalEdgeStyle;rounded=0;orthogonalLoop=1;jettySize=auto;html=1;exitX=1;exitY=0.5;exitDx=0;exitDy=0;endArrow=none;endFill=0;" parent="1" edge="1">
          <mxGeometry relative="1" as="geometry">
            <Array as="points">
              <mxPoint x="1870" y="5000" />
              <mxPoint x="1870" y="5240" />
              <mxPoint x="1708" y="5240" />
            </Array>
            <mxPoint x="1777.5" y="5000" as="sourcePoint" />
          </mxGeometry>
        </mxCell>
        <mxCell id="LSEXf3g2ld3hCHJIZ-9w-27" style="edgeStyle=orthogonalEdgeStyle;rounded=0;orthogonalLoop=1;jettySize=auto;html=1;exitX=1;exitY=0.5;exitDx=0;exitDy=0;endArrow=none;endFill=0;" parent="1" edge="1">
          <mxGeometry relative="1" as="geometry">
            <Array as="points">
              <mxPoint x="1893" y="6220" />
              <mxPoint x="1893" y="6790" />
              <mxPoint x="1648" y="6790" />
            </Array>
            <mxPoint x="1713.62" y="6220" as="sourcePoint" />
          </mxGeometry>
        </mxCell>
        <mxCell id="LSEXf3g2ld3hCHJIZ-9w-28" style="edgeStyle=orthogonalEdgeStyle;rounded=0;orthogonalLoop=1;jettySize=auto;html=1;exitX=1;exitY=0.5;exitDx=0;exitDy=0;endArrow=none;endFill=0;" parent="1" edge="1">
          <mxGeometry relative="1" as="geometry">
            <Array as="points">
              <mxPoint x="1720" y="5790" />
              <mxPoint x="1720" y="5930" />
              <mxPoint x="1640" y="5930" />
            </Array>
            <mxPoint x="1700" y="5790" as="sourcePoint" />
          </mxGeometry>
        </mxCell>
        <mxCell id="LSEXf3g2ld3hCHJIZ-9w-29" style="edgeStyle=orthogonalEdgeStyle;rounded=0;orthogonalLoop=1;jettySize=auto;html=1;exitX=1;exitY=0.5;exitDx=0;exitDy=0;endArrow=none;endFill=0;" parent="1" edge="1">
          <mxGeometry relative="1" as="geometry">
            <Array as="points">
              <mxPoint x="1860" y="6330" />
              <mxPoint x="1860" y="6700" />
              <mxPoint x="1625" y="6700" />
            </Array>
            <mxPoint x="1690" y="6330" as="sourcePoint" />
          </mxGeometry>
        </mxCell>
        <mxCell id="LSEXf3g2ld3hCHJIZ-9w-30" style="edgeStyle=orthogonalEdgeStyle;rounded=0;orthogonalLoop=1;jettySize=auto;html=1;exitX=1;exitY=0.5;exitDx=0;exitDy=0;entryX=0;entryY=0.5;entryDx=0;entryDy=0;endArrow=none;endFill=0;" parent="1" edge="1">
          <mxGeometry relative="1" as="geometry">
            <Array as="points">
              <mxPoint x="1710" y="6500" />
              <mxPoint x="1710" y="6680" />
              <mxPoint x="1450" y="6680" />
              <mxPoint x="1450" y="6330" />
            </Array>
            <mxPoint x="1570" y="6330" as="targetPoint" />
          </mxGeometry>
        </mxCell>
        <mxCell id="LSEXf3g2ld3hCHJIZ-9w-31" style="edgeStyle=orthogonalEdgeStyle;rounded=0;orthogonalLoop=1;jettySize=auto;html=1;exitX=0.5;exitY=1;exitDx=0;exitDy=0;entryX=0;entryY=0.5;entryDx=0;entryDy=0;endArrow=none;endFill=0;" parent="1" edge="1">
          <mxGeometry relative="1" as="geometry">
            <Array as="points">
              <mxPoint x="1628" y="6680" />
              <mxPoint x="1450" y="6680" />
              <mxPoint x="1450" y="6330" />
            </Array>
            <mxPoint x="1570" y="6330" as="targetPoint" />
          </mxGeometry>
        </mxCell>
        <mxCell id="LSEXf3g2ld3hCHJIZ-9w-32" style="edgeStyle=orthogonalEdgeStyle;rounded=0;orthogonalLoop=1;jettySize=auto;html=1;exitX=1;exitY=0.5;exitDx=0;exitDy=0;endArrow=none;endFill=0;" parent="1" edge="1">
          <mxGeometry relative="1" as="geometry">
            <Array as="points">
              <mxPoint x="1780" y="6760" />
              <mxPoint x="1780" y="7000" />
              <mxPoint x="1618" y="7000" />
            </Array>
            <mxPoint x="1687.5" y="6760" as="sourcePoint" />
          </mxGeometry>
        </mxCell>
        <mxCell id="LSEXf3g2ld3hCHJIZ-9w-33" style="edgeStyle=orthogonalEdgeStyle;rounded=0;orthogonalLoop=1;jettySize=auto;html=1;exitX=1;exitY=0.5;exitDx=0;exitDy=0;endArrow=none;endFill=0;" parent="1" edge="1">
          <mxGeometry relative="1" as="geometry">
            <Array as="points">
              <mxPoint x="1723" y="8070" />
              <mxPoint x="1723" y="8640" />
              <mxPoint x="1478" y="8640" />
            </Array>
            <mxPoint x="1543.62" y="8070" as="sourcePoint" />
          </mxGeometry>
        </mxCell>
        <mxCell id="LSEXf3g2ld3hCHJIZ-9w-34" style="edgeStyle=orthogonalEdgeStyle;rounded=0;orthogonalLoop=1;jettySize=auto;html=1;exitX=1;exitY=0.5;exitDx=0;exitDy=0;endArrow=none;endFill=0;" parent="1" edge="1">
          <mxGeometry relative="1" as="geometry">
            <Array as="points">
              <mxPoint x="1550" y="7640" />
              <mxPoint x="1550" y="7780" />
              <mxPoint x="1470" y="7780" />
            </Array>
            <mxPoint x="1530" y="7640" as="sourcePoint" />
          </mxGeometry>
        </mxCell>
        <mxCell id="LSEXf3g2ld3hCHJIZ-9w-35" style="edgeStyle=orthogonalEdgeStyle;rounded=0;orthogonalLoop=1;jettySize=auto;html=1;exitX=1;exitY=0.5;exitDx=0;exitDy=0;endArrow=none;endFill=0;" parent="1" edge="1">
          <mxGeometry relative="1" as="geometry">
            <Array as="points">
              <mxPoint x="1690" y="8180" />
              <mxPoint x="1690" y="8550" />
              <mxPoint x="1455" y="8550" />
            </Array>
            <mxPoint x="1520" y="8180" as="sourcePoint" />
          </mxGeometry>
        </mxCell>
        <mxCell id="LSEXf3g2ld3hCHJIZ-9w-36" style="edgeStyle=orthogonalEdgeStyle;rounded=0;orthogonalLoop=1;jettySize=auto;html=1;exitX=1;exitY=0.5;exitDx=0;exitDy=0;entryX=0;entryY=0.5;entryDx=0;entryDy=0;endArrow=none;endFill=0;" parent="1" edge="1">
          <mxGeometry relative="1" as="geometry">
            <Array as="points">
              <mxPoint x="1540" y="8350" />
              <mxPoint x="1540" y="8530" />
              <mxPoint x="1280" y="8530" />
              <mxPoint x="1280" y="8180" />
            </Array>
            <mxPoint x="1400" y="8180" as="targetPoint" />
          </mxGeometry>
        </mxCell>
        <mxCell id="LSEXf3g2ld3hCHJIZ-9w-37" style="edgeStyle=orthogonalEdgeStyle;rounded=0;orthogonalLoop=1;jettySize=auto;html=1;exitX=0.5;exitY=1;exitDx=0;exitDy=0;entryX=0;entryY=0.5;entryDx=0;entryDy=0;endArrow=none;endFill=0;" parent="1" edge="1">
          <mxGeometry relative="1" as="geometry">
            <Array as="points">
              <mxPoint x="1458" y="8530" />
              <mxPoint x="1280" y="8530" />
              <mxPoint x="1280" y="8180" />
            </Array>
            <mxPoint x="1400" y="8180" as="targetPoint" />
          </mxGeometry>
        </mxCell>
        <mxCell id="LSEXf3g2ld3hCHJIZ-9w-38" style="edgeStyle=orthogonalEdgeStyle;rounded=0;orthogonalLoop=1;jettySize=auto;html=1;exitX=1;exitY=0.5;exitDx=0;exitDy=0;endArrow=none;endFill=0;" parent="1" edge="1">
          <mxGeometry relative="1" as="geometry">
            <Array as="points">
              <mxPoint x="1610" y="8610" />
              <mxPoint x="1610" y="8850" />
              <mxPoint x="1448" y="8850" />
            </Array>
            <mxPoint x="1517.5" y="8610" as="sourcePoint" />
          </mxGeometry>
        </mxCell>
        <mxCell id="LSEXf3g2ld3hCHJIZ-9w-39" style="edgeStyle=orthogonalEdgeStyle;rounded=0;orthogonalLoop=1;jettySize=auto;html=1;exitX=1;exitY=0.5;exitDx=0;exitDy=0;endArrow=none;endFill=0;" parent="1" edge="1">
          <mxGeometry relative="1" as="geometry">
            <Array as="points">
              <mxPoint x="2180.02" y="8120" />
              <mxPoint x="2180.02" y="8690" />
              <mxPoint x="1935.02" y="8690" />
            </Array>
            <mxPoint x="2000.6399999999999" y="8120" as="sourcePoint" />
          </mxGeometry>
        </mxCell>
        <mxCell id="LSEXf3g2ld3hCHJIZ-9w-40" style="edgeStyle=orthogonalEdgeStyle;rounded=0;orthogonalLoop=1;jettySize=auto;html=1;exitX=1;exitY=0.5;exitDx=0;exitDy=0;endArrow=none;endFill=0;" parent="1" edge="1">
          <mxGeometry relative="1" as="geometry">
            <Array as="points">
              <mxPoint x="2007.02" y="7690" />
              <mxPoint x="2007.02" y="7830" />
              <mxPoint x="1927.02" y="7830" />
            </Array>
            <mxPoint x="1987.02" y="7690" as="sourcePoint" />
          </mxGeometry>
        </mxCell>
        <mxCell id="LSEXf3g2ld3hCHJIZ-9w-41" style="edgeStyle=orthogonalEdgeStyle;rounded=0;orthogonalLoop=1;jettySize=auto;html=1;exitX=1;exitY=0.5;exitDx=0;exitDy=0;endArrow=none;endFill=0;" parent="1" edge="1">
          <mxGeometry relative="1" as="geometry">
            <Array as="points">
              <mxPoint x="2147.02" y="8230" />
              <mxPoint x="2147.02" y="8600" />
              <mxPoint x="1912.02" y="8600" />
            </Array>
            <mxPoint x="1977.02" y="8230" as="sourcePoint" />
          </mxGeometry>
        </mxCell>
        <mxCell id="LSEXf3g2ld3hCHJIZ-9w-42" style="edgeStyle=orthogonalEdgeStyle;rounded=0;orthogonalLoop=1;jettySize=auto;html=1;exitX=1;exitY=0.5;exitDx=0;exitDy=0;entryX=0;entryY=0.5;entryDx=0;entryDy=0;endArrow=none;endFill=0;" parent="1" edge="1">
          <mxGeometry relative="1" as="geometry">
            <Array as="points">
              <mxPoint x="1997.02" y="8400" />
              <mxPoint x="1997.02" y="8580" />
              <mxPoint x="1737.02" y="8580" />
              <mxPoint x="1737.02" y="8230" />
            </Array>
            <mxPoint x="1857.02" y="8230" as="targetPoint" />
          </mxGeometry>
        </mxCell>
        <mxCell id="LSEXf3g2ld3hCHJIZ-9w-43" style="edgeStyle=orthogonalEdgeStyle;rounded=0;orthogonalLoop=1;jettySize=auto;html=1;exitX=0.5;exitY=1;exitDx=0;exitDy=0;entryX=0;entryY=0.5;entryDx=0;entryDy=0;endArrow=none;endFill=0;" parent="1" edge="1">
          <mxGeometry relative="1" as="geometry">
            <Array as="points">
              <mxPoint x="1915.02" y="8580" />
              <mxPoint x="1737.02" y="8580" />
              <mxPoint x="1737.02" y="8230" />
            </Array>
            <mxPoint x="1857.02" y="8230" as="targetPoint" />
          </mxGeometry>
        </mxCell>
        <mxCell id="LSEXf3g2ld3hCHJIZ-9w-44" style="edgeStyle=orthogonalEdgeStyle;rounded=0;orthogonalLoop=1;jettySize=auto;html=1;exitX=1;exitY=0.5;exitDx=0;exitDy=0;endArrow=none;endFill=0;" parent="1" edge="1">
          <mxGeometry relative="1" as="geometry">
            <Array as="points">
              <mxPoint x="2067.02" y="8660" />
              <mxPoint x="2067.02" y="8900" />
              <mxPoint x="1905.02" y="8900" />
            </Array>
            <mxPoint x="1974.52" y="8660" as="sourcePoint" />
          </mxGeometry>
        </mxCell>
        <mxCell id="LSEXf3g2ld3hCHJIZ-9w-45" style="edgeStyle=orthogonalEdgeStyle;rounded=0;orthogonalLoop=1;jettySize=auto;html=1;exitX=0.5;exitY=1;exitDx=0;exitDy=0;entryX=0;entryY=0.5;entryDx=0;entryDy=0;" parent="1" edge="1">
          <mxGeometry relative="1" as="geometry">
            <Array as="points">
              <mxPoint x="1025" y="7310" />
              <mxPoint x="940" y="7310" />
              <mxPoint x="940" y="7180" />
            </Array>
            <mxPoint x="960" y="7180" as="targetPoint" />
          </mxGeometry>
        </mxCell>
        <mxCell id="LSEXf3g2ld3hCHJIZ-9w-46" style="edgeStyle=orthogonalEdgeStyle;rounded=0;orthogonalLoop=1;jettySize=auto;html=1;exitX=1;exitY=0.5;exitDx=0;exitDy=0;endArrow=none;endFill=0;" parent="1" edge="1">
          <mxGeometry relative="1" as="geometry">
            <Array as="points">
              <mxPoint x="2740" y="7020" />
              <mxPoint x="2740" y="7160" />
              <mxPoint x="2660" y="7160" />
            </Array>
            <mxPoint x="2720" y="7020" as="sourcePoint" />
          </mxGeometry>
        </mxCell>
        <mxCell id="LSEXf3g2ld3hCHJIZ-9w-47" style="edgeStyle=orthogonalEdgeStyle;rounded=0;orthogonalLoop=1;jettySize=auto;html=1;exitX=1;exitY=0.5;exitDx=0;exitDy=0;endArrow=none;endFill=0;" parent="1" edge="1">
          <mxGeometry relative="1" as="geometry">
            <Array as="points">
              <mxPoint x="2880" y="7560" />
              <mxPoint x="2880" y="7930" />
              <mxPoint x="2645" y="7930" />
            </Array>
            <mxPoint x="2710" y="7560" as="sourcePoint" />
          </mxGeometry>
        </mxCell>
        <mxCell id="LSEXf3g2ld3hCHJIZ-9w-48" style="edgeStyle=orthogonalEdgeStyle;rounded=0;orthogonalLoop=1;jettySize=auto;html=1;exitX=1;exitY=0.5;exitDx=0;exitDy=0;entryX=0;entryY=0.5;entryDx=0;entryDy=0;endArrow=none;endFill=0;" parent="1" edge="1">
          <mxGeometry relative="1" as="geometry">
            <Array as="points">
              <mxPoint x="2730" y="7730" />
              <mxPoint x="2730" y="7910" />
              <mxPoint x="2470" y="7910" />
              <mxPoint x="2470" y="7560" />
            </Array>
            <mxPoint x="2590" y="7560" as="targetPoint" />
          </mxGeometry>
        </mxCell>
        <mxCell id="LSEXf3g2ld3hCHJIZ-9w-49" style="edgeStyle=orthogonalEdgeStyle;rounded=0;orthogonalLoop=1;jettySize=auto;html=1;exitX=0.5;exitY=1;exitDx=0;exitDy=0;entryX=0;entryY=0.5;entryDx=0;entryDy=0;endArrow=none;endFill=0;" parent="1" edge="1">
          <mxGeometry relative="1" as="geometry">
            <Array as="points">
              <mxPoint x="2648" y="7910" />
              <mxPoint x="2470" y="7910" />
              <mxPoint x="2470" y="7560" />
            </Array>
            <mxPoint x="2590" y="7560" as="targetPoint" />
          </mxGeometry>
        </mxCell>
        <mxCell id="LSEXf3g2ld3hCHJIZ-9w-50" style="edgeStyle=orthogonalEdgeStyle;rounded=0;orthogonalLoop=1;jettySize=auto;html=1;exitX=1;exitY=0.5;exitDx=0;exitDy=0;endArrow=none;endFill=0;" parent="1" edge="1">
          <mxGeometry relative="1" as="geometry">
            <Array as="points">
              <mxPoint x="2800" y="7990" />
              <mxPoint x="2800" y="8230" />
              <mxPoint x="2638" y="8230" />
            </Array>
            <mxPoint x="2707.5" y="7990" as="sourcePoint" />
          </mxGeometry>
        </mxCell>
        <mxCell id="LSEXf3g2ld3hCHJIZ-9w-51" style="edgeStyle=orthogonalEdgeStyle;rounded=0;orthogonalLoop=1;jettySize=auto;html=1;exitX=1;exitY=0.5;exitDx=0;exitDy=0;endArrow=none;endFill=0;" parent="1" edge="1">
          <mxGeometry relative="1" as="geometry">
            <Array as="points">
              <mxPoint x="1760.02" y="7514" />
              <mxPoint x="1760.02" y="7654" />
              <mxPoint x="1680.02" y="7654" />
            </Array>
            <mxPoint x="1740.02" y="7514" as="sourcePoint" />
          </mxGeometry>
        </mxCell>
        <mxCell id="LSEXf3g2ld3hCHJIZ-9w-52" style="edgeStyle=orthogonalEdgeStyle;rounded=0;orthogonalLoop=1;jettySize=auto;html=1;exitX=1;exitY=0.5;exitDx=0;exitDy=0;endArrow=none;endFill=0;" parent="1" edge="1">
          <mxGeometry relative="1" as="geometry">
            <Array as="points">
              <mxPoint x="1900.02" y="8054" />
              <mxPoint x="1900.02" y="8424" />
              <mxPoint x="1665.02" y="8424" />
            </Array>
            <mxPoint x="1730.02" y="8054" as="sourcePoint" />
          </mxGeometry>
        </mxCell>
        <mxCell id="LSEXf3g2ld3hCHJIZ-9w-53" style="edgeStyle=orthogonalEdgeStyle;rounded=0;orthogonalLoop=1;jettySize=auto;html=1;exitX=1;exitY=0.5;exitDx=0;exitDy=0;entryX=0;entryY=0.5;entryDx=0;entryDy=0;endArrow=none;endFill=0;" parent="1" edge="1">
          <mxGeometry relative="1" as="geometry">
            <Array as="points">
              <mxPoint x="1750.02" y="8224" />
              <mxPoint x="1750.02" y="8404" />
              <mxPoint x="1490.02" y="8404" />
              <mxPoint x="1490.02" y="8054" />
            </Array>
            <mxPoint x="1610.02" y="8054" as="targetPoint" />
          </mxGeometry>
        </mxCell>
        <mxCell id="LSEXf3g2ld3hCHJIZ-9w-54" style="edgeStyle=orthogonalEdgeStyle;rounded=0;orthogonalLoop=1;jettySize=auto;html=1;exitX=0.5;exitY=1;exitDx=0;exitDy=0;entryX=0;entryY=0.5;entryDx=0;entryDy=0;endArrow=none;endFill=0;" parent="1" edge="1">
          <mxGeometry relative="1" as="geometry">
            <Array as="points">
              <mxPoint x="1668.02" y="8404" />
              <mxPoint x="1490.02" y="8404" />
              <mxPoint x="1490.02" y="8054" />
            </Array>
            <mxPoint x="1610.02" y="8054" as="targetPoint" />
          </mxGeometry>
        </mxCell>
        <mxCell id="LSEXf3g2ld3hCHJIZ-9w-55" style="edgeStyle=orthogonalEdgeStyle;rounded=0;orthogonalLoop=1;jettySize=auto;html=1;exitX=1;exitY=0.5;exitDx=0;exitDy=0;endArrow=none;endFill=0;" parent="1" edge="1">
          <mxGeometry relative="1" as="geometry">
            <Array as="points">
              <mxPoint x="1820.02" y="8484" />
              <mxPoint x="1820.02" y="8724" />
              <mxPoint x="1658.02" y="8724" />
            </Array>
            <mxPoint x="1727.52" y="8484" as="sourcePoint" />
          </mxGeometry>
        </mxCell>
        <mxCell id="LSEXf3g2ld3hCHJIZ-9w-56" style="edgeStyle=orthogonalEdgeStyle;rounded=0;orthogonalLoop=1;jettySize=auto;html=1;exitX=1;exitY=0.5;exitDx=0;exitDy=0;endArrow=none;endFill=0;" parent="1" edge="1">
          <mxGeometry relative="1" as="geometry">
            <Array as="points">
              <mxPoint x="1920" y="4320" />
              <mxPoint x="1920" y="4890" />
              <mxPoint x="1675" y="4890" />
            </Array>
            <mxPoint x="1740.62" y="4320" as="sourcePoint" />
          </mxGeometry>
        </mxCell>
        <mxCell id="LSEXf3g2ld3hCHJIZ-9w-57" style="edgeStyle=orthogonalEdgeStyle;rounded=0;orthogonalLoop=1;jettySize=auto;html=1;exitX=1;exitY=0.5;exitDx=0;exitDy=0;endArrow=none;endFill=0;" parent="1" edge="1">
          <mxGeometry relative="1" as="geometry">
            <Array as="points">
              <mxPoint x="2333" y="7560" />
              <mxPoint x="2333" y="8130" />
              <mxPoint x="2088" y="8130" />
            </Array>
            <mxPoint x="2153.62" y="7560" as="sourcePoint" />
          </mxGeometry>
        </mxCell>
        <mxCell id="LSEXf3g2ld3hCHJIZ-9w-58" style="edgeStyle=orthogonalEdgeStyle;rounded=0;orthogonalLoop=1;jettySize=auto;html=1;exitX=1;exitY=0.5;exitDx=0;exitDy=0;endArrow=none;endFill=0;" parent="1" edge="1">
          <mxGeometry relative="1" as="geometry">
            <Array as="points">
              <mxPoint x="2160" y="7130" />
              <mxPoint x="2160" y="7270" />
              <mxPoint x="2080" y="7270" />
            </Array>
            <mxPoint x="2140" y="7130" as="sourcePoint" />
          </mxGeometry>
        </mxCell>
        <mxCell id="LSEXf3g2ld3hCHJIZ-9w-59" style="edgeStyle=orthogonalEdgeStyle;rounded=0;orthogonalLoop=1;jettySize=auto;html=1;exitX=1;exitY=0.5;exitDx=0;exitDy=0;endArrow=none;endFill=0;" parent="1" edge="1">
          <mxGeometry relative="1" as="geometry">
            <Array as="points">
              <mxPoint x="2300" y="7670" />
              <mxPoint x="2300" y="8040" />
              <mxPoint x="2065" y="8040" />
            </Array>
            <mxPoint x="2130" y="7670" as="sourcePoint" />
          </mxGeometry>
        </mxCell>
        <mxCell id="LSEXf3g2ld3hCHJIZ-9w-60" style="edgeStyle=orthogonalEdgeStyle;rounded=0;orthogonalLoop=1;jettySize=auto;html=1;exitX=1;exitY=0.5;exitDx=0;exitDy=0;entryX=0;entryY=0.5;entryDx=0;entryDy=0;endArrow=none;endFill=0;" parent="1" edge="1">
          <mxGeometry relative="1" as="geometry">
            <Array as="points">
              <mxPoint x="2150" y="7840" />
              <mxPoint x="2150" y="8020" />
              <mxPoint x="1890" y="8020" />
              <mxPoint x="1890" y="7670" />
            </Array>
            <mxPoint x="2010" y="7670" as="targetPoint" />
          </mxGeometry>
        </mxCell>
        <mxCell id="LSEXf3g2ld3hCHJIZ-9w-61" style="edgeStyle=orthogonalEdgeStyle;rounded=0;orthogonalLoop=1;jettySize=auto;html=1;exitX=0.5;exitY=1;exitDx=0;exitDy=0;entryX=0;entryY=0.5;entryDx=0;entryDy=0;endArrow=none;endFill=0;" parent="1" edge="1">
          <mxGeometry relative="1" as="geometry">
            <Array as="points">
              <mxPoint x="2068" y="8020" />
              <mxPoint x="1890" y="8020" />
              <mxPoint x="1890" y="7670" />
            </Array>
            <mxPoint x="2010" y="7670" as="targetPoint" />
          </mxGeometry>
        </mxCell>
        <mxCell id="LSEXf3g2ld3hCHJIZ-9w-62" style="edgeStyle=orthogonalEdgeStyle;rounded=0;orthogonalLoop=1;jettySize=auto;html=1;exitX=1;exitY=0.5;exitDx=0;exitDy=0;endArrow=none;endFill=0;" parent="1" edge="1">
          <mxGeometry relative="1" as="geometry">
            <Array as="points">
              <mxPoint x="2220" y="8100" />
              <mxPoint x="2220" y="8340" />
              <mxPoint x="2058" y="8340" />
            </Array>
            <mxPoint x="2127.5" y="8100" as="sourcePoint" />
          </mxGeometry>
        </mxCell>
        <mxCell id="LSEXf3g2ld3hCHJIZ-9w-63" style="edgeStyle=orthogonalEdgeStyle;rounded=0;orthogonalLoop=1;jettySize=auto;html=1;exitX=1;exitY=0.5;exitDx=0;exitDy=0;endArrow=none;endFill=0;" parent="1" edge="1">
          <mxGeometry relative="1" as="geometry">
            <Array as="points">
              <mxPoint x="2743" y="2600" />
              <mxPoint x="2743" y="3170" />
              <mxPoint x="2498" y="3170" />
            </Array>
            <mxPoint x="2563.62" y="2600" as="sourcePoint" />
          </mxGeometry>
        </mxCell>
        <mxCell id="LSEXf3g2ld3hCHJIZ-9w-64" style="edgeStyle=orthogonalEdgeStyle;rounded=0;orthogonalLoop=1;jettySize=auto;html=1;exitX=1;exitY=0.5;exitDx=0;exitDy=0;endArrow=none;endFill=0;" parent="1" edge="1">
          <mxGeometry relative="1" as="geometry">
            <Array as="points">
              <mxPoint x="2570" y="2170" />
              <mxPoint x="2570" y="2310" />
              <mxPoint x="2490" y="2310" />
            </Array>
            <mxPoint x="2550" y="2170" as="sourcePoint" />
          </mxGeometry>
        </mxCell>
        <mxCell id="LSEXf3g2ld3hCHJIZ-9w-65" style="edgeStyle=orthogonalEdgeStyle;rounded=0;orthogonalLoop=1;jettySize=auto;html=1;exitX=1;exitY=0.5;exitDx=0;exitDy=0;endArrow=none;endFill=0;" parent="1" edge="1">
          <mxGeometry relative="1" as="geometry">
            <Array as="points">
              <mxPoint x="2710" y="2710" />
              <mxPoint x="2710" y="3080" />
              <mxPoint x="2475" y="3080" />
            </Array>
            <mxPoint x="2540" y="2710" as="sourcePoint" />
          </mxGeometry>
        </mxCell>
        <mxCell id="LSEXf3g2ld3hCHJIZ-9w-66" style="edgeStyle=orthogonalEdgeStyle;rounded=0;orthogonalLoop=1;jettySize=auto;html=1;exitX=1;exitY=0.5;exitDx=0;exitDy=0;entryX=0;entryY=0.5;entryDx=0;entryDy=0;endArrow=none;endFill=0;" parent="1" edge="1">
          <mxGeometry relative="1" as="geometry">
            <Array as="points">
              <mxPoint x="2560" y="2880" />
              <mxPoint x="2560" y="3060" />
              <mxPoint x="2300" y="3060" />
              <mxPoint x="2300" y="2710" />
            </Array>
            <mxPoint x="2420" y="2710" as="targetPoint" />
          </mxGeometry>
        </mxCell>
        <mxCell id="LSEXf3g2ld3hCHJIZ-9w-67" style="edgeStyle=orthogonalEdgeStyle;rounded=0;orthogonalLoop=1;jettySize=auto;html=1;exitX=0.5;exitY=1;exitDx=0;exitDy=0;entryX=0;entryY=0.5;entryDx=0;entryDy=0;endArrow=none;endFill=0;" parent="1" edge="1">
          <mxGeometry relative="1" as="geometry">
            <Array as="points">
              <mxPoint x="2478" y="3060" />
              <mxPoint x="2300" y="3060" />
              <mxPoint x="2300" y="2710" />
            </Array>
            <mxPoint x="2420" y="2710" as="targetPoint" />
          </mxGeometry>
        </mxCell>
        <mxCell id="LSEXf3g2ld3hCHJIZ-9w-68" style="edgeStyle=orthogonalEdgeStyle;rounded=0;orthogonalLoop=1;jettySize=auto;html=1;exitX=1;exitY=0.5;exitDx=0;exitDy=0;endArrow=none;endFill=0;" parent="1" edge="1">
          <mxGeometry relative="1" as="geometry">
            <Array as="points">
              <mxPoint x="2630" y="3140" />
              <mxPoint x="2630" y="3380" />
              <mxPoint x="2468" y="3380" />
            </Array>
            <mxPoint x="2537.5" y="3140" as="sourcePoint" />
          </mxGeometry>
        </mxCell>
        <mxCell id="LSEXf3g2ld3hCHJIZ-9w-69" style="edgeStyle=orthogonalEdgeStyle;rounded=0;orthogonalLoop=1;jettySize=auto;html=1;exitX=1;exitY=0.5;exitDx=0;exitDy=0;endArrow=none;endFill=0;" parent="1" edge="1">
          <mxGeometry relative="1" as="geometry">
            <Array as="points">
              <mxPoint x="2853" y="2810" />
              <mxPoint x="2853" y="3380" />
              <mxPoint x="2608" y="3380" />
            </Array>
            <mxPoint x="2673.62" y="2810" as="sourcePoint" />
          </mxGeometry>
        </mxCell>
        <mxCell id="LSEXf3g2ld3hCHJIZ-9w-70" style="edgeStyle=orthogonalEdgeStyle;rounded=0;orthogonalLoop=1;jettySize=auto;html=1;exitX=1;exitY=0.5;exitDx=0;exitDy=0;endArrow=none;endFill=0;" parent="1" edge="1">
          <mxGeometry relative="1" as="geometry">
            <Array as="points">
              <mxPoint x="2680" y="2380" />
              <mxPoint x="2680" y="2520" />
              <mxPoint x="2600" y="2520" />
            </Array>
            <mxPoint x="2660" y="2380" as="sourcePoint" />
          </mxGeometry>
        </mxCell>
        <mxCell id="LSEXf3g2ld3hCHJIZ-9w-71" style="edgeStyle=orthogonalEdgeStyle;rounded=0;orthogonalLoop=1;jettySize=auto;html=1;exitX=1;exitY=0.5;exitDx=0;exitDy=0;endArrow=none;endFill=0;" parent="1" edge="1">
          <mxGeometry relative="1" as="geometry">
            <Array as="points">
              <mxPoint x="2820" y="2920" />
              <mxPoint x="2820" y="3290" />
              <mxPoint x="2585" y="3290" />
            </Array>
            <mxPoint x="2650" y="2920" as="sourcePoint" />
          </mxGeometry>
        </mxCell>
        <mxCell id="LSEXf3g2ld3hCHJIZ-9w-72" style="edgeStyle=orthogonalEdgeStyle;rounded=0;orthogonalLoop=1;jettySize=auto;html=1;exitX=1;exitY=0.5;exitDx=0;exitDy=0;entryX=0;entryY=0.5;entryDx=0;entryDy=0;endArrow=none;endFill=0;" parent="1" edge="1">
          <mxGeometry relative="1" as="geometry">
            <Array as="points">
              <mxPoint x="2670" y="3090" />
              <mxPoint x="2670" y="3270" />
              <mxPoint x="2410" y="3270" />
              <mxPoint x="2410" y="2920" />
            </Array>
            <mxPoint x="2530" y="2920" as="targetPoint" />
          </mxGeometry>
        </mxCell>
        <mxCell id="LSEXf3g2ld3hCHJIZ-9w-73" style="edgeStyle=orthogonalEdgeStyle;rounded=0;orthogonalLoop=1;jettySize=auto;html=1;exitX=0.5;exitY=1;exitDx=0;exitDy=0;entryX=0;entryY=0.5;entryDx=0;entryDy=0;endArrow=none;endFill=0;" parent="1" edge="1">
          <mxGeometry relative="1" as="geometry">
            <Array as="points">
              <mxPoint x="2588" y="3270" />
              <mxPoint x="2410" y="3270" />
              <mxPoint x="2410" y="2920" />
            </Array>
            <mxPoint x="2530" y="2920" as="targetPoint" />
          </mxGeometry>
        </mxCell>
        <mxCell id="LSEXf3g2ld3hCHJIZ-9w-74" style="edgeStyle=orthogonalEdgeStyle;rounded=0;orthogonalLoop=1;jettySize=auto;html=1;exitX=1;exitY=0.5;exitDx=0;exitDy=0;endArrow=none;endFill=0;" parent="1" edge="1">
          <mxGeometry relative="1" as="geometry">
            <Array as="points">
              <mxPoint x="2740" y="3350" />
              <mxPoint x="2740" y="3590" />
              <mxPoint x="2578" y="3590" />
            </Array>
            <mxPoint x="2647.5" y="3350" as="sourcePoint" />
          </mxGeometry>
        </mxCell>
        <mxCell id="LSEXf3g2ld3hCHJIZ-9w-75" style="edgeStyle=orthogonalEdgeStyle;rounded=0;orthogonalLoop=1;jettySize=auto;html=1;exitX=1;exitY=0.5;exitDx=0;exitDy=0;endArrow=none;endFill=0;" parent="1" edge="1">
          <mxGeometry relative="1" as="geometry">
            <Array as="points">
              <mxPoint x="3190" y="1830" />
              <mxPoint x="3190" y="1970" />
              <mxPoint x="3110" y="1970" />
            </Array>
            <mxPoint x="3170" y="1830" as="sourcePoint" />
          </mxGeometry>
        </mxCell>
        <mxCell id="LSEXf3g2ld3hCHJIZ-9w-76" style="edgeStyle=orthogonalEdgeStyle;rounded=0;orthogonalLoop=1;jettySize=auto;html=1;exitX=1;exitY=0.5;exitDx=0;exitDy=0;endArrow=none;endFill=0;" parent="1" edge="1">
          <mxGeometry relative="1" as="geometry">
            <Array as="points">
              <mxPoint x="3330" y="2370" />
              <mxPoint x="3330" y="2740" />
              <mxPoint x="3095" y="2740" />
            </Array>
            <mxPoint x="3160" y="2370" as="sourcePoint" />
          </mxGeometry>
        </mxCell>
        <mxCell id="LSEXf3g2ld3hCHJIZ-9w-77" style="edgeStyle=orthogonalEdgeStyle;rounded=0;orthogonalLoop=1;jettySize=auto;html=1;exitX=1;exitY=0.5;exitDx=0;exitDy=0;entryX=0;entryY=0.5;entryDx=0;entryDy=0;endArrow=none;endFill=0;" parent="1" edge="1">
          <mxGeometry relative="1" as="geometry">
            <Array as="points">
              <mxPoint x="3180" y="2540" />
              <mxPoint x="3180" y="2720" />
              <mxPoint x="2920" y="2720" />
              <mxPoint x="2920" y="2370" />
            </Array>
            <mxPoint x="3040" y="2370" as="targetPoint" />
          </mxGeometry>
        </mxCell>
        <mxCell id="LSEXf3g2ld3hCHJIZ-9w-78" style="edgeStyle=orthogonalEdgeStyle;rounded=0;orthogonalLoop=1;jettySize=auto;html=1;exitX=0.5;exitY=1;exitDx=0;exitDy=0;entryX=0;entryY=0.5;entryDx=0;entryDy=0;endArrow=none;endFill=0;" parent="1" edge="1">
          <mxGeometry relative="1" as="geometry">
            <Array as="points">
              <mxPoint x="3098" y="2720" />
              <mxPoint x="2920" y="2720" />
              <mxPoint x="2920" y="2370" />
            </Array>
            <mxPoint x="3040" y="2370" as="targetPoint" />
          </mxGeometry>
        </mxCell>
        <mxCell id="LSEXf3g2ld3hCHJIZ-9w-79" style="edgeStyle=orthogonalEdgeStyle;rounded=0;orthogonalLoop=1;jettySize=auto;html=1;exitX=1;exitY=0.5;exitDx=0;exitDy=0;endArrow=none;endFill=0;" parent="1" edge="1">
          <mxGeometry relative="1" as="geometry">
            <Array as="points">
              <mxPoint x="3250" y="2800" />
              <mxPoint x="3250" y="3040" />
              <mxPoint x="3088" y="3040" />
            </Array>
            <mxPoint x="3157.5" y="2800" as="sourcePoint" />
          </mxGeometry>
        </mxCell>
        <mxCell id="LSEXf3g2ld3hCHJIZ-9w-80" style="edgeStyle=orthogonalEdgeStyle;rounded=0;orthogonalLoop=1;jettySize=auto;html=1;exitX=1;exitY=0.5;exitDx=0;exitDy=0;endArrow=none;endFill=0;" parent="1" edge="1">
          <mxGeometry relative="1" as="geometry">
            <Array as="points">
              <mxPoint x="2430" y="2830" />
              <mxPoint x="2430" y="3400" />
              <mxPoint x="2185" y="3400" />
            </Array>
            <mxPoint x="2250.62" y="2830" as="sourcePoint" />
          </mxGeometry>
        </mxCell>
        <mxCell id="LSEXf3g2ld3hCHJIZ-9w-81" style="edgeStyle=orthogonalEdgeStyle;rounded=0;orthogonalLoop=1;jettySize=auto;html=1;exitX=1;exitY=0.5;exitDx=0;exitDy=0;endArrow=none;endFill=0;" parent="1" edge="1">
          <mxGeometry relative="1" as="geometry">
            <Array as="points">
              <mxPoint x="2803" y="4870" />
              <mxPoint x="2803" y="5440" />
              <mxPoint x="2558" y="5440" />
            </Array>
            <mxPoint x="2623.62" y="4870" as="sourcePoint" />
          </mxGeometry>
        </mxCell>
        <mxCell id="LSEXf3g2ld3hCHJIZ-9w-82" style="edgeStyle=orthogonalEdgeStyle;rounded=0;orthogonalLoop=1;jettySize=auto;html=1;exitX=1;exitY=0.5;exitDx=0;exitDy=0;endArrow=none;endFill=0;" parent="1" edge="1">
          <mxGeometry relative="1" as="geometry">
            <Array as="points">
              <mxPoint x="2630" y="4440" />
              <mxPoint x="2630" y="4580" />
              <mxPoint x="2550" y="4580" />
            </Array>
            <mxPoint x="2610" y="4440" as="sourcePoint" />
          </mxGeometry>
        </mxCell>
        <mxCell id="LSEXf3g2ld3hCHJIZ-9w-83" style="edgeStyle=orthogonalEdgeStyle;rounded=0;orthogonalLoop=1;jettySize=auto;html=1;exitX=1;exitY=0.5;exitDx=0;exitDy=0;endArrow=none;endFill=0;" parent="1" edge="1">
          <mxGeometry relative="1" as="geometry">
            <Array as="points">
              <mxPoint x="2770" y="4980" />
              <mxPoint x="2770" y="5350" />
              <mxPoint x="2535" y="5350" />
            </Array>
            <mxPoint x="2600" y="4980" as="sourcePoint" />
          </mxGeometry>
        </mxCell>
        <mxCell id="LSEXf3g2ld3hCHJIZ-9w-84" style="edgeStyle=orthogonalEdgeStyle;rounded=0;orthogonalLoop=1;jettySize=auto;html=1;exitX=1;exitY=0.5;exitDx=0;exitDy=0;entryX=0;entryY=0.5;entryDx=0;entryDy=0;endArrow=none;endFill=0;" parent="1" edge="1">
          <mxGeometry relative="1" as="geometry">
            <Array as="points">
              <mxPoint x="2620" y="5150" />
              <mxPoint x="2620" y="5330" />
              <mxPoint x="2360" y="5330" />
              <mxPoint x="2360" y="4980" />
            </Array>
            <mxPoint x="2480" y="4980" as="targetPoint" />
          </mxGeometry>
        </mxCell>
        <mxCell id="LSEXf3g2ld3hCHJIZ-9w-85" style="edgeStyle=orthogonalEdgeStyle;rounded=0;orthogonalLoop=1;jettySize=auto;html=1;exitX=0.5;exitY=1;exitDx=0;exitDy=0;entryX=0;entryY=0.5;entryDx=0;entryDy=0;endArrow=none;endFill=0;" parent="1" edge="1">
          <mxGeometry relative="1" as="geometry">
            <Array as="points">
              <mxPoint x="2538" y="5330" />
              <mxPoint x="2360" y="5330" />
              <mxPoint x="2360" y="4980" />
            </Array>
            <mxPoint x="2480" y="4980" as="targetPoint" />
          </mxGeometry>
        </mxCell>
        <mxCell id="LSEXf3g2ld3hCHJIZ-9w-86" style="edgeStyle=orthogonalEdgeStyle;rounded=0;orthogonalLoop=1;jettySize=auto;html=1;exitX=1;exitY=0.5;exitDx=0;exitDy=0;endArrow=none;endFill=0;" parent="1" edge="1">
          <mxGeometry relative="1" as="geometry">
            <Array as="points">
              <mxPoint x="2690" y="5410" />
              <mxPoint x="2690" y="5650" />
              <mxPoint x="2528" y="5650" />
            </Array>
            <mxPoint x="2597.5" y="5410" as="sourcePoint" />
          </mxGeometry>
        </mxCell>
        <mxCell id="LSEXf3g2ld3hCHJIZ-9w-87" style="edgeStyle=orthogonalEdgeStyle;rounded=0;orthogonalLoop=1;jettySize=auto;html=1;exitX=1;exitY=0.5;exitDx=0;exitDy=0;endArrow=none;endFill=0;" parent="1" edge="1">
          <mxGeometry relative="1" as="geometry">
            <Array as="points">
              <mxPoint x="2473" y="6810" />
              <mxPoint x="2473" y="7380" />
              <mxPoint x="2228" y="7380" />
            </Array>
            <mxPoint x="2293.62" y="6810" as="sourcePoint" />
          </mxGeometry>
        </mxCell>
        <mxCell id="LSEXf3g2ld3hCHJIZ-9w-88" style="edgeStyle=orthogonalEdgeStyle;rounded=0;orthogonalLoop=1;jettySize=auto;html=1;exitX=1;exitY=0.5;exitDx=0;exitDy=0;endArrow=none;endFill=0;" parent="1" edge="1">
          <mxGeometry relative="1" as="geometry">
            <Array as="points">
              <mxPoint x="2300" y="6380" />
              <mxPoint x="2300" y="6520" />
              <mxPoint x="2220" y="6520" />
            </Array>
            <mxPoint x="2280" y="6380" as="sourcePoint" />
          </mxGeometry>
        </mxCell>
        <mxCell id="LSEXf3g2ld3hCHJIZ-9w-89" style="edgeStyle=orthogonalEdgeStyle;rounded=0;orthogonalLoop=1;jettySize=auto;html=1;exitX=1;exitY=0.5;exitDx=0;exitDy=0;endArrow=none;endFill=0;" parent="1" edge="1">
          <mxGeometry relative="1" as="geometry">
            <Array as="points">
              <mxPoint x="2440" y="6920" />
              <mxPoint x="2440" y="7290" />
              <mxPoint x="2205" y="7290" />
            </Array>
            <mxPoint x="2270" y="6920" as="sourcePoint" />
          </mxGeometry>
        </mxCell>
        <mxCell id="LSEXf3g2ld3hCHJIZ-9w-90" style="edgeStyle=orthogonalEdgeStyle;rounded=0;orthogonalLoop=1;jettySize=auto;html=1;exitX=1;exitY=0.5;exitDx=0;exitDy=0;entryX=0;entryY=0.5;entryDx=0;entryDy=0;endArrow=none;endFill=0;" parent="1" edge="1">
          <mxGeometry relative="1" as="geometry">
            <Array as="points">
              <mxPoint x="2290" y="7090" />
              <mxPoint x="2290" y="7270" />
              <mxPoint x="2030" y="7270" />
              <mxPoint x="2030" y="6920" />
            </Array>
            <mxPoint x="2150" y="6920" as="targetPoint" />
          </mxGeometry>
        </mxCell>
        <mxCell id="LSEXf3g2ld3hCHJIZ-9w-91" style="edgeStyle=orthogonalEdgeStyle;rounded=0;orthogonalLoop=1;jettySize=auto;html=1;exitX=0.5;exitY=1;exitDx=0;exitDy=0;entryX=0;entryY=0.5;entryDx=0;entryDy=0;endArrow=none;endFill=0;" parent="1" edge="1">
          <mxGeometry relative="1" as="geometry">
            <Array as="points">
              <mxPoint x="2208" y="7270" />
              <mxPoint x="2030" y="7270" />
              <mxPoint x="2030" y="6920" />
            </Array>
            <mxPoint x="2150" y="6920" as="targetPoint" />
          </mxGeometry>
        </mxCell>
        <mxCell id="LSEXf3g2ld3hCHJIZ-9w-92" style="edgeStyle=orthogonalEdgeStyle;rounded=0;orthogonalLoop=1;jettySize=auto;html=1;exitX=1;exitY=0.5;exitDx=0;exitDy=0;endArrow=none;endFill=0;" parent="1" edge="1">
          <mxGeometry relative="1" as="geometry">
            <Array as="points">
              <mxPoint x="2360" y="7350" />
              <mxPoint x="2360" y="7590" />
              <mxPoint x="2198" y="7590" />
            </Array>
            <mxPoint x="2267.5" y="7350" as="sourcePoint" />
          </mxGeometry>
        </mxCell>
        <mxCell id="LSEXf3g2ld3hCHJIZ-9w-93" style="edgeStyle=orthogonalEdgeStyle;rounded=0;orthogonalLoop=1;jettySize=auto;html=1;exitX=1;exitY=0.5;exitDx=0;exitDy=0;entryX=0;entryY=0.5;entryDx=0;entryDy=0;endArrow=none;endFill=0;" parent="1" edge="1">
          <mxGeometry relative="1" as="geometry">
            <Array as="points">
              <mxPoint x="2590" y="10805" />
              <mxPoint x="2590" y="11290" />
              <mxPoint x="2210" y="11290" />
              <mxPoint x="2210" y="10735" />
            </Array>
            <mxPoint x="2380" y="10735" as="targetPoint" />
          </mxGeometry>
        </mxCell>
        <mxCell id="LSEXf3g2ld3hCHJIZ-9w-94" style="edgeStyle=orthogonalEdgeStyle;rounded=0;orthogonalLoop=1;jettySize=auto;html=1;exitX=1;exitY=0.5;exitDx=0;exitDy=0;endArrow=none;endFill=0;" parent="1" edge="1">
          <mxGeometry relative="1" as="geometry">
            <Array as="points">
              <mxPoint x="3230" y="9080" />
              <mxPoint x="3230" y="9220" />
              <mxPoint x="3150" y="9220" />
            </Array>
            <mxPoint x="3210" y="9080" as="sourcePoint" />
          </mxGeometry>
        </mxCell>
        <mxCell id="LSEXf3g2ld3hCHJIZ-9w-95" style="edgeStyle=orthogonalEdgeStyle;rounded=0;orthogonalLoop=1;jettySize=auto;html=1;exitX=1;exitY=0.5;exitDx=0;exitDy=0;endArrow=none;endFill=0;" parent="1" edge="1">
          <mxGeometry relative="1" as="geometry">
            <Array as="points">
              <mxPoint x="3370" y="9620" />
              <mxPoint x="3370" y="9990" />
              <mxPoint x="3135" y="9990" />
            </Array>
            <mxPoint x="3200" y="9620" as="sourcePoint" />
          </mxGeometry>
        </mxCell>
        <mxCell id="LSEXf3g2ld3hCHJIZ-9w-96" style="edgeStyle=orthogonalEdgeStyle;rounded=0;orthogonalLoop=1;jettySize=auto;html=1;exitX=1;exitY=0.5;exitDx=0;exitDy=0;entryX=0;entryY=0.5;entryDx=0;entryDy=0;endArrow=none;endFill=0;" parent="1" edge="1">
          <mxGeometry relative="1" as="geometry">
            <Array as="points">
              <mxPoint x="3220" y="9790" />
              <mxPoint x="3220" y="9970" />
              <mxPoint x="2960" y="9970" />
              <mxPoint x="2960" y="9620" />
            </Array>
            <mxPoint x="3080" y="9620" as="targetPoint" />
          </mxGeometry>
        </mxCell>
        <mxCell id="LSEXf3g2ld3hCHJIZ-9w-97" style="edgeStyle=orthogonalEdgeStyle;rounded=0;orthogonalLoop=1;jettySize=auto;html=1;exitX=0.5;exitY=1;exitDx=0;exitDy=0;entryX=0;entryY=0.5;entryDx=0;entryDy=0;endArrow=none;endFill=0;" parent="1" edge="1">
          <mxGeometry relative="1" as="geometry">
            <Array as="points">
              <mxPoint x="3138" y="9970" />
              <mxPoint x="2960" y="9970" />
              <mxPoint x="2960" y="9620" />
            </Array>
            <mxPoint x="3080" y="9620" as="targetPoint" />
          </mxGeometry>
        </mxCell>
        <mxCell id="LSEXf3g2ld3hCHJIZ-9w-98" style="edgeStyle=orthogonalEdgeStyle;rounded=0;orthogonalLoop=1;jettySize=auto;html=1;exitX=1;exitY=0.5;exitDx=0;exitDy=0;endArrow=none;endFill=0;" parent="1" edge="1">
          <mxGeometry relative="1" as="geometry">
            <Array as="points">
              <mxPoint x="3290" y="10050" />
              <mxPoint x="3290" y="10290" />
              <mxPoint x="3128" y="10290" />
            </Array>
            <mxPoint x="3197.5" y="10050" as="sourcePoint" />
          </mxGeometry>
        </mxCell>
        <mxCell id="LSEXf3g2ld3hCHJIZ-9w-99" style="edgeStyle=orthogonalEdgeStyle;rounded=0;orthogonalLoop=1;jettySize=auto;html=1;exitX=1;exitY=0.5;exitDx=0;exitDy=0;entryX=0;entryY=0.5;entryDx=0;entryDy=0;endArrow=none;endFill=0;" parent="1" edge="1">
          <mxGeometry relative="1" as="geometry">
            <Array as="points">
              <mxPoint x="2890" y="4665" />
              <mxPoint x="2890" y="5150" />
              <mxPoint x="2510" y="5150" />
              <mxPoint x="2510" y="4595" />
            </Array>
            <mxPoint x="2680" y="4595" as="targetPoint" />
          </mxGeometry>
        </mxCell>
        <mxCell id="LSEXf3g2ld3hCHJIZ-9w-100" style="edgeStyle=orthogonalEdgeStyle;rounded=0;orthogonalLoop=1;jettySize=auto;html=1;exitX=1;exitY=0.5;exitDx=0;exitDy=0;entryX=0;entryY=0.5;entryDx=0;entryDy=0;endArrow=none;endFill=0;" parent="1" edge="1">
          <mxGeometry relative="1" as="geometry">
            <mxPoint x="2680" y="4665" as="targetPoint" />
            <Array as="points">
              <mxPoint x="2840" y="4735" />
              <mxPoint x="2840" y="5140" />
              <mxPoint x="2590" y="5140" />
              <mxPoint x="2590" y="4665" />
            </Array>
          </mxGeometry>
        </mxCell>
        <mxCell id="LSEXf3g2ld3hCHJIZ-9w-101" style="edgeStyle=orthogonalEdgeStyle;rounded=0;orthogonalLoop=1;jettySize=auto;html=1;exitX=1;exitY=0.5;exitDx=0;exitDy=0;" parent="1" edge="1">
          <mxGeometry relative="1" as="geometry">
            <Array as="points">
              <mxPoint x="2850" y="2620" />
              <mxPoint x="2850" y="3120" />
              <mxPoint x="2740" y="3120" />
            </Array>
            <mxPoint x="2805" y="2620" as="sourcePoint" />
          </mxGeometry>
        </mxCell>
        <mxCell id="LSEXf3g2ld3hCHJIZ-9w-102" style="edgeStyle=orthogonalEdgeStyle;rounded=0;orthogonalLoop=1;jettySize=auto;html=1;exitX=1;exitY=0.5;exitDx=0;exitDy=0;endArrow=none;endFill=0;" parent="1" edge="1">
          <mxGeometry relative="1" as="geometry">
            <Array as="points">
              <mxPoint x="3530" y="2940" />
              <mxPoint x="3530" y="3080" />
              <mxPoint x="3450" y="3080" />
            </Array>
            <mxPoint x="3510" y="2940" as="sourcePoint" />
          </mxGeometry>
        </mxCell>
        <mxCell id="LSEXf3g2ld3hCHJIZ-9w-103" style="edgeStyle=orthogonalEdgeStyle;rounded=0;orthogonalLoop=1;jettySize=auto;html=1;exitX=1;exitY=0.5;exitDx=0;exitDy=0;endArrow=none;endFill=0;" parent="1" edge="1">
          <mxGeometry relative="1" as="geometry">
            <Array as="points">
              <mxPoint x="3670" y="3480" />
              <mxPoint x="3670" y="3850" />
              <mxPoint x="3435" y="3850" />
            </Array>
            <mxPoint x="3500" y="3480" as="sourcePoint" />
          </mxGeometry>
        </mxCell>
        <mxCell id="LSEXf3g2ld3hCHJIZ-9w-104" style="edgeStyle=orthogonalEdgeStyle;rounded=0;orthogonalLoop=1;jettySize=auto;html=1;exitX=1;exitY=0.5;exitDx=0;exitDy=0;entryX=0;entryY=0.5;entryDx=0;entryDy=0;endArrow=none;endFill=0;" parent="1" edge="1">
          <mxGeometry relative="1" as="geometry">
            <Array as="points">
              <mxPoint x="3520" y="3650" />
              <mxPoint x="3520" y="3830" />
              <mxPoint x="3260" y="3830" />
              <mxPoint x="3260" y="3480" />
            </Array>
            <mxPoint x="3380" y="3480" as="targetPoint" />
          </mxGeometry>
        </mxCell>
        <mxCell id="LSEXf3g2ld3hCHJIZ-9w-105" style="edgeStyle=orthogonalEdgeStyle;rounded=0;orthogonalLoop=1;jettySize=auto;html=1;exitX=0.5;exitY=1;exitDx=0;exitDy=0;entryX=0;entryY=0.5;entryDx=0;entryDy=0;endArrow=none;endFill=0;" parent="1" edge="1">
          <mxGeometry relative="1" as="geometry">
            <Array as="points">
              <mxPoint x="3438" y="3830" />
              <mxPoint x="3260" y="3830" />
              <mxPoint x="3260" y="3480" />
            </Array>
            <mxPoint x="3380" y="3480" as="targetPoint" />
          </mxGeometry>
        </mxCell>
        <mxCell id="LSEXf3g2ld3hCHJIZ-9w-106" style="edgeStyle=orthogonalEdgeStyle;rounded=0;orthogonalLoop=1;jettySize=auto;html=1;exitX=1;exitY=0.5;exitDx=0;exitDy=0;endArrow=none;endFill=0;" parent="1" edge="1">
          <mxGeometry relative="1" as="geometry">
            <Array as="points">
              <mxPoint x="3590" y="3910" />
              <mxPoint x="3590" y="4150" />
              <mxPoint x="3428" y="4150" />
            </Array>
            <mxPoint x="3497.5" y="3910" as="sourcePoint" />
          </mxGeometry>
        </mxCell>
        <mxCell id="LSEXf3g2ld3hCHJIZ-9w-107" style="edgeStyle=orthogonalEdgeStyle;rounded=0;orthogonalLoop=1;jettySize=auto;html=1;exitX=1;exitY=0.5;exitDx=0;exitDy=0;endArrow=none;endFill=0;" parent="1" edge="1">
          <mxGeometry relative="1" as="geometry">
            <Array as="points">
              <mxPoint x="3610" y="4620" />
              <mxPoint x="3610" y="4970" />
              <mxPoint x="3414" y="4970" />
            </Array>
            <mxPoint x="3483.75" y="4620" as="sourcePoint" />
          </mxGeometry>
        </mxCell>
        <mxCell id="LSEXf3g2ld3hCHJIZ-9w-108" style="edgeStyle=orthogonalEdgeStyle;rounded=0;orthogonalLoop=1;jettySize=auto;html=1;exitX=1;exitY=0.5;exitDx=0;exitDy=0;endArrow=none;endFill=0;" parent="1" edge="1">
          <mxGeometry relative="1" as="geometry">
            <Array as="points">
              <mxPoint x="3520" y="4725" />
              <mxPoint x="3520" y="4860" />
              <mxPoint x="3419" y="4860" />
            </Array>
            <mxPoint x="3468.12" y="4725" as="sourcePoint" />
          </mxGeometry>
        </mxCell>
        <mxCell id="LSEXf3g2ld3hCHJIZ-9w-109" style="edgeStyle=orthogonalEdgeStyle;rounded=0;orthogonalLoop=1;jettySize=auto;html=1;exitX=1;exitY=0.5;exitDx=0;exitDy=0;endArrow=none;endFill=0;" parent="1" edge="1">
          <mxGeometry relative="1" as="geometry">
            <Array as="points">
              <mxPoint x="2770" y="3160" />
              <mxPoint x="2770" y="3730" />
              <mxPoint x="2525" y="3730" />
            </Array>
            <mxPoint x="2590.62" y="3160" as="sourcePoint" />
          </mxGeometry>
        </mxCell>
        <mxCell id="LSEXf3g2ld3hCHJIZ-9w-110" style="edgeStyle=orthogonalEdgeStyle;rounded=0;orthogonalLoop=1;jettySize=auto;html=1;exitX=1;exitY=0.5;exitDx=0;exitDy=0;endArrow=none;endFill=0;" parent="1" edge="1">
          <mxGeometry relative="1" as="geometry">
            <Array as="points">
              <mxPoint x="1093" y="1050" />
              <mxPoint x="1093" y="1620" />
              <mxPoint x="848" y="1620" />
            </Array>
            <mxPoint x="913.6199999999999" y="1050" as="sourcePoint" />
          </mxGeometry>
        </mxCell>
        <mxCell id="LSEXf3g2ld3hCHJIZ-9w-111" style="edgeStyle=orthogonalEdgeStyle;rounded=0;orthogonalLoop=1;jettySize=auto;html=1;exitX=1;exitY=0.5;exitDx=0;exitDy=0;endArrow=none;endFill=0;" parent="1" edge="1">
          <mxGeometry relative="1" as="geometry">
            <Array as="points">
              <mxPoint x="920" y="620" />
              <mxPoint x="920" y="760" />
              <mxPoint x="840" y="760" />
            </Array>
            <mxPoint x="900" y="620" as="sourcePoint" />
          </mxGeometry>
        </mxCell>
        <mxCell id="LSEXf3g2ld3hCHJIZ-9w-112" style="edgeStyle=orthogonalEdgeStyle;rounded=0;orthogonalLoop=1;jettySize=auto;html=1;exitX=1;exitY=0.5;exitDx=0;exitDy=0;endArrow=none;endFill=0;" parent="1" edge="1">
          <mxGeometry relative="1" as="geometry">
            <Array as="points">
              <mxPoint x="1060" y="1160" />
              <mxPoint x="1060" y="1530" />
              <mxPoint x="825" y="1530" />
            </Array>
            <mxPoint x="890" y="1160" as="sourcePoint" />
          </mxGeometry>
        </mxCell>
        <mxCell id="LSEXf3g2ld3hCHJIZ-9w-113" style="edgeStyle=orthogonalEdgeStyle;rounded=0;orthogonalLoop=1;jettySize=auto;html=1;exitX=1;exitY=0.5;exitDx=0;exitDy=0;entryX=0;entryY=0.5;entryDx=0;entryDy=0;endArrow=none;endFill=0;" parent="1" edge="1">
          <mxGeometry relative="1" as="geometry">
            <Array as="points">
              <mxPoint x="910" y="1330" />
              <mxPoint x="910" y="1510" />
              <mxPoint x="650" y="1510" />
              <mxPoint x="650" y="1160" />
            </Array>
            <mxPoint x="770" y="1160" as="targetPoint" />
          </mxGeometry>
        </mxCell>
        <mxCell id="LSEXf3g2ld3hCHJIZ-9w-114" style="edgeStyle=orthogonalEdgeStyle;rounded=0;orthogonalLoop=1;jettySize=auto;html=1;exitX=0.5;exitY=1;exitDx=0;exitDy=0;entryX=0;entryY=0.5;entryDx=0;entryDy=0;endArrow=none;endFill=0;" parent="1" edge="1">
          <mxGeometry relative="1" as="geometry">
            <Array as="points">
              <mxPoint x="828" y="1510" />
              <mxPoint x="650" y="1510" />
              <mxPoint x="650" y="1160" />
            </Array>
            <mxPoint x="770" y="1160" as="targetPoint" />
          </mxGeometry>
        </mxCell>
        <mxCell id="LSEXf3g2ld3hCHJIZ-9w-115" style="edgeStyle=orthogonalEdgeStyle;rounded=0;orthogonalLoop=1;jettySize=auto;html=1;exitX=1;exitY=0.5;exitDx=0;exitDy=0;endArrow=none;endFill=0;" parent="1" edge="1">
          <mxGeometry relative="1" as="geometry">
            <Array as="points">
              <mxPoint x="980" y="1590" />
              <mxPoint x="980" y="1830" />
              <mxPoint x="818" y="1830" />
            </Array>
            <mxPoint x="887.5" y="1590" as="sourcePoint" />
          </mxGeometry>
        </mxCell>
        <mxCell id="LSEXf3g2ld3hCHJIZ-9w-116" style="edgeStyle=orthogonalEdgeStyle;rounded=0;orthogonalLoop=1;jettySize=auto;html=1;exitX=1;exitY=0.5;exitDx=0;exitDy=0;endArrow=none;endFill=0;" parent="1" edge="1">
          <mxGeometry relative="1" as="geometry">
            <Array as="points">
              <mxPoint x="2383" y="680" />
              <mxPoint x="2383" y="1250" />
              <mxPoint x="2138" y="1250" />
            </Array>
            <mxPoint x="2203.62" y="680" as="sourcePoint" />
          </mxGeometry>
        </mxCell>
        <mxCell id="LSEXf3g2ld3hCHJIZ-9w-117" style="edgeStyle=orthogonalEdgeStyle;rounded=0;orthogonalLoop=1;jettySize=auto;html=1;exitX=1;exitY=0.5;exitDx=0;exitDy=0;endArrow=none;endFill=0;" parent="1" edge="1">
          <mxGeometry relative="1" as="geometry">
            <Array as="points">
              <mxPoint x="2210" y="250" />
              <mxPoint x="2210" y="390" />
              <mxPoint x="2130" y="390" />
            </Array>
            <mxPoint x="2190" y="250" as="sourcePoint" />
          </mxGeometry>
        </mxCell>
        <mxCell id="LSEXf3g2ld3hCHJIZ-9w-118" style="edgeStyle=orthogonalEdgeStyle;rounded=0;orthogonalLoop=1;jettySize=auto;html=1;exitX=1;exitY=0.5;exitDx=0;exitDy=0;endArrow=none;endFill=0;" parent="1" edge="1">
          <mxGeometry relative="1" as="geometry">
            <Array as="points">
              <mxPoint x="2350" y="790" />
              <mxPoint x="2350" y="1160" />
              <mxPoint x="2115" y="1160" />
            </Array>
            <mxPoint x="2180" y="790" as="sourcePoint" />
          </mxGeometry>
        </mxCell>
        <mxCell id="LSEXf3g2ld3hCHJIZ-9w-119" style="edgeStyle=orthogonalEdgeStyle;rounded=0;orthogonalLoop=1;jettySize=auto;html=1;exitX=1;exitY=0.5;exitDx=0;exitDy=0;entryX=0;entryY=0.5;entryDx=0;entryDy=0;endArrow=none;endFill=0;" parent="1" edge="1">
          <mxGeometry relative="1" as="geometry">
            <Array as="points">
              <mxPoint x="2200" y="960" />
              <mxPoint x="2200" y="1140" />
              <mxPoint x="1940" y="1140" />
              <mxPoint x="1940" y="790" />
            </Array>
            <mxPoint x="2060" y="790" as="targetPoint" />
          </mxGeometry>
        </mxCell>
        <mxCell id="LSEXf3g2ld3hCHJIZ-9w-120" style="edgeStyle=orthogonalEdgeStyle;rounded=0;orthogonalLoop=1;jettySize=auto;html=1;exitX=0.5;exitY=1;exitDx=0;exitDy=0;entryX=0;entryY=0.5;entryDx=0;entryDy=0;endArrow=none;endFill=0;" parent="1" edge="1">
          <mxGeometry relative="1" as="geometry">
            <Array as="points">
              <mxPoint x="2118" y="1140" />
              <mxPoint x="1940" y="1140" />
              <mxPoint x="1940" y="790" />
            </Array>
            <mxPoint x="2060" y="790" as="targetPoint" />
          </mxGeometry>
        </mxCell>
        <mxCell id="LSEXf3g2ld3hCHJIZ-9w-121" style="edgeStyle=orthogonalEdgeStyle;rounded=0;orthogonalLoop=1;jettySize=auto;html=1;exitX=1;exitY=0.5;exitDx=0;exitDy=0;endArrow=none;endFill=0;" parent="1" edge="1">
          <mxGeometry relative="1" as="geometry">
            <Array as="points">
              <mxPoint x="2270" y="1220" />
              <mxPoint x="2270" y="1460" />
              <mxPoint x="2108" y="1460" />
            </Array>
            <mxPoint x="2177.5" y="1220" as="sourcePoint" />
          </mxGeometry>
        </mxCell>
        <mxCell id="LSEXf3g2ld3hCHJIZ-9w-122" style="edgeStyle=orthogonalEdgeStyle;rounded=0;orthogonalLoop=1;jettySize=auto;html=1;exitX=1;exitY=0.5;exitDx=0;exitDy=0;endArrow=none;endFill=0;" parent="1" edge="1">
          <mxGeometry relative="1" as="geometry">
            <Array as="points">
              <mxPoint x="2213" y="1780" />
              <mxPoint x="2213" y="2350" />
              <mxPoint x="1968" y="2350" />
            </Array>
            <mxPoint x="2033.62" y="1780" as="sourcePoint" />
          </mxGeometry>
        </mxCell>
        <mxCell id="LSEXf3g2ld3hCHJIZ-9w-123" style="edgeStyle=orthogonalEdgeStyle;rounded=0;orthogonalLoop=1;jettySize=auto;html=1;exitX=1;exitY=0.5;exitDx=0;exitDy=0;endArrow=none;endFill=0;" parent="1" edge="1">
          <mxGeometry relative="1" as="geometry">
            <Array as="points">
              <mxPoint x="2040" y="1350" />
              <mxPoint x="2040" y="1490" />
              <mxPoint x="1960" y="1490" />
            </Array>
            <mxPoint x="2020" y="1350" as="sourcePoint" />
          </mxGeometry>
        </mxCell>
        <mxCell id="LSEXf3g2ld3hCHJIZ-9w-124" style="edgeStyle=orthogonalEdgeStyle;rounded=0;orthogonalLoop=1;jettySize=auto;html=1;exitX=1;exitY=0.5;exitDx=0;exitDy=0;endArrow=none;endFill=0;" parent="1" edge="1">
          <mxGeometry relative="1" as="geometry">
            <Array as="points">
              <mxPoint x="2180" y="1890" />
              <mxPoint x="2180" y="2260" />
              <mxPoint x="1945" y="2260" />
            </Array>
            <mxPoint x="2010" y="1890" as="sourcePoint" />
          </mxGeometry>
        </mxCell>
        <mxCell id="LSEXf3g2ld3hCHJIZ-9w-125" style="edgeStyle=orthogonalEdgeStyle;rounded=0;orthogonalLoop=1;jettySize=auto;html=1;exitX=1;exitY=0.5;exitDx=0;exitDy=0;entryX=0;entryY=0.5;entryDx=0;entryDy=0;endArrow=none;endFill=0;" parent="1" edge="1">
          <mxGeometry relative="1" as="geometry">
            <Array as="points">
              <mxPoint x="2030" y="2060" />
              <mxPoint x="2030" y="2240" />
              <mxPoint x="1770" y="2240" />
              <mxPoint x="1770" y="1890" />
            </Array>
            <mxPoint x="1890" y="1890" as="targetPoint" />
          </mxGeometry>
        </mxCell>
        <mxCell id="LSEXf3g2ld3hCHJIZ-9w-126" style="edgeStyle=orthogonalEdgeStyle;rounded=0;orthogonalLoop=1;jettySize=auto;html=1;exitX=0.5;exitY=1;exitDx=0;exitDy=0;entryX=0;entryY=0.5;entryDx=0;entryDy=0;endArrow=none;endFill=0;" parent="1" edge="1">
          <mxGeometry relative="1" as="geometry">
            <Array as="points">
              <mxPoint x="1948" y="2240" />
              <mxPoint x="1770" y="2240" />
              <mxPoint x="1770" y="1890" />
            </Array>
            <mxPoint x="1890" y="1890" as="targetPoint" />
          </mxGeometry>
        </mxCell>
        <mxCell id="LSEXf3g2ld3hCHJIZ-9w-127" style="edgeStyle=orthogonalEdgeStyle;rounded=0;orthogonalLoop=1;jettySize=auto;html=1;exitX=1;exitY=0.5;exitDx=0;exitDy=0;endArrow=none;endFill=0;" parent="1" edge="1">
          <mxGeometry relative="1" as="geometry">
            <Array as="points">
              <mxPoint x="2100" y="2320" />
              <mxPoint x="2100" y="2560" />
              <mxPoint x="1938" y="2560" />
            </Array>
            <mxPoint x="2007.5" y="2320" as="sourcePoint" />
          </mxGeometry>
        </mxCell>
        <mxCell id="LSEXf3g2ld3hCHJIZ-9w-128" style="edgeStyle=orthogonalEdgeStyle;rounded=0;orthogonalLoop=1;jettySize=auto;html=1;exitX=1;exitY=0.5;exitDx=0;exitDy=0;entryX=0;entryY=0.5;entryDx=0;entryDy=0;endArrow=none;endFill=0;" parent="1" edge="1">
          <mxGeometry relative="1" as="geometry">
            <Array as="points">
              <mxPoint x="1310" y="5565" />
              <mxPoint x="1310" y="6050" />
              <mxPoint x="930" y="6050" />
              <mxPoint x="930" y="5495" />
            </Array>
            <mxPoint x="1100" y="5495" as="targetPoint" />
          </mxGeometry>
        </mxCell>
        <mxCell id="LSEXf3g2ld3hCHJIZ-9w-129" style="edgeStyle=orthogonalEdgeStyle;rounded=0;orthogonalLoop=1;jettySize=auto;html=1;exitX=1;exitY=0.5;exitDx=0;exitDy=0;" parent="1" edge="1">
          <mxGeometry relative="1" as="geometry">
            <Array as="points">
              <mxPoint x="1270" y="3520" />
              <mxPoint x="1270" y="4020" />
              <mxPoint x="1160" y="4020" />
            </Array>
            <mxPoint x="1225" y="3520" as="sourcePoint" />
          </mxGeometry>
        </mxCell>
        <mxCell id="LSEXf3g2ld3hCHJIZ-9w-130" style="edgeStyle=orthogonalEdgeStyle;rounded=0;orthogonalLoop=1;jettySize=auto;html=1;exitX=1;exitY=0.5;exitDx=0;exitDy=0;endArrow=none;endFill=0;" parent="1" edge="1">
          <mxGeometry relative="1" as="geometry">
            <Array as="points">
              <mxPoint x="1950" y="3840" />
              <mxPoint x="1950" y="3980" />
              <mxPoint x="1870" y="3980" />
            </Array>
            <mxPoint x="1930" y="3840" as="sourcePoint" />
          </mxGeometry>
        </mxCell>
        <mxCell id="LSEXf3g2ld3hCHJIZ-9w-131" style="edgeStyle=orthogonalEdgeStyle;rounded=0;orthogonalLoop=1;jettySize=auto;html=1;exitX=1;exitY=0.5;exitDx=0;exitDy=0;endArrow=none;endFill=0;" parent="1" edge="1">
          <mxGeometry relative="1" as="geometry">
            <Array as="points">
              <mxPoint x="2090" y="4380" />
              <mxPoint x="2090" y="4750" />
              <mxPoint x="1855" y="4750" />
            </Array>
            <mxPoint x="1920" y="4380" as="sourcePoint" />
          </mxGeometry>
        </mxCell>
        <mxCell id="LSEXf3g2ld3hCHJIZ-9w-132" style="edgeStyle=orthogonalEdgeStyle;rounded=0;orthogonalLoop=1;jettySize=auto;html=1;exitX=1;exitY=0.5;exitDx=0;exitDy=0;entryX=0;entryY=0.5;entryDx=0;entryDy=0;endArrow=none;endFill=0;" parent="1" edge="1">
          <mxGeometry relative="1" as="geometry">
            <Array as="points">
              <mxPoint x="1940" y="4550" />
              <mxPoint x="1940" y="4730" />
              <mxPoint x="1680" y="4730" />
              <mxPoint x="1680" y="4380" />
            </Array>
            <mxPoint x="1800" y="4380" as="targetPoint" />
          </mxGeometry>
        </mxCell>
        <mxCell id="LSEXf3g2ld3hCHJIZ-9w-133" style="edgeStyle=orthogonalEdgeStyle;rounded=0;orthogonalLoop=1;jettySize=auto;html=1;exitX=0.5;exitY=1;exitDx=0;exitDy=0;entryX=0;entryY=0.5;entryDx=0;entryDy=0;endArrow=none;endFill=0;" parent="1" edge="1">
          <mxGeometry relative="1" as="geometry">
            <Array as="points">
              <mxPoint x="1858" y="4730" />
              <mxPoint x="1680" y="4730" />
              <mxPoint x="1680" y="4380" />
            </Array>
            <mxPoint x="1800" y="4380" as="targetPoint" />
          </mxGeometry>
        </mxCell>
        <mxCell id="LSEXf3g2ld3hCHJIZ-9w-134" style="edgeStyle=orthogonalEdgeStyle;rounded=0;orthogonalLoop=1;jettySize=auto;html=1;exitX=1;exitY=0.5;exitDx=0;exitDy=0;endArrow=none;endFill=0;" parent="1" edge="1">
          <mxGeometry relative="1" as="geometry">
            <Array as="points">
              <mxPoint x="2010" y="4810" />
              <mxPoint x="2010" y="5050" />
              <mxPoint x="1848" y="5050" />
            </Array>
            <mxPoint x="1917.5" y="4810" as="sourcePoint" />
          </mxGeometry>
        </mxCell>
        <mxCell id="LSEXf3g2ld3hCHJIZ-9w-135" style="edgeStyle=orthogonalEdgeStyle;rounded=0;orthogonalLoop=1;jettySize=auto;html=1;exitX=1;exitY=0.5;exitDx=0;exitDy=0;entryX=0;entryY=0.5;entryDx=0;entryDy=0;endArrow=none;endFill=0;" parent="1" edge="1">
          <mxGeometry relative="1" as="geometry">
            <Array as="points">
              <mxPoint x="2580" y="3975" />
              <mxPoint x="2580" y="4460" />
              <mxPoint x="2200" y="4460" />
              <mxPoint x="2200" y="3905" />
            </Array>
            <mxPoint x="2370" y="3905" as="targetPoint" />
          </mxGeometry>
        </mxCell>
        <mxCell id="LSEXf3g2ld3hCHJIZ-9w-136" style="edgeStyle=orthogonalEdgeStyle;rounded=0;orthogonalLoop=1;jettySize=auto;html=1;exitX=1;exitY=0.5;exitDx=0;exitDy=0;entryX=0;entryY=0.5;entryDx=0;entryDy=0;endArrow=none;endFill=0;" parent="1" edge="1">
          <mxGeometry relative="1" as="geometry">
            <mxPoint x="2370" y="3975" as="targetPoint" />
            <Array as="points">
              <mxPoint x="2530" y="4045" />
              <mxPoint x="2530" y="4450" />
              <mxPoint x="2280" y="4450" />
              <mxPoint x="2280" y="3975" />
            </Array>
          </mxGeometry>
        </mxCell>
        <mxCell id="LSEXf3g2ld3hCHJIZ-9w-137" style="edgeStyle=orthogonalEdgeStyle;rounded=0;orthogonalLoop=1;jettySize=auto;html=1;exitX=1;exitY=0.5;exitDx=0;exitDy=0;endArrow=none;endFill=0;" parent="1" edge="1">
          <mxGeometry relative="1" as="geometry">
            <Array as="points">
              <mxPoint x="3220" y="2250" />
              <mxPoint x="3220" y="2390" />
              <mxPoint x="3140" y="2390" />
            </Array>
            <mxPoint x="3200" y="2250" as="sourcePoint" />
          </mxGeometry>
        </mxCell>
        <mxCell id="LSEXf3g2ld3hCHJIZ-9w-138" style="edgeStyle=orthogonalEdgeStyle;rounded=0;orthogonalLoop=1;jettySize=auto;html=1;exitX=1;exitY=0.5;exitDx=0;exitDy=0;endArrow=none;endFill=0;" parent="1" edge="1">
          <mxGeometry relative="1" as="geometry">
            <Array as="points">
              <mxPoint x="3360" y="2790" />
              <mxPoint x="3360" y="3160" />
              <mxPoint x="3125" y="3160" />
            </Array>
            <mxPoint x="3190" y="2790" as="sourcePoint" />
          </mxGeometry>
        </mxCell>
        <mxCell id="LSEXf3g2ld3hCHJIZ-9w-139" style="edgeStyle=orthogonalEdgeStyle;rounded=0;orthogonalLoop=1;jettySize=auto;html=1;exitX=1;exitY=0.5;exitDx=0;exitDy=0;entryX=0;entryY=0.5;entryDx=0;entryDy=0;endArrow=none;endFill=0;" parent="1" edge="1">
          <mxGeometry relative="1" as="geometry">
            <Array as="points">
              <mxPoint x="3210" y="2960" />
              <mxPoint x="3210" y="3140" />
              <mxPoint x="2950" y="3140" />
              <mxPoint x="2950" y="2790" />
            </Array>
            <mxPoint x="3070" y="2790" as="targetPoint" />
          </mxGeometry>
        </mxCell>
        <mxCell id="LSEXf3g2ld3hCHJIZ-9w-140" style="edgeStyle=orthogonalEdgeStyle;rounded=0;orthogonalLoop=1;jettySize=auto;html=1;exitX=0.5;exitY=1;exitDx=0;exitDy=0;entryX=0;entryY=0.5;entryDx=0;entryDy=0;endArrow=none;endFill=0;" parent="1" edge="1">
          <mxGeometry relative="1" as="geometry">
            <Array as="points">
              <mxPoint x="3128" y="3140" />
              <mxPoint x="2950" y="3140" />
              <mxPoint x="2950" y="2790" />
            </Array>
            <mxPoint x="3070" y="2790" as="targetPoint" />
          </mxGeometry>
        </mxCell>
        <mxCell id="LSEXf3g2ld3hCHJIZ-9w-141" style="edgeStyle=orthogonalEdgeStyle;rounded=0;orthogonalLoop=1;jettySize=auto;html=1;exitX=1;exitY=0.5;exitDx=0;exitDy=0;endArrow=none;endFill=0;" parent="1" edge="1">
          <mxGeometry relative="1" as="geometry">
            <Array as="points">
              <mxPoint x="3280" y="3220" />
              <mxPoint x="3280" y="3460" />
              <mxPoint x="3118" y="3460" />
            </Array>
            <mxPoint x="3187.5" y="3220" as="sourcePoint" />
          </mxGeometry>
        </mxCell>
        <mxCell id="LSEXf3g2ld3hCHJIZ-9w-142" style="edgeStyle=orthogonalEdgeStyle;rounded=0;orthogonalLoop=1;jettySize=auto;html=1;exitX=1;exitY=0.5;exitDx=0;exitDy=0;endArrow=none;endFill=0;" parent="1" edge="1">
          <mxGeometry relative="1" as="geometry">
            <Array as="points">
              <mxPoint x="3400" y="2260" />
              <mxPoint x="3400" y="2830" />
              <mxPoint x="3155" y="2830" />
            </Array>
            <mxPoint x="3220.62" y="2260" as="sourcePoint" />
          </mxGeometry>
        </mxCell>
        <mxCell id="LSEXf3g2ld3hCHJIZ-9w-143" style="edgeStyle=orthogonalEdgeStyle;rounded=0;orthogonalLoop=1;jettySize=auto;html=1;exitX=1;exitY=0.5;exitDx=0;exitDy=0;endArrow=none;endFill=0;" parent="1" edge="1">
          <mxGeometry relative="1" as="geometry">
            <Array as="points">
              <mxPoint x="3260" y="2210" />
              <mxPoint x="3260" y="2780" />
              <mxPoint x="3015" y="2780" />
            </Array>
            <mxPoint x="3080.62" y="2210" as="sourcePoint" />
          </mxGeometry>
        </mxCell>
        <mxCell id="LSEXf3g2ld3hCHJIZ-9w-144" style="edgeStyle=orthogonalEdgeStyle;rounded=0;orthogonalLoop=1;jettySize=auto;html=1;exitX=1;exitY=0.5;exitDx=0;exitDy=0;entryX=0;entryY=0.5;entryDx=0;entryDy=0;endArrow=none;endFill=0;" parent="1" edge="1">
          <mxGeometry relative="1" as="geometry">
            <Array as="points">
              <mxPoint x="3490" y="4495" />
              <mxPoint x="3490" y="4980" />
              <mxPoint x="3110" y="4980" />
              <mxPoint x="3110" y="4425" />
            </Array>
            <mxPoint x="3280" y="4425" as="targetPoint" />
          </mxGeometry>
        </mxCell>
        <mxCell id="LSEXf3g2ld3hCHJIZ-9w-145" style="edgeStyle=orthogonalEdgeStyle;rounded=0;orthogonalLoop=1;jettySize=auto;html=1;exitX=1;exitY=0.5;exitDx=0;exitDy=0;endArrow=none;endFill=0;" parent="1" edge="1">
          <mxGeometry relative="1" as="geometry">
            <Array as="points">
              <mxPoint x="4130" y="2770" />
              <mxPoint x="4130" y="2910" />
              <mxPoint x="4050" y="2910" />
            </Array>
            <mxPoint x="4110" y="2770" as="sourcePoint" />
          </mxGeometry>
        </mxCell>
        <mxCell id="LSEXf3g2ld3hCHJIZ-9w-146" style="edgeStyle=orthogonalEdgeStyle;rounded=0;orthogonalLoop=1;jettySize=auto;html=1;exitX=1;exitY=0.5;exitDx=0;exitDy=0;endArrow=none;endFill=0;" parent="1" edge="1">
          <mxGeometry relative="1" as="geometry">
            <Array as="points">
              <mxPoint x="4270" y="3310" />
              <mxPoint x="4270" y="3680" />
              <mxPoint x="4035" y="3680" />
            </Array>
            <mxPoint x="4100" y="3310" as="sourcePoint" />
          </mxGeometry>
        </mxCell>
        <mxCell id="LSEXf3g2ld3hCHJIZ-9w-147" style="edgeStyle=orthogonalEdgeStyle;rounded=0;orthogonalLoop=1;jettySize=auto;html=1;exitX=1;exitY=0.5;exitDx=0;exitDy=0;entryX=0;entryY=0.5;entryDx=0;entryDy=0;endArrow=none;endFill=0;" parent="1" edge="1">
          <mxGeometry relative="1" as="geometry">
            <Array as="points">
              <mxPoint x="4120" y="3480" />
              <mxPoint x="4120" y="3660" />
              <mxPoint x="3860" y="3660" />
              <mxPoint x="3860" y="3310" />
            </Array>
            <mxPoint x="3980" y="3310" as="targetPoint" />
          </mxGeometry>
        </mxCell>
        <mxCell id="LSEXf3g2ld3hCHJIZ-9w-148" style="edgeStyle=orthogonalEdgeStyle;rounded=0;orthogonalLoop=1;jettySize=auto;html=1;exitX=0.5;exitY=1;exitDx=0;exitDy=0;entryX=0;entryY=0.5;entryDx=0;entryDy=0;endArrow=none;endFill=0;" parent="1" edge="1">
          <mxGeometry relative="1" as="geometry">
            <Array as="points">
              <mxPoint x="4038" y="3660" />
              <mxPoint x="3860" y="3660" />
              <mxPoint x="3860" y="3310" />
            </Array>
            <mxPoint x="3980" y="3310" as="targetPoint" />
          </mxGeometry>
        </mxCell>
        <mxCell id="LSEXf3g2ld3hCHJIZ-9w-149" style="edgeStyle=orthogonalEdgeStyle;rounded=0;orthogonalLoop=1;jettySize=auto;html=1;exitX=1;exitY=0.5;exitDx=0;exitDy=0;endArrow=none;endFill=0;" parent="1" edge="1">
          <mxGeometry relative="1" as="geometry">
            <Array as="points">
              <mxPoint x="4190" y="3740" />
              <mxPoint x="4190" y="3980" />
              <mxPoint x="4028" y="3980" />
            </Array>
            <mxPoint x="4097.5" y="3740" as="sourcePoint" />
          </mxGeometry>
        </mxCell>
        <mxCell id="LSEXf3g2ld3hCHJIZ-9w-150" style="edgeStyle=orthogonalEdgeStyle;rounded=0;orthogonalLoop=1;jettySize=auto;html=1;exitX=1;exitY=0.5;exitDx=0;exitDy=0;endArrow=none;endFill=0;" parent="1" edge="1">
          <mxGeometry relative="1" as="geometry">
            <Array as="points">
              <mxPoint x="3130" y="4570" />
              <mxPoint x="3130" y="5140" />
              <mxPoint x="2885" y="5140" />
            </Array>
            <mxPoint x="2950.62" y="4570" as="sourcePoint" />
          </mxGeometry>
        </mxCell>
        <mxCell id="LSEXf3g2ld3hCHJIZ-9w-151" style="edgeStyle=orthogonalEdgeStyle;rounded=0;orthogonalLoop=1;jettySize=auto;html=1;exitX=1;exitY=0.5;exitDx=0;exitDy=0;endArrow=none;endFill=0;" parent="1" edge="1">
          <mxGeometry relative="1" as="geometry">
            <Array as="points">
              <mxPoint x="3203" y="5240" />
              <mxPoint x="3203" y="5810" />
              <mxPoint x="2958" y="5810" />
            </Array>
            <mxPoint x="3023.62" y="5240" as="sourcePoint" />
          </mxGeometry>
        </mxCell>
        <mxCell id="LSEXf3g2ld3hCHJIZ-9w-152" style="edgeStyle=orthogonalEdgeStyle;rounded=0;orthogonalLoop=1;jettySize=auto;html=1;exitX=1;exitY=0.5;exitDx=0;exitDy=0;endArrow=none;endFill=0;" parent="1" edge="1">
          <mxGeometry relative="1" as="geometry">
            <Array as="points">
              <mxPoint x="3030" y="4810" />
              <mxPoint x="3030" y="4950" />
              <mxPoint x="2950" y="4950" />
            </Array>
            <mxPoint x="3010" y="4810" as="sourcePoint" />
          </mxGeometry>
        </mxCell>
        <mxCell id="LSEXf3g2ld3hCHJIZ-9w-153" style="edgeStyle=orthogonalEdgeStyle;rounded=0;orthogonalLoop=1;jettySize=auto;html=1;exitX=1;exitY=0.5;exitDx=0;exitDy=0;endArrow=none;endFill=0;" parent="1" edge="1">
          <mxGeometry relative="1" as="geometry">
            <Array as="points">
              <mxPoint x="3170" y="5350" />
              <mxPoint x="3170" y="5720" />
              <mxPoint x="2935" y="5720" />
            </Array>
            <mxPoint x="3000" y="5350" as="sourcePoint" />
          </mxGeometry>
        </mxCell>
        <mxCell id="LSEXf3g2ld3hCHJIZ-9w-154" style="edgeStyle=orthogonalEdgeStyle;rounded=0;orthogonalLoop=1;jettySize=auto;html=1;exitX=1;exitY=0.5;exitDx=0;exitDy=0;entryX=0;entryY=0.5;entryDx=0;entryDy=0;endArrow=none;endFill=0;" parent="1" edge="1">
          <mxGeometry relative="1" as="geometry">
            <Array as="points">
              <mxPoint x="3020" y="5520" />
              <mxPoint x="3020" y="5700" />
              <mxPoint x="2760" y="5700" />
              <mxPoint x="2760" y="5350" />
            </Array>
            <mxPoint x="2880" y="5350" as="targetPoint" />
          </mxGeometry>
        </mxCell>
        <mxCell id="LSEXf3g2ld3hCHJIZ-9w-155" style="edgeStyle=orthogonalEdgeStyle;rounded=0;orthogonalLoop=1;jettySize=auto;html=1;exitX=0.5;exitY=1;exitDx=0;exitDy=0;entryX=0;entryY=0.5;entryDx=0;entryDy=0;endArrow=none;endFill=0;" parent="1" edge="1">
          <mxGeometry relative="1" as="geometry">
            <Array as="points">
              <mxPoint x="2938" y="5700" />
              <mxPoint x="2760" y="5700" />
              <mxPoint x="2760" y="5350" />
            </Array>
            <mxPoint x="2880" y="5350" as="targetPoint" />
          </mxGeometry>
        </mxCell>
        <mxCell id="LSEXf3g2ld3hCHJIZ-9w-156" style="edgeStyle=orthogonalEdgeStyle;rounded=0;orthogonalLoop=1;jettySize=auto;html=1;exitX=1;exitY=0.5;exitDx=0;exitDy=0;endArrow=none;endFill=0;" parent="1" edge="1">
          <mxGeometry relative="1" as="geometry">
            <Array as="points">
              <mxPoint x="3090" y="5780" />
              <mxPoint x="3090" y="6020" />
              <mxPoint x="2928" y="6020" />
            </Array>
            <mxPoint x="2997.5" y="5780" as="sourcePoint" />
          </mxGeometry>
        </mxCell>
        <mxCell id="LSEXf3g2ld3hCHJIZ-9w-157" style="edgeStyle=orthogonalEdgeStyle;rounded=0;orthogonalLoop=1;jettySize=auto;html=1;exitX=1;exitY=0.5;exitDx=0;exitDy=0;endArrow=none;endFill=0;" parent="1" edge="1">
          <mxGeometry relative="1" as="geometry">
            <Array as="points">
              <mxPoint x="3113" y="7000" />
              <mxPoint x="3113" y="7570" />
              <mxPoint x="2868" y="7570" />
            </Array>
            <mxPoint x="2933.62" y="7000" as="sourcePoint" />
          </mxGeometry>
        </mxCell>
        <mxCell id="LSEXf3g2ld3hCHJIZ-9w-158" style="edgeStyle=orthogonalEdgeStyle;rounded=0;orthogonalLoop=1;jettySize=auto;html=1;exitX=1;exitY=0.5;exitDx=0;exitDy=0;endArrow=none;endFill=0;" parent="1" edge="1">
          <mxGeometry relative="1" as="geometry">
            <Array as="points">
              <mxPoint x="2940" y="6570" />
              <mxPoint x="2940" y="6710" />
              <mxPoint x="2860" y="6710" />
            </Array>
            <mxPoint x="2920" y="6570" as="sourcePoint" />
          </mxGeometry>
        </mxCell>
        <mxCell id="LSEXf3g2ld3hCHJIZ-9w-159" style="edgeStyle=orthogonalEdgeStyle;rounded=0;orthogonalLoop=1;jettySize=auto;html=1;exitX=1;exitY=0.5;exitDx=0;exitDy=0;endArrow=none;endFill=0;" parent="1" edge="1">
          <mxGeometry relative="1" as="geometry">
            <Array as="points">
              <mxPoint x="3080" y="7110" />
              <mxPoint x="3080" y="7480" />
              <mxPoint x="2845" y="7480" />
            </Array>
            <mxPoint x="2910" y="7110" as="sourcePoint" />
          </mxGeometry>
        </mxCell>
        <mxCell id="LSEXf3g2ld3hCHJIZ-9w-160" style="edgeStyle=orthogonalEdgeStyle;rounded=0;orthogonalLoop=1;jettySize=auto;html=1;exitX=1;exitY=0.5;exitDx=0;exitDy=0;entryX=0;entryY=0.5;entryDx=0;entryDy=0;endArrow=none;endFill=0;" parent="1" edge="1">
          <mxGeometry relative="1" as="geometry">
            <Array as="points">
              <mxPoint x="2930" y="7280" />
              <mxPoint x="2930" y="7460" />
              <mxPoint x="2670" y="7460" />
              <mxPoint x="2670" y="7110" />
            </Array>
            <mxPoint x="2790" y="7110" as="targetPoint" />
          </mxGeometry>
        </mxCell>
        <mxCell id="LSEXf3g2ld3hCHJIZ-9w-161" style="edgeStyle=orthogonalEdgeStyle;rounded=0;orthogonalLoop=1;jettySize=auto;html=1;exitX=0.5;exitY=1;exitDx=0;exitDy=0;entryX=0;entryY=0.5;entryDx=0;entryDy=0;endArrow=none;endFill=0;" parent="1" edge="1">
          <mxGeometry relative="1" as="geometry">
            <Array as="points">
              <mxPoint x="2848" y="7460" />
              <mxPoint x="2670" y="7460" />
              <mxPoint x="2670" y="7110" />
            </Array>
            <mxPoint x="2790" y="7110" as="targetPoint" />
          </mxGeometry>
        </mxCell>
        <mxCell id="LSEXf3g2ld3hCHJIZ-9w-162" style="edgeStyle=orthogonalEdgeStyle;rounded=0;orthogonalLoop=1;jettySize=auto;html=1;exitX=1;exitY=0.5;exitDx=0;exitDy=0;endArrow=none;endFill=0;" parent="1" edge="1">
          <mxGeometry relative="1" as="geometry">
            <Array as="points">
              <mxPoint x="3000" y="7540" />
              <mxPoint x="3000" y="7780" />
              <mxPoint x="2838" y="7780" />
            </Array>
            <mxPoint x="2907.5" y="7540" as="sourcePoint" />
          </mxGeometry>
        </mxCell>
        <mxCell id="LSEXf3g2ld3hCHJIZ-9w-163" style="edgeStyle=orthogonalEdgeStyle;rounded=0;orthogonalLoop=1;jettySize=auto;html=1;exitX=1;exitY=0.5;exitDx=0;exitDy=0;endArrow=none;endFill=0;" parent="1" edge="1">
          <mxGeometry relative="1" as="geometry">
            <Array as="points">
              <mxPoint x="2943" y="8850" />
              <mxPoint x="2943" y="9420" />
              <mxPoint x="2698" y="9420" />
            </Array>
            <mxPoint x="2763.62" y="8850" as="sourcePoint" />
          </mxGeometry>
        </mxCell>
        <mxCell id="LSEXf3g2ld3hCHJIZ-9w-164" style="edgeStyle=orthogonalEdgeStyle;rounded=0;orthogonalLoop=1;jettySize=auto;html=1;exitX=1;exitY=0.5;exitDx=0;exitDy=0;endArrow=none;endFill=0;" parent="1" edge="1">
          <mxGeometry relative="1" as="geometry">
            <Array as="points">
              <mxPoint x="2770" y="8420" />
              <mxPoint x="2770" y="8560" />
              <mxPoint x="2690" y="8560" />
            </Array>
            <mxPoint x="2750" y="8420" as="sourcePoint" />
          </mxGeometry>
        </mxCell>
        <mxCell id="LSEXf3g2ld3hCHJIZ-9w-165" style="edgeStyle=orthogonalEdgeStyle;rounded=0;orthogonalLoop=1;jettySize=auto;html=1;exitX=1;exitY=0.5;exitDx=0;exitDy=0;endArrow=none;endFill=0;" parent="1" edge="1">
          <mxGeometry relative="1" as="geometry">
            <Array as="points">
              <mxPoint x="2910" y="8960" />
              <mxPoint x="2910" y="9330" />
              <mxPoint x="2675" y="9330" />
            </Array>
            <mxPoint x="2740" y="8960" as="sourcePoint" />
          </mxGeometry>
        </mxCell>
        <mxCell id="LSEXf3g2ld3hCHJIZ-9w-166" style="edgeStyle=orthogonalEdgeStyle;rounded=0;orthogonalLoop=1;jettySize=auto;html=1;exitX=1;exitY=0.5;exitDx=0;exitDy=0;entryX=0;entryY=0.5;entryDx=0;entryDy=0;endArrow=none;endFill=0;" parent="1" edge="1">
          <mxGeometry relative="1" as="geometry">
            <Array as="points">
              <mxPoint x="2760" y="9130" />
              <mxPoint x="2760" y="9310" />
              <mxPoint x="2500" y="9310" />
              <mxPoint x="2500" y="8960" />
            </Array>
            <mxPoint x="2620" y="8960" as="targetPoint" />
          </mxGeometry>
        </mxCell>
        <mxCell id="LSEXf3g2ld3hCHJIZ-9w-167" style="edgeStyle=orthogonalEdgeStyle;rounded=0;orthogonalLoop=1;jettySize=auto;html=1;exitX=0.5;exitY=1;exitDx=0;exitDy=0;entryX=0;entryY=0.5;entryDx=0;entryDy=0;endArrow=none;endFill=0;" parent="1" edge="1">
          <mxGeometry relative="1" as="geometry">
            <Array as="points">
              <mxPoint x="2678" y="9310" />
              <mxPoint x="2500" y="9310" />
              <mxPoint x="2500" y="8960" />
            </Array>
            <mxPoint x="2620" y="8960" as="targetPoint" />
          </mxGeometry>
        </mxCell>
        <mxCell id="LSEXf3g2ld3hCHJIZ-9w-168" style="edgeStyle=orthogonalEdgeStyle;rounded=0;orthogonalLoop=1;jettySize=auto;html=1;exitX=1;exitY=0.5;exitDx=0;exitDy=0;endArrow=none;endFill=0;" parent="1" edge="1">
          <mxGeometry relative="1" as="geometry">
            <Array as="points">
              <mxPoint x="2830" y="9390" />
              <mxPoint x="2830" y="9630" />
              <mxPoint x="2668" y="9630" />
            </Array>
            <mxPoint x="2737.5" y="9390" as="sourcePoint" />
          </mxGeometry>
        </mxCell>
        <mxCell id="LSEXf3g2ld3hCHJIZ-9w-169" style="edgeStyle=orthogonalEdgeStyle;rounded=0;orthogonalLoop=1;jettySize=auto;html=1;exitX=1;exitY=0.5;exitDx=0;exitDy=0;endArrow=none;endFill=0;" parent="1" edge="1">
          <mxGeometry relative="1" as="geometry">
            <Array as="points">
              <mxPoint x="3400.02" y="8900" />
              <mxPoint x="3400.02" y="9470" />
              <mxPoint x="3155.02" y="9470" />
            </Array>
            <mxPoint x="3220.64" y="8900" as="sourcePoint" />
          </mxGeometry>
        </mxCell>
        <mxCell id="LSEXf3g2ld3hCHJIZ-9w-170" style="edgeStyle=orthogonalEdgeStyle;rounded=0;orthogonalLoop=1;jettySize=auto;html=1;exitX=1;exitY=0.5;exitDx=0;exitDy=0;endArrow=none;endFill=0;" parent="1" edge="1">
          <mxGeometry relative="1" as="geometry">
            <Array as="points">
              <mxPoint x="3227.02" y="8470" />
              <mxPoint x="3227.02" y="8610" />
              <mxPoint x="3147.02" y="8610" />
            </Array>
            <mxPoint x="3207.02" y="8470" as="sourcePoint" />
          </mxGeometry>
        </mxCell>
        <mxCell id="LSEXf3g2ld3hCHJIZ-9w-171" style="edgeStyle=orthogonalEdgeStyle;rounded=0;orthogonalLoop=1;jettySize=auto;html=1;exitX=1;exitY=0.5;exitDx=0;exitDy=0;endArrow=none;endFill=0;" parent="1" edge="1">
          <mxGeometry relative="1" as="geometry">
            <Array as="points">
              <mxPoint x="3367.02" y="9010" />
              <mxPoint x="3367.02" y="9380" />
              <mxPoint x="3132.02" y="9380" />
            </Array>
            <mxPoint x="3197.02" y="9010" as="sourcePoint" />
          </mxGeometry>
        </mxCell>
        <mxCell id="LSEXf3g2ld3hCHJIZ-9w-172" style="edgeStyle=orthogonalEdgeStyle;rounded=0;orthogonalLoop=1;jettySize=auto;html=1;exitX=1;exitY=0.5;exitDx=0;exitDy=0;entryX=0;entryY=0.5;entryDx=0;entryDy=0;endArrow=none;endFill=0;" parent="1" edge="1">
          <mxGeometry relative="1" as="geometry">
            <Array as="points">
              <mxPoint x="3217.02" y="9180" />
              <mxPoint x="3217.02" y="9360" />
              <mxPoint x="2957.02" y="9360" />
              <mxPoint x="2957.02" y="9010" />
            </Array>
            <mxPoint x="3077.02" y="9010" as="targetPoint" />
          </mxGeometry>
        </mxCell>
        <mxCell id="LSEXf3g2ld3hCHJIZ-9w-173" style="edgeStyle=orthogonalEdgeStyle;rounded=0;orthogonalLoop=1;jettySize=auto;html=1;exitX=0.5;exitY=1;exitDx=0;exitDy=0;entryX=0;entryY=0.5;entryDx=0;entryDy=0;endArrow=none;endFill=0;" parent="1" edge="1">
          <mxGeometry relative="1" as="geometry">
            <Array as="points">
              <mxPoint x="3135.02" y="9360" />
              <mxPoint x="2957.02" y="9360" />
              <mxPoint x="2957.02" y="9010" />
            </Array>
            <mxPoint x="3077.02" y="9010" as="targetPoint" />
          </mxGeometry>
        </mxCell>
        <mxCell id="LSEXf3g2ld3hCHJIZ-9w-174" style="edgeStyle=orthogonalEdgeStyle;rounded=0;orthogonalLoop=1;jettySize=auto;html=1;exitX=1;exitY=0.5;exitDx=0;exitDy=0;endArrow=none;endFill=0;" parent="1" edge="1">
          <mxGeometry relative="1" as="geometry">
            <Array as="points">
              <mxPoint x="3287.02" y="9440" />
              <mxPoint x="3287.02" y="9680" />
              <mxPoint x="3125.02" y="9680" />
            </Array>
            <mxPoint x="3194.52" y="9440" as="sourcePoint" />
          </mxGeometry>
        </mxCell>
        <mxCell id="LSEXf3g2ld3hCHJIZ-9w-175" style="edgeStyle=orthogonalEdgeStyle;rounded=0;orthogonalLoop=1;jettySize=auto;html=1;exitX=0.5;exitY=1;exitDx=0;exitDy=0;entryX=0;entryY=0.5;entryDx=0;entryDy=0;" parent="1" edge="1">
          <mxGeometry relative="1" as="geometry">
            <Array as="points">
              <mxPoint x="2245" y="8090" />
              <mxPoint x="2160" y="8090" />
              <mxPoint x="2160" y="7960" />
            </Array>
            <mxPoint x="2180" y="7960" as="targetPoint" />
          </mxGeometry>
        </mxCell>
        <mxCell id="LSEXf3g2ld3hCHJIZ-9w-176" style="edgeStyle=orthogonalEdgeStyle;rounded=0;orthogonalLoop=1;jettySize=auto;html=1;exitX=1;exitY=0.5;exitDx=0;exitDy=0;endArrow=none;endFill=0;" parent="1" edge="1">
          <mxGeometry relative="1" as="geometry">
            <Array as="points">
              <mxPoint x="3960" y="7800" />
              <mxPoint x="3960" y="7940" />
              <mxPoint x="3880" y="7940" />
            </Array>
            <mxPoint x="3940" y="7800" as="sourcePoint" />
          </mxGeometry>
        </mxCell>
        <mxCell id="LSEXf3g2ld3hCHJIZ-9w-177" style="edgeStyle=orthogonalEdgeStyle;rounded=0;orthogonalLoop=1;jettySize=auto;html=1;exitX=1;exitY=0.5;exitDx=0;exitDy=0;endArrow=none;endFill=0;" parent="1" edge="1">
          <mxGeometry relative="1" as="geometry">
            <Array as="points">
              <mxPoint x="4100" y="8340" />
              <mxPoint x="4100" y="8710" />
              <mxPoint x="3865" y="8710" />
            </Array>
            <mxPoint x="3930" y="8340" as="sourcePoint" />
          </mxGeometry>
        </mxCell>
        <mxCell id="LSEXf3g2ld3hCHJIZ-9w-178" style="edgeStyle=orthogonalEdgeStyle;rounded=0;orthogonalLoop=1;jettySize=auto;html=1;exitX=1;exitY=0.5;exitDx=0;exitDy=0;entryX=0;entryY=0.5;entryDx=0;entryDy=0;endArrow=none;endFill=0;" parent="1" edge="1">
          <mxGeometry relative="1" as="geometry">
            <Array as="points">
              <mxPoint x="3950" y="8510" />
              <mxPoint x="3950" y="8690" />
              <mxPoint x="3690" y="8690" />
              <mxPoint x="3690" y="8340" />
            </Array>
            <mxPoint x="3810" y="8340" as="targetPoint" />
          </mxGeometry>
        </mxCell>
        <mxCell id="LSEXf3g2ld3hCHJIZ-9w-179" style="edgeStyle=orthogonalEdgeStyle;rounded=0;orthogonalLoop=1;jettySize=auto;html=1;exitX=0.5;exitY=1;exitDx=0;exitDy=0;entryX=0;entryY=0.5;entryDx=0;entryDy=0;endArrow=none;endFill=0;" parent="1" edge="1">
          <mxGeometry relative="1" as="geometry">
            <Array as="points">
              <mxPoint x="3868" y="8690" />
              <mxPoint x="3690" y="8690" />
              <mxPoint x="3690" y="8340" />
            </Array>
            <mxPoint x="3810" y="8340" as="targetPoint" />
          </mxGeometry>
        </mxCell>
        <mxCell id="LSEXf3g2ld3hCHJIZ-9w-180" style="edgeStyle=orthogonalEdgeStyle;rounded=0;orthogonalLoop=1;jettySize=auto;html=1;exitX=1;exitY=0.5;exitDx=0;exitDy=0;endArrow=none;endFill=0;" parent="1" edge="1">
          <mxGeometry relative="1" as="geometry">
            <Array as="points">
              <mxPoint x="4020" y="8770" />
              <mxPoint x="4020" y="9010" />
              <mxPoint x="3858" y="9010" />
            </Array>
            <mxPoint x="3927.5" y="8770" as="sourcePoint" />
          </mxGeometry>
        </mxCell>
        <mxCell id="LSEXf3g2ld3hCHJIZ-9w-181" style="edgeStyle=orthogonalEdgeStyle;rounded=0;orthogonalLoop=1;jettySize=auto;html=1;exitX=1;exitY=0.5;exitDx=0;exitDy=0;endArrow=none;endFill=0;" parent="1" edge="1">
          <mxGeometry relative="1" as="geometry">
            <Array as="points">
              <mxPoint x="2980.02" y="8294" />
              <mxPoint x="2980.02" y="8434" />
              <mxPoint x="2900.02" y="8434" />
            </Array>
            <mxPoint x="2960.02" y="8294" as="sourcePoint" />
          </mxGeometry>
        </mxCell>
        <mxCell id="LSEXf3g2ld3hCHJIZ-9w-182" style="edgeStyle=orthogonalEdgeStyle;rounded=0;orthogonalLoop=1;jettySize=auto;html=1;exitX=1;exitY=0.5;exitDx=0;exitDy=0;endArrow=none;endFill=0;" parent="1" edge="1">
          <mxGeometry relative="1" as="geometry">
            <Array as="points">
              <mxPoint x="3120.02" y="8834" />
              <mxPoint x="3120.02" y="9204" />
              <mxPoint x="2885.02" y="9204" />
            </Array>
            <mxPoint x="2950.02" y="8834" as="sourcePoint" />
          </mxGeometry>
        </mxCell>
        <mxCell id="LSEXf3g2ld3hCHJIZ-9w-183" style="edgeStyle=orthogonalEdgeStyle;rounded=0;orthogonalLoop=1;jettySize=auto;html=1;exitX=1;exitY=0.5;exitDx=0;exitDy=0;entryX=0;entryY=0.5;entryDx=0;entryDy=0;endArrow=none;endFill=0;" parent="1" edge="1">
          <mxGeometry relative="1" as="geometry">
            <Array as="points">
              <mxPoint x="2970.02" y="9004" />
              <mxPoint x="2970.02" y="9184" />
              <mxPoint x="2710.02" y="9184" />
              <mxPoint x="2710.02" y="8834" />
            </Array>
            <mxPoint x="2830.02" y="8834" as="targetPoint" />
          </mxGeometry>
        </mxCell>
        <mxCell id="LSEXf3g2ld3hCHJIZ-9w-184" style="edgeStyle=orthogonalEdgeStyle;rounded=0;orthogonalLoop=1;jettySize=auto;html=1;exitX=0.5;exitY=1;exitDx=0;exitDy=0;entryX=0;entryY=0.5;entryDx=0;entryDy=0;endArrow=none;endFill=0;" parent="1" edge="1">
          <mxGeometry relative="1" as="geometry">
            <Array as="points">
              <mxPoint x="2888.02" y="9184" />
              <mxPoint x="2710.02" y="9184" />
              <mxPoint x="2710.02" y="8834" />
            </Array>
            <mxPoint x="2830.02" y="8834" as="targetPoint" />
          </mxGeometry>
        </mxCell>
        <mxCell id="LSEXf3g2ld3hCHJIZ-9w-185" style="edgeStyle=orthogonalEdgeStyle;rounded=0;orthogonalLoop=1;jettySize=auto;html=1;exitX=1;exitY=0.5;exitDx=0;exitDy=0;endArrow=none;endFill=0;" parent="1" edge="1">
          <mxGeometry relative="1" as="geometry">
            <Array as="points">
              <mxPoint x="3040.02" y="9264" />
              <mxPoint x="3040.02" y="9504" />
              <mxPoint x="2878.02" y="9504" />
            </Array>
            <mxPoint x="2947.52" y="9264" as="sourcePoint" />
          </mxGeometry>
        </mxCell>
        <mxCell id="LSEXf3g2ld3hCHJIZ-9w-186" style="edgeStyle=orthogonalEdgeStyle;rounded=0;orthogonalLoop=1;jettySize=auto;html=1;exitX=1;exitY=0.5;exitDx=0;exitDy=0;endArrow=none;endFill=0;" parent="1" edge="1">
          <mxGeometry relative="1" as="geometry">
            <Array as="points">
              <mxPoint x="3140" y="5100" />
              <mxPoint x="3140" y="5670" />
              <mxPoint x="2895" y="5670" />
            </Array>
            <mxPoint x="2960.62" y="5100" as="sourcePoint" />
          </mxGeometry>
        </mxCell>
        <mxCell id="LSEXf3g2ld3hCHJIZ-9w-187" style="edgeStyle=orthogonalEdgeStyle;rounded=0;orthogonalLoop=1;jettySize=auto;html=1;exitX=1;exitY=0.5;exitDx=0;exitDy=0;endArrow=none;endFill=0;" parent="1" edge="1">
          <mxGeometry relative="1" as="geometry">
            <Array as="points">
              <mxPoint x="3553" y="8340" />
              <mxPoint x="3553" y="8910" />
              <mxPoint x="3308" y="8910" />
            </Array>
            <mxPoint x="3373.62" y="8340" as="sourcePoint" />
          </mxGeometry>
        </mxCell>
        <mxCell id="LSEXf3g2ld3hCHJIZ-9w-188" style="edgeStyle=orthogonalEdgeStyle;rounded=0;orthogonalLoop=1;jettySize=auto;html=1;exitX=1;exitY=0.5;exitDx=0;exitDy=0;endArrow=none;endFill=0;" parent="1" edge="1">
          <mxGeometry relative="1" as="geometry">
            <Array as="points">
              <mxPoint x="3380" y="7910" />
              <mxPoint x="3380" y="8050" />
              <mxPoint x="3300" y="8050" />
            </Array>
            <mxPoint x="3360" y="7910" as="sourcePoint" />
          </mxGeometry>
        </mxCell>
        <mxCell id="LSEXf3g2ld3hCHJIZ-9w-189" style="edgeStyle=orthogonalEdgeStyle;rounded=0;orthogonalLoop=1;jettySize=auto;html=1;exitX=1;exitY=0.5;exitDx=0;exitDy=0;endArrow=none;endFill=0;" parent="1" edge="1">
          <mxGeometry relative="1" as="geometry">
            <Array as="points">
              <mxPoint x="3520" y="8450" />
              <mxPoint x="3520" y="8820" />
              <mxPoint x="3285" y="8820" />
            </Array>
            <mxPoint x="3350" y="8450" as="sourcePoint" />
          </mxGeometry>
        </mxCell>
        <mxCell id="LSEXf3g2ld3hCHJIZ-9w-190" style="edgeStyle=orthogonalEdgeStyle;rounded=0;orthogonalLoop=1;jettySize=auto;html=1;exitX=1;exitY=0.5;exitDx=0;exitDy=0;entryX=0;entryY=0.5;entryDx=0;entryDy=0;endArrow=none;endFill=0;" parent="1" edge="1">
          <mxGeometry relative="1" as="geometry">
            <Array as="points">
              <mxPoint x="3370" y="8620" />
              <mxPoint x="3370" y="8800" />
              <mxPoint x="3110" y="8800" />
              <mxPoint x="3110" y="8450" />
            </Array>
            <mxPoint x="3230" y="8450" as="targetPoint" />
          </mxGeometry>
        </mxCell>
        <mxCell id="LSEXf3g2ld3hCHJIZ-9w-191" style="edgeStyle=orthogonalEdgeStyle;rounded=0;orthogonalLoop=1;jettySize=auto;html=1;exitX=0.5;exitY=1;exitDx=0;exitDy=0;entryX=0;entryY=0.5;entryDx=0;entryDy=0;endArrow=none;endFill=0;" parent="1" edge="1">
          <mxGeometry relative="1" as="geometry">
            <Array as="points">
              <mxPoint x="3288" y="8800" />
              <mxPoint x="3110" y="8800" />
              <mxPoint x="3110" y="8450" />
            </Array>
            <mxPoint x="3230" y="8450" as="targetPoint" />
          </mxGeometry>
        </mxCell>
        <mxCell id="LSEXf3g2ld3hCHJIZ-9w-192" style="edgeStyle=orthogonalEdgeStyle;rounded=0;orthogonalLoop=1;jettySize=auto;html=1;exitX=1;exitY=0.5;exitDx=0;exitDy=0;endArrow=none;endFill=0;" parent="1" edge="1">
          <mxGeometry relative="1" as="geometry">
            <Array as="points">
              <mxPoint x="3440" y="8880" />
              <mxPoint x="3440" y="9120" />
              <mxPoint x="3278" y="9120" />
            </Array>
            <mxPoint x="3347.5" y="8880" as="sourcePoint" />
          </mxGeometry>
        </mxCell>
        <mxCell id="LSEXf3g2ld3hCHJIZ-9w-193" style="edgeStyle=orthogonalEdgeStyle;rounded=0;orthogonalLoop=1;jettySize=auto;html=1;exitX=1;exitY=0.5;exitDx=0;exitDy=0;endArrow=none;endFill=0;" parent="1" edge="1">
          <mxGeometry relative="1" as="geometry">
            <Array as="points">
              <mxPoint x="3963" y="3380" />
              <mxPoint x="3963" y="3950" />
              <mxPoint x="3718" y="3950" />
            </Array>
            <mxPoint x="3783.62" y="3380" as="sourcePoint" />
          </mxGeometry>
        </mxCell>
        <mxCell id="LSEXf3g2ld3hCHJIZ-9w-194" style="edgeStyle=orthogonalEdgeStyle;rounded=0;orthogonalLoop=1;jettySize=auto;html=1;exitX=1;exitY=0.5;exitDx=0;exitDy=0;endArrow=none;endFill=0;" parent="1" edge="1">
          <mxGeometry relative="1" as="geometry">
            <Array as="points">
              <mxPoint x="3790" y="2950" />
              <mxPoint x="3790" y="3090" />
              <mxPoint x="3710" y="3090" />
            </Array>
            <mxPoint x="3770" y="2950" as="sourcePoint" />
          </mxGeometry>
        </mxCell>
        <mxCell id="LSEXf3g2ld3hCHJIZ-9w-195" style="edgeStyle=orthogonalEdgeStyle;rounded=0;orthogonalLoop=1;jettySize=auto;html=1;exitX=1;exitY=0.5;exitDx=0;exitDy=0;endArrow=none;endFill=0;" parent="1" edge="1">
          <mxGeometry relative="1" as="geometry">
            <Array as="points">
              <mxPoint x="3930" y="3490" />
              <mxPoint x="3930" y="3860" />
              <mxPoint x="3695" y="3860" />
            </Array>
            <mxPoint x="3760" y="3490" as="sourcePoint" />
          </mxGeometry>
        </mxCell>
        <mxCell id="LSEXf3g2ld3hCHJIZ-9w-196" style="edgeStyle=orthogonalEdgeStyle;rounded=0;orthogonalLoop=1;jettySize=auto;html=1;exitX=1;exitY=0.5;exitDx=0;exitDy=0;entryX=0;entryY=0.5;entryDx=0;entryDy=0;endArrow=none;endFill=0;" parent="1" edge="1">
          <mxGeometry relative="1" as="geometry">
            <Array as="points">
              <mxPoint x="3780" y="3660" />
              <mxPoint x="3780" y="3840" />
              <mxPoint x="3520" y="3840" />
              <mxPoint x="3520" y="3490" />
            </Array>
            <mxPoint x="3640" y="3490" as="targetPoint" />
          </mxGeometry>
        </mxCell>
        <mxCell id="LSEXf3g2ld3hCHJIZ-9w-197" style="edgeStyle=orthogonalEdgeStyle;rounded=0;orthogonalLoop=1;jettySize=auto;html=1;exitX=0.5;exitY=1;exitDx=0;exitDy=0;entryX=0;entryY=0.5;entryDx=0;entryDy=0;endArrow=none;endFill=0;" parent="1" edge="1">
          <mxGeometry relative="1" as="geometry">
            <Array as="points">
              <mxPoint x="3698" y="3840" />
              <mxPoint x="3520" y="3840" />
              <mxPoint x="3520" y="3490" />
            </Array>
            <mxPoint x="3640" y="3490" as="targetPoint" />
          </mxGeometry>
        </mxCell>
        <mxCell id="LSEXf3g2ld3hCHJIZ-9w-198" style="edgeStyle=orthogonalEdgeStyle;rounded=0;orthogonalLoop=1;jettySize=auto;html=1;exitX=1;exitY=0.5;exitDx=0;exitDy=0;endArrow=none;endFill=0;" parent="1" edge="1">
          <mxGeometry relative="1" as="geometry">
            <Array as="points">
              <mxPoint x="3850" y="3920" />
              <mxPoint x="3850" y="4160" />
              <mxPoint x="3688" y="4160" />
            </Array>
            <mxPoint x="3757.5" y="3920" as="sourcePoint" />
          </mxGeometry>
        </mxCell>
        <mxCell id="LSEXf3g2ld3hCHJIZ-9w-199" style="edgeStyle=orthogonalEdgeStyle;rounded=0;orthogonalLoop=1;jettySize=auto;html=1;exitX=1;exitY=0.5;exitDx=0;exitDy=0;endArrow=none;endFill=0;" parent="1" edge="1">
          <mxGeometry relative="1" as="geometry">
            <Array as="points">
              <mxPoint x="4073" y="3590" />
              <mxPoint x="4073" y="4160" />
              <mxPoint x="3828" y="4160" />
            </Array>
            <mxPoint x="3893.62" y="3590" as="sourcePoint" />
          </mxGeometry>
        </mxCell>
        <mxCell id="LSEXf3g2ld3hCHJIZ-9w-200" style="edgeStyle=orthogonalEdgeStyle;rounded=0;orthogonalLoop=1;jettySize=auto;html=1;exitX=1;exitY=0.5;exitDx=0;exitDy=0;endArrow=none;endFill=0;" parent="1" edge="1">
          <mxGeometry relative="1" as="geometry">
            <Array as="points">
              <mxPoint x="3900" y="3160" />
              <mxPoint x="3900" y="3300" />
              <mxPoint x="3820" y="3300" />
            </Array>
            <mxPoint x="3880" y="3160" as="sourcePoint" />
          </mxGeometry>
        </mxCell>
        <mxCell id="LSEXf3g2ld3hCHJIZ-9w-201" style="edgeStyle=orthogonalEdgeStyle;rounded=0;orthogonalLoop=1;jettySize=auto;html=1;exitX=1;exitY=0.5;exitDx=0;exitDy=0;endArrow=none;endFill=0;" parent="1" edge="1">
          <mxGeometry relative="1" as="geometry">
            <Array as="points">
              <mxPoint x="4040" y="3700" />
              <mxPoint x="4040" y="4070" />
              <mxPoint x="3805" y="4070" />
            </Array>
            <mxPoint x="3870" y="3700" as="sourcePoint" />
          </mxGeometry>
        </mxCell>
        <mxCell id="LSEXf3g2ld3hCHJIZ-9w-202" style="edgeStyle=orthogonalEdgeStyle;rounded=0;orthogonalLoop=1;jettySize=auto;html=1;exitX=1;exitY=0.5;exitDx=0;exitDy=0;entryX=0;entryY=0.5;entryDx=0;entryDy=0;endArrow=none;endFill=0;" parent="1" edge="1">
          <mxGeometry relative="1" as="geometry">
            <Array as="points">
              <mxPoint x="3890" y="3870" />
              <mxPoint x="3890" y="4050" />
              <mxPoint x="3630" y="4050" />
              <mxPoint x="3630" y="3700" />
            </Array>
            <mxPoint x="3750" y="3700" as="targetPoint" />
          </mxGeometry>
        </mxCell>
        <mxCell id="LSEXf3g2ld3hCHJIZ-9w-203" style="edgeStyle=orthogonalEdgeStyle;rounded=0;orthogonalLoop=1;jettySize=auto;html=1;exitX=0.5;exitY=1;exitDx=0;exitDy=0;entryX=0;entryY=0.5;entryDx=0;entryDy=0;endArrow=none;endFill=0;" parent="1" edge="1">
          <mxGeometry relative="1" as="geometry">
            <Array as="points">
              <mxPoint x="3808" y="4050" />
              <mxPoint x="3630" y="4050" />
              <mxPoint x="3630" y="3700" />
            </Array>
            <mxPoint x="3750" y="3700" as="targetPoint" />
          </mxGeometry>
        </mxCell>
        <mxCell id="LSEXf3g2ld3hCHJIZ-9w-204" style="edgeStyle=orthogonalEdgeStyle;rounded=0;orthogonalLoop=1;jettySize=auto;html=1;exitX=1;exitY=0.5;exitDx=0;exitDy=0;endArrow=none;endFill=0;" parent="1" edge="1">
          <mxGeometry relative="1" as="geometry">
            <Array as="points">
              <mxPoint x="3960" y="4130" />
              <mxPoint x="3960" y="4370" />
              <mxPoint x="3798" y="4370" />
            </Array>
            <mxPoint x="3867.5" y="4130" as="sourcePoint" />
          </mxGeometry>
        </mxCell>
        <mxCell id="LSEXf3g2ld3hCHJIZ-9w-205" style="edgeStyle=orthogonalEdgeStyle;rounded=0;orthogonalLoop=1;jettySize=auto;html=1;exitX=1;exitY=0.5;exitDx=0;exitDy=0;endArrow=none;endFill=0;" parent="1" edge="1">
          <mxGeometry relative="1" as="geometry">
            <Array as="points">
              <mxPoint x="4410" y="2610" />
              <mxPoint x="4410" y="2750" />
              <mxPoint x="4330" y="2750" />
            </Array>
            <mxPoint x="4390" y="2610" as="sourcePoint" />
          </mxGeometry>
        </mxCell>
        <mxCell id="LSEXf3g2ld3hCHJIZ-9w-206" style="edgeStyle=orthogonalEdgeStyle;rounded=0;orthogonalLoop=1;jettySize=auto;html=1;exitX=1;exitY=0.5;exitDx=0;exitDy=0;endArrow=none;endFill=0;" parent="1" edge="1">
          <mxGeometry relative="1" as="geometry">
            <Array as="points">
              <mxPoint x="4550" y="3150" />
              <mxPoint x="4550" y="3520" />
              <mxPoint x="4315" y="3520" />
            </Array>
            <mxPoint x="4380" y="3150" as="sourcePoint" />
          </mxGeometry>
        </mxCell>
        <mxCell id="LSEXf3g2ld3hCHJIZ-9w-207" style="edgeStyle=orthogonalEdgeStyle;rounded=0;orthogonalLoop=1;jettySize=auto;html=1;exitX=1;exitY=0.5;exitDx=0;exitDy=0;entryX=0;entryY=0.5;entryDx=0;entryDy=0;endArrow=none;endFill=0;" parent="1" edge="1">
          <mxGeometry relative="1" as="geometry">
            <Array as="points">
              <mxPoint x="4400" y="3320" />
              <mxPoint x="4400" y="3500" />
              <mxPoint x="4140" y="3500" />
              <mxPoint x="4140" y="3150" />
            </Array>
            <mxPoint x="4260" y="3150" as="targetPoint" />
          </mxGeometry>
        </mxCell>
        <mxCell id="LSEXf3g2ld3hCHJIZ-9w-208" style="edgeStyle=orthogonalEdgeStyle;rounded=0;orthogonalLoop=1;jettySize=auto;html=1;exitX=0.5;exitY=1;exitDx=0;exitDy=0;entryX=0;entryY=0.5;entryDx=0;entryDy=0;endArrow=none;endFill=0;" parent="1" edge="1">
          <mxGeometry relative="1" as="geometry">
            <Array as="points">
              <mxPoint x="4318" y="3500" />
              <mxPoint x="4140" y="3500" />
              <mxPoint x="4140" y="3150" />
            </Array>
            <mxPoint x="4260" y="3150" as="targetPoint" />
          </mxGeometry>
        </mxCell>
        <mxCell id="LSEXf3g2ld3hCHJIZ-9w-209" style="edgeStyle=orthogonalEdgeStyle;rounded=0;orthogonalLoop=1;jettySize=auto;html=1;exitX=1;exitY=0.5;exitDx=0;exitDy=0;endArrow=none;endFill=0;" parent="1" edge="1">
          <mxGeometry relative="1" as="geometry">
            <Array as="points">
              <mxPoint x="4470" y="3580" />
              <mxPoint x="4470" y="3820" />
              <mxPoint x="4308" y="3820" />
            </Array>
            <mxPoint x="4377.5" y="3580" as="sourcePoint" />
          </mxGeometry>
        </mxCell>
        <mxCell id="LSEXf3g2ld3hCHJIZ-9w-210" style="edgeStyle=orthogonalEdgeStyle;rounded=0;orthogonalLoop=1;jettySize=auto;html=1;exitX=1;exitY=0.5;exitDx=0;exitDy=0;endArrow=none;endFill=0;" parent="1" edge="1">
          <mxGeometry relative="1" as="geometry">
            <Array as="points">
              <mxPoint x="3650" y="3610" />
              <mxPoint x="3650" y="4180" />
              <mxPoint x="3405" y="4180" />
            </Array>
            <mxPoint x="3470.62" y="3610" as="sourcePoint" />
          </mxGeometry>
        </mxCell>
        <mxCell id="LSEXf3g2ld3hCHJIZ-9w-211" style="edgeStyle=orthogonalEdgeStyle;rounded=0;orthogonalLoop=1;jettySize=auto;html=1;exitX=1;exitY=0.5;exitDx=0;exitDy=0;endArrow=none;endFill=0;" parent="1" edge="1">
          <mxGeometry relative="1" as="geometry">
            <Array as="points">
              <mxPoint x="4023" y="5650" />
              <mxPoint x="4023" y="6220" />
              <mxPoint x="3778" y="6220" />
            </Array>
            <mxPoint x="3843.62" y="5650" as="sourcePoint" />
          </mxGeometry>
        </mxCell>
        <mxCell id="LSEXf3g2ld3hCHJIZ-9w-212" style="edgeStyle=orthogonalEdgeStyle;rounded=0;orthogonalLoop=1;jettySize=auto;html=1;exitX=1;exitY=0.5;exitDx=0;exitDy=0;endArrow=none;endFill=0;" parent="1" edge="1">
          <mxGeometry relative="1" as="geometry">
            <Array as="points">
              <mxPoint x="3850" y="5220" />
              <mxPoint x="3850" y="5360" />
              <mxPoint x="3770" y="5360" />
            </Array>
            <mxPoint x="3830" y="5220" as="sourcePoint" />
          </mxGeometry>
        </mxCell>
        <mxCell id="LSEXf3g2ld3hCHJIZ-9w-213" style="edgeStyle=orthogonalEdgeStyle;rounded=0;orthogonalLoop=1;jettySize=auto;html=1;exitX=1;exitY=0.5;exitDx=0;exitDy=0;endArrow=none;endFill=0;" parent="1" edge="1">
          <mxGeometry relative="1" as="geometry">
            <Array as="points">
              <mxPoint x="3990" y="5760" />
              <mxPoint x="3990" y="6130" />
              <mxPoint x="3755" y="6130" />
            </Array>
            <mxPoint x="3820" y="5760" as="sourcePoint" />
          </mxGeometry>
        </mxCell>
        <mxCell id="LSEXf3g2ld3hCHJIZ-9w-214" style="edgeStyle=orthogonalEdgeStyle;rounded=0;orthogonalLoop=1;jettySize=auto;html=1;exitX=1;exitY=0.5;exitDx=0;exitDy=0;entryX=0;entryY=0.5;entryDx=0;entryDy=0;endArrow=none;endFill=0;" parent="1" edge="1">
          <mxGeometry relative="1" as="geometry">
            <Array as="points">
              <mxPoint x="3840" y="5930" />
              <mxPoint x="3840" y="6110" />
              <mxPoint x="3580" y="6110" />
              <mxPoint x="3580" y="5760" />
            </Array>
            <mxPoint x="3700" y="5760" as="targetPoint" />
          </mxGeometry>
        </mxCell>
        <mxCell id="LSEXf3g2ld3hCHJIZ-9w-215" style="edgeStyle=orthogonalEdgeStyle;rounded=0;orthogonalLoop=1;jettySize=auto;html=1;exitX=0.5;exitY=1;exitDx=0;exitDy=0;entryX=0;entryY=0.5;entryDx=0;entryDy=0;endArrow=none;endFill=0;" parent="1" edge="1">
          <mxGeometry relative="1" as="geometry">
            <Array as="points">
              <mxPoint x="3758" y="6110" />
              <mxPoint x="3580" y="6110" />
              <mxPoint x="3580" y="5760" />
            </Array>
            <mxPoint x="3700" y="5760" as="targetPoint" />
          </mxGeometry>
        </mxCell>
        <mxCell id="LSEXf3g2ld3hCHJIZ-9w-216" style="edgeStyle=orthogonalEdgeStyle;rounded=0;orthogonalLoop=1;jettySize=auto;html=1;exitX=1;exitY=0.5;exitDx=0;exitDy=0;endArrow=none;endFill=0;" parent="1" edge="1">
          <mxGeometry relative="1" as="geometry">
            <Array as="points">
              <mxPoint x="3910" y="6190" />
              <mxPoint x="3910" y="6430" />
              <mxPoint x="3748" y="6430" />
            </Array>
            <mxPoint x="3817.5" y="6190" as="sourcePoint" />
          </mxGeometry>
        </mxCell>
        <mxCell id="LSEXf3g2ld3hCHJIZ-9w-217" style="edgeStyle=orthogonalEdgeStyle;rounded=0;orthogonalLoop=1;jettySize=auto;html=1;exitX=1;exitY=0.5;exitDx=0;exitDy=0;endArrow=none;endFill=0;" parent="1" edge="1">
          <mxGeometry relative="1" as="geometry">
            <Array as="points">
              <mxPoint x="3693" y="7590" />
              <mxPoint x="3693" y="8160" />
              <mxPoint x="3448" y="8160" />
            </Array>
            <mxPoint x="3513.62" y="7590" as="sourcePoint" />
          </mxGeometry>
        </mxCell>
        <mxCell id="LSEXf3g2ld3hCHJIZ-9w-218" style="edgeStyle=orthogonalEdgeStyle;rounded=0;orthogonalLoop=1;jettySize=auto;html=1;exitX=1;exitY=0.5;exitDx=0;exitDy=0;endArrow=none;endFill=0;" parent="1" edge="1">
          <mxGeometry relative="1" as="geometry">
            <Array as="points">
              <mxPoint x="3520" y="7160" />
              <mxPoint x="3520" y="7300" />
              <mxPoint x="3440" y="7300" />
            </Array>
            <mxPoint x="3500" y="7160" as="sourcePoint" />
          </mxGeometry>
        </mxCell>
        <mxCell id="LSEXf3g2ld3hCHJIZ-9w-219" style="edgeStyle=orthogonalEdgeStyle;rounded=0;orthogonalLoop=1;jettySize=auto;html=1;exitX=1;exitY=0.5;exitDx=0;exitDy=0;endArrow=none;endFill=0;" parent="1" edge="1">
          <mxGeometry relative="1" as="geometry">
            <Array as="points">
              <mxPoint x="3660" y="7700" />
              <mxPoint x="3660" y="8070" />
              <mxPoint x="3425" y="8070" />
            </Array>
            <mxPoint x="3490" y="7700" as="sourcePoint" />
          </mxGeometry>
        </mxCell>
        <mxCell id="LSEXf3g2ld3hCHJIZ-9w-220" style="edgeStyle=orthogonalEdgeStyle;rounded=0;orthogonalLoop=1;jettySize=auto;html=1;exitX=1;exitY=0.5;exitDx=0;exitDy=0;entryX=0;entryY=0.5;entryDx=0;entryDy=0;endArrow=none;endFill=0;" parent="1" edge="1">
          <mxGeometry relative="1" as="geometry">
            <Array as="points">
              <mxPoint x="3510" y="7870" />
              <mxPoint x="3510" y="8050" />
              <mxPoint x="3250" y="8050" />
              <mxPoint x="3250" y="7700" />
            </Array>
            <mxPoint x="3370" y="7700" as="targetPoint" />
          </mxGeometry>
        </mxCell>
        <mxCell id="LSEXf3g2ld3hCHJIZ-9w-221" style="edgeStyle=orthogonalEdgeStyle;rounded=0;orthogonalLoop=1;jettySize=auto;html=1;exitX=0.5;exitY=1;exitDx=0;exitDy=0;entryX=0;entryY=0.5;entryDx=0;entryDy=0;endArrow=none;endFill=0;" parent="1" edge="1">
          <mxGeometry relative="1" as="geometry">
            <Array as="points">
              <mxPoint x="3428" y="8050" />
              <mxPoint x="3250" y="8050" />
              <mxPoint x="3250" y="7700" />
            </Array>
            <mxPoint x="3370" y="7700" as="targetPoint" />
          </mxGeometry>
        </mxCell>
        <mxCell id="LSEXf3g2ld3hCHJIZ-9w-222" style="edgeStyle=orthogonalEdgeStyle;rounded=0;orthogonalLoop=1;jettySize=auto;html=1;exitX=1;exitY=0.5;exitDx=0;exitDy=0;endArrow=none;endFill=0;" parent="1" edge="1">
          <mxGeometry relative="1" as="geometry">
            <Array as="points">
              <mxPoint x="3580" y="8130" />
              <mxPoint x="3580" y="8370" />
              <mxPoint x="3418" y="8370" />
            </Array>
            <mxPoint x="3487.5" y="8130" as="sourcePoint" />
          </mxGeometry>
        </mxCell>
        <mxCell id="LSEXf3g2ld3hCHJIZ-9w-223" style="edgeStyle=orthogonalEdgeStyle;rounded=0;orthogonalLoop=1;jettySize=auto;html=1;exitX=1;exitY=0.5;exitDx=0;exitDy=0;entryX=0;entryY=0.5;entryDx=0;entryDy=0;endArrow=none;endFill=0;" parent="1" edge="1">
          <mxGeometry relative="1" as="geometry">
            <Array as="points">
              <mxPoint x="3810" y="11585" />
              <mxPoint x="3810" y="12070" />
              <mxPoint x="3430" y="12070" />
              <mxPoint x="3430" y="11515" />
            </Array>
            <mxPoint x="3600" y="11515" as="targetPoint" />
          </mxGeometry>
        </mxCell>
        <mxCell id="LSEXf3g2ld3hCHJIZ-9w-224" style="edgeStyle=orthogonalEdgeStyle;rounded=0;orthogonalLoop=1;jettySize=auto;html=1;exitX=1;exitY=0.5;exitDx=0;exitDy=0;endArrow=none;endFill=0;" parent="1" edge="1">
          <mxGeometry relative="1" as="geometry">
            <Array as="points">
              <mxPoint x="4450" y="9860" />
              <mxPoint x="4450" y="10000" />
              <mxPoint x="4370" y="10000" />
            </Array>
            <mxPoint x="4430" y="9860" as="sourcePoint" />
          </mxGeometry>
        </mxCell>
        <mxCell id="LSEXf3g2ld3hCHJIZ-9w-225" style="edgeStyle=orthogonalEdgeStyle;rounded=0;orthogonalLoop=1;jettySize=auto;html=1;exitX=1;exitY=0.5;exitDx=0;exitDy=0;endArrow=none;endFill=0;" parent="1" edge="1">
          <mxGeometry relative="1" as="geometry">
            <Array as="points">
              <mxPoint x="4590" y="10400" />
              <mxPoint x="4590" y="10770" />
              <mxPoint x="4355" y="10770" />
            </Array>
            <mxPoint x="4420" y="10400" as="sourcePoint" />
          </mxGeometry>
        </mxCell>
        <mxCell id="LSEXf3g2ld3hCHJIZ-9w-226" style="edgeStyle=orthogonalEdgeStyle;rounded=0;orthogonalLoop=1;jettySize=auto;html=1;exitX=1;exitY=0.5;exitDx=0;exitDy=0;entryX=0;entryY=0.5;entryDx=0;entryDy=0;endArrow=none;endFill=0;" parent="1" edge="1">
          <mxGeometry relative="1" as="geometry">
            <Array as="points">
              <mxPoint x="4440" y="10570" />
              <mxPoint x="4440" y="10750" />
              <mxPoint x="4180" y="10750" />
              <mxPoint x="4180" y="10400" />
            </Array>
            <mxPoint x="4300" y="10400" as="targetPoint" />
          </mxGeometry>
        </mxCell>
        <mxCell id="LSEXf3g2ld3hCHJIZ-9w-227" style="edgeStyle=orthogonalEdgeStyle;rounded=0;orthogonalLoop=1;jettySize=auto;html=1;exitX=0.5;exitY=1;exitDx=0;exitDy=0;entryX=0;entryY=0.5;entryDx=0;entryDy=0;endArrow=none;endFill=0;" parent="1" edge="1">
          <mxGeometry relative="1" as="geometry">
            <Array as="points">
              <mxPoint x="4358" y="10750" />
              <mxPoint x="4180" y="10750" />
              <mxPoint x="4180" y="10400" />
            </Array>
            <mxPoint x="4300" y="10400" as="targetPoint" />
          </mxGeometry>
        </mxCell>
        <mxCell id="LSEXf3g2ld3hCHJIZ-9w-228" style="edgeStyle=orthogonalEdgeStyle;rounded=0;orthogonalLoop=1;jettySize=auto;html=1;exitX=1;exitY=0.5;exitDx=0;exitDy=0;endArrow=none;endFill=0;" parent="1" edge="1">
          <mxGeometry relative="1" as="geometry">
            <Array as="points">
              <mxPoint x="4510" y="10830" />
              <mxPoint x="4510" y="11070" />
              <mxPoint x="4348" y="11070" />
            </Array>
            <mxPoint x="4417.5" y="10830" as="sourcePoint" />
          </mxGeometry>
        </mxCell>
        <mxCell id="LSEXf3g2ld3hCHJIZ-9w-229" style="edgeStyle=orthogonalEdgeStyle;rounded=0;orthogonalLoop=1;jettySize=auto;html=1;exitX=1;exitY=0.5;exitDx=0;exitDy=0;entryX=0;entryY=0.5;entryDx=0;entryDy=0;endArrow=none;endFill=0;" parent="1" edge="1">
          <mxGeometry relative="1" as="geometry">
            <Array as="points">
              <mxPoint x="4110" y="5445" />
              <mxPoint x="4110" y="5930" />
              <mxPoint x="3730" y="5930" />
              <mxPoint x="3730" y="5375" />
            </Array>
            <mxPoint x="3900" y="5375" as="targetPoint" />
          </mxGeometry>
        </mxCell>
        <mxCell id="LSEXf3g2ld3hCHJIZ-9w-230" style="edgeStyle=orthogonalEdgeStyle;rounded=0;orthogonalLoop=1;jettySize=auto;html=1;exitX=1;exitY=0.5;exitDx=0;exitDy=0;entryX=0;entryY=0.5;entryDx=0;entryDy=0;endArrow=none;endFill=0;" parent="1" edge="1">
          <mxGeometry relative="1" as="geometry">
            <mxPoint x="3900" y="5445" as="targetPoint" />
            <Array as="points">
              <mxPoint x="4060" y="5515" />
              <mxPoint x="4060" y="5920" />
              <mxPoint x="3810" y="5920" />
              <mxPoint x="3810" y="5445" />
            </Array>
          </mxGeometry>
        </mxCell>
        <mxCell id="LSEXf3g2ld3hCHJIZ-9w-231" style="edgeStyle=orthogonalEdgeStyle;rounded=0;orthogonalLoop=1;jettySize=auto;html=1;exitX=1;exitY=0.5;exitDx=0;exitDy=0;" parent="1" edge="1">
          <mxGeometry relative="1" as="geometry">
            <Array as="points">
              <mxPoint x="4070" y="3400" />
              <mxPoint x="4070" y="3900" />
              <mxPoint x="3960" y="3900" />
            </Array>
            <mxPoint x="4025" y="3400" as="sourcePoint" />
          </mxGeometry>
        </mxCell>
        <mxCell id="LSEXf3g2ld3hCHJIZ-9w-232" style="edgeStyle=orthogonalEdgeStyle;rounded=0;orthogonalLoop=1;jettySize=auto;html=1;exitX=1;exitY=0.5;exitDx=0;exitDy=0;endArrow=none;endFill=0;" parent="1" edge="1">
          <mxGeometry relative="1" as="geometry">
            <Array as="points">
              <mxPoint x="4750" y="3720" />
              <mxPoint x="4750" y="3860" />
              <mxPoint x="4670" y="3860" />
            </Array>
            <mxPoint x="4730" y="3720" as="sourcePoint" />
          </mxGeometry>
        </mxCell>
        <mxCell id="LSEXf3g2ld3hCHJIZ-9w-233" style="edgeStyle=orthogonalEdgeStyle;rounded=0;orthogonalLoop=1;jettySize=auto;html=1;exitX=1;exitY=0.5;exitDx=0;exitDy=0;endArrow=none;endFill=0;" parent="1" edge="1">
          <mxGeometry relative="1" as="geometry">
            <Array as="points">
              <mxPoint x="4890" y="4260" />
              <mxPoint x="4890" y="4630" />
              <mxPoint x="4655" y="4630" />
            </Array>
            <mxPoint x="4720" y="4260" as="sourcePoint" />
          </mxGeometry>
        </mxCell>
        <mxCell id="LSEXf3g2ld3hCHJIZ-9w-234" style="edgeStyle=orthogonalEdgeStyle;rounded=0;orthogonalLoop=1;jettySize=auto;html=1;exitX=1;exitY=0.5;exitDx=0;exitDy=0;entryX=0;entryY=0.5;entryDx=0;entryDy=0;endArrow=none;endFill=0;" parent="1" edge="1">
          <mxGeometry relative="1" as="geometry">
            <Array as="points">
              <mxPoint x="4740" y="4430" />
              <mxPoint x="4740" y="4610" />
              <mxPoint x="4480" y="4610" />
              <mxPoint x="4480" y="4260" />
            </Array>
            <mxPoint x="4600" y="4260" as="targetPoint" />
          </mxGeometry>
        </mxCell>
        <mxCell id="LSEXf3g2ld3hCHJIZ-9w-235" style="edgeStyle=orthogonalEdgeStyle;rounded=0;orthogonalLoop=1;jettySize=auto;html=1;exitX=0.5;exitY=1;exitDx=0;exitDy=0;entryX=0;entryY=0.5;entryDx=0;entryDy=0;endArrow=none;endFill=0;" parent="1" edge="1">
          <mxGeometry relative="1" as="geometry">
            <Array as="points">
              <mxPoint x="4658" y="4610" />
              <mxPoint x="4480" y="4610" />
              <mxPoint x="4480" y="4260" />
            </Array>
            <mxPoint x="4600" y="4260" as="targetPoint" />
          </mxGeometry>
        </mxCell>
        <mxCell id="LSEXf3g2ld3hCHJIZ-9w-236" style="edgeStyle=orthogonalEdgeStyle;rounded=0;orthogonalLoop=1;jettySize=auto;html=1;exitX=1;exitY=0.5;exitDx=0;exitDy=0;endArrow=none;endFill=0;" parent="1" edge="1">
          <mxGeometry relative="1" as="geometry">
            <Array as="points">
              <mxPoint x="4810" y="4690" />
              <mxPoint x="4810" y="4930" />
              <mxPoint x="4648" y="4930" />
            </Array>
            <mxPoint x="4717.5" y="4690" as="sourcePoint" />
          </mxGeometry>
        </mxCell>
        <mxCell id="LSEXf3g2ld3hCHJIZ-9w-237" style="edgeStyle=orthogonalEdgeStyle;rounded=0;orthogonalLoop=1;jettySize=auto;html=1;exitX=1;exitY=0.5;exitDx=0;exitDy=0;endArrow=none;endFill=0;" parent="1" edge="1">
          <mxGeometry relative="1" as="geometry">
            <Array as="points">
              <mxPoint x="4830" y="5400" />
              <mxPoint x="4830" y="5750" />
              <mxPoint x="4634" y="5750" />
            </Array>
            <mxPoint x="4703.75" y="5400" as="sourcePoint" />
          </mxGeometry>
        </mxCell>
        <mxCell id="LSEXf3g2ld3hCHJIZ-9w-238" style="edgeStyle=orthogonalEdgeStyle;rounded=0;orthogonalLoop=1;jettySize=auto;html=1;exitX=1;exitY=0.5;exitDx=0;exitDy=0;endArrow=none;endFill=0;" parent="1" edge="1">
          <mxGeometry relative="1" as="geometry">
            <Array as="points">
              <mxPoint x="4740" y="5505" />
              <mxPoint x="4740" y="5640" />
              <mxPoint x="4639" y="5640" />
            </Array>
            <mxPoint x="4688.12" y="5505" as="sourcePoint" />
          </mxGeometry>
        </mxCell>
        <mxCell id="LSEXf3g2ld3hCHJIZ-9w-239" style="edgeStyle=orthogonalEdgeStyle;rounded=0;orthogonalLoop=1;jettySize=auto;html=1;exitX=1;exitY=0.5;exitDx=0;exitDy=0;endArrow=none;endFill=0;" parent="1" edge="1">
          <mxGeometry relative="1" as="geometry">
            <Array as="points">
              <mxPoint x="3990" y="3940" />
              <mxPoint x="3990" y="4510" />
              <mxPoint x="3745" y="4510" />
            </Array>
            <mxPoint x="3810.62" y="3940" as="sourcePoint" />
          </mxGeometry>
        </mxCell>
        <mxCell id="LSEXf3g2ld3hCHJIZ-9w-240" style="edgeStyle=orthogonalEdgeStyle;rounded=0;orthogonalLoop=1;jettySize=auto;html=1;exitX=1;exitY=0.5;exitDx=0;exitDy=0;endArrow=none;endFill=0;" parent="1" edge="1">
          <mxGeometry relative="1" as="geometry">
            <Array as="points">
              <mxPoint x="2313" y="1830" />
              <mxPoint x="2313" y="2400" />
              <mxPoint x="2068" y="2400" />
            </Array>
            <mxPoint x="2133.62" y="1830" as="sourcePoint" />
          </mxGeometry>
        </mxCell>
        <mxCell id="LSEXf3g2ld3hCHJIZ-9w-241" style="edgeStyle=orthogonalEdgeStyle;rounded=0;orthogonalLoop=1;jettySize=auto;html=1;exitX=1;exitY=0.5;exitDx=0;exitDy=0;endArrow=none;endFill=0;" parent="1" edge="1">
          <mxGeometry relative="1" as="geometry">
            <Array as="points">
              <mxPoint x="2140" y="1400" />
              <mxPoint x="2140" y="1540" />
              <mxPoint x="2060" y="1540" />
            </Array>
            <mxPoint x="2120" y="1400" as="sourcePoint" />
          </mxGeometry>
        </mxCell>
        <mxCell id="LSEXf3g2ld3hCHJIZ-9w-242" style="edgeStyle=orthogonalEdgeStyle;rounded=0;orthogonalLoop=1;jettySize=auto;html=1;exitX=1;exitY=0.5;exitDx=0;exitDy=0;endArrow=none;endFill=0;" parent="1" edge="1">
          <mxGeometry relative="1" as="geometry">
            <Array as="points">
              <mxPoint x="2280" y="1940" />
              <mxPoint x="2280" y="2310" />
              <mxPoint x="2045" y="2310" />
            </Array>
            <mxPoint x="2110" y="1940" as="sourcePoint" />
          </mxGeometry>
        </mxCell>
        <mxCell id="LSEXf3g2ld3hCHJIZ-9w-243" style="edgeStyle=orthogonalEdgeStyle;rounded=0;orthogonalLoop=1;jettySize=auto;html=1;exitX=1;exitY=0.5;exitDx=0;exitDy=0;entryX=0;entryY=0.5;entryDx=0;entryDy=0;endArrow=none;endFill=0;" parent="1" edge="1">
          <mxGeometry relative="1" as="geometry">
            <Array as="points">
              <mxPoint x="2130" y="2110" />
              <mxPoint x="2130" y="2290" />
              <mxPoint x="1870" y="2290" />
              <mxPoint x="1870" y="1940" />
            </Array>
            <mxPoint x="1990" y="1940" as="targetPoint" />
          </mxGeometry>
        </mxCell>
        <mxCell id="LSEXf3g2ld3hCHJIZ-9w-244" style="edgeStyle=orthogonalEdgeStyle;rounded=0;orthogonalLoop=1;jettySize=auto;html=1;exitX=0.5;exitY=1;exitDx=0;exitDy=0;entryX=0;entryY=0.5;entryDx=0;entryDy=0;endArrow=none;endFill=0;" parent="1" edge="1">
          <mxGeometry relative="1" as="geometry">
            <Array as="points">
              <mxPoint x="2048" y="2290" />
              <mxPoint x="1870" y="2290" />
              <mxPoint x="1870" y="1940" />
            </Array>
            <mxPoint x="1990" y="1940" as="targetPoint" />
          </mxGeometry>
        </mxCell>
        <mxCell id="LSEXf3g2ld3hCHJIZ-9w-245" style="edgeStyle=orthogonalEdgeStyle;rounded=0;orthogonalLoop=1;jettySize=auto;html=1;exitX=1;exitY=0.5;exitDx=0;exitDy=0;endArrow=none;endFill=0;" parent="1" edge="1">
          <mxGeometry relative="1" as="geometry">
            <Array as="points">
              <mxPoint x="2200" y="2370" />
              <mxPoint x="2200" y="2610" />
              <mxPoint x="2038" y="2610" />
            </Array>
            <mxPoint x="2107.5" y="2370" as="sourcePoint" />
          </mxGeometry>
        </mxCell>
        <mxCell id="LSEXf3g2ld3hCHJIZ-9w-246" style="edgeStyle=orthogonalEdgeStyle;rounded=0;orthogonalLoop=1;jettySize=auto;html=1;exitX=1;exitY=0.5;exitDx=0;exitDy=0;endArrow=none;endFill=0;" parent="1" edge="1">
          <mxGeometry relative="1" as="geometry">
            <Array as="points">
              <mxPoint x="3603" y="1460" />
              <mxPoint x="3603" y="2030" />
              <mxPoint x="3358" y="2030" />
            </Array>
            <mxPoint x="3423.62" y="1460" as="sourcePoint" />
          </mxGeometry>
        </mxCell>
        <mxCell id="LSEXf3g2ld3hCHJIZ-9w-247" style="edgeStyle=orthogonalEdgeStyle;rounded=0;orthogonalLoop=1;jettySize=auto;html=1;exitX=1;exitY=0.5;exitDx=0;exitDy=0;endArrow=none;endFill=0;" parent="1" edge="1">
          <mxGeometry relative="1" as="geometry">
            <Array as="points">
              <mxPoint x="3430" y="1030" />
              <mxPoint x="3430" y="1170" />
              <mxPoint x="3350" y="1170" />
            </Array>
            <mxPoint x="3410" y="1030" as="sourcePoint" />
          </mxGeometry>
        </mxCell>
        <mxCell id="LSEXf3g2ld3hCHJIZ-9w-248" style="edgeStyle=orthogonalEdgeStyle;rounded=0;orthogonalLoop=1;jettySize=auto;html=1;exitX=1;exitY=0.5;exitDx=0;exitDy=0;endArrow=none;endFill=0;" parent="1" edge="1">
          <mxGeometry relative="1" as="geometry">
            <Array as="points">
              <mxPoint x="3570" y="1570" />
              <mxPoint x="3570" y="1940" />
              <mxPoint x="3335" y="1940" />
            </Array>
            <mxPoint x="3400" y="1570" as="sourcePoint" />
          </mxGeometry>
        </mxCell>
        <mxCell id="LSEXf3g2ld3hCHJIZ-9w-249" style="edgeStyle=orthogonalEdgeStyle;rounded=0;orthogonalLoop=1;jettySize=auto;html=1;exitX=1;exitY=0.5;exitDx=0;exitDy=0;entryX=0;entryY=0.5;entryDx=0;entryDy=0;endArrow=none;endFill=0;" parent="1" edge="1">
          <mxGeometry relative="1" as="geometry">
            <Array as="points">
              <mxPoint x="3420" y="1740" />
              <mxPoint x="3420" y="1920" />
              <mxPoint x="3160" y="1920" />
              <mxPoint x="3160" y="1570" />
            </Array>
            <mxPoint x="3280" y="1570" as="targetPoint" />
          </mxGeometry>
        </mxCell>
        <mxCell id="LSEXf3g2ld3hCHJIZ-9w-250" style="edgeStyle=orthogonalEdgeStyle;rounded=0;orthogonalLoop=1;jettySize=auto;html=1;exitX=0.5;exitY=1;exitDx=0;exitDy=0;entryX=0;entryY=0.5;entryDx=0;entryDy=0;endArrow=none;endFill=0;" parent="1" edge="1">
          <mxGeometry relative="1" as="geometry">
            <Array as="points">
              <mxPoint x="3338" y="1920" />
              <mxPoint x="3160" y="1920" />
              <mxPoint x="3160" y="1570" />
            </Array>
            <mxPoint x="3280" y="1570" as="targetPoint" />
          </mxGeometry>
        </mxCell>
        <mxCell id="LSEXf3g2ld3hCHJIZ-9w-251" style="edgeStyle=orthogonalEdgeStyle;rounded=0;orthogonalLoop=1;jettySize=auto;html=1;exitX=1;exitY=0.5;exitDx=0;exitDy=0;endArrow=none;endFill=0;" parent="1" edge="1">
          <mxGeometry relative="1" as="geometry">
            <Array as="points">
              <mxPoint x="3490" y="2000" />
              <mxPoint x="3490" y="2240" />
              <mxPoint x="3328" y="2240" />
            </Array>
            <mxPoint x="3397.5" y="2000" as="sourcePoint" />
          </mxGeometry>
        </mxCell>
        <mxCell id="LSEXf3g2ld3hCHJIZ-9w-252" style="edgeStyle=orthogonalEdgeStyle;rounded=0;orthogonalLoop=1;jettySize=auto;html=1;exitX=1;exitY=0.5;exitDx=0;exitDy=0;endArrow=none;endFill=0;" parent="1" edge="1">
          <mxGeometry relative="1" as="geometry">
            <Array as="points">
              <mxPoint x="3433" y="2560" />
              <mxPoint x="3433" y="3130" />
              <mxPoint x="3188" y="3130" />
            </Array>
            <mxPoint x="3253.62" y="2560" as="sourcePoint" />
          </mxGeometry>
        </mxCell>
        <mxCell id="LSEXf3g2ld3hCHJIZ-9w-253" style="edgeStyle=orthogonalEdgeStyle;rounded=0;orthogonalLoop=1;jettySize=auto;html=1;exitX=1;exitY=0.5;exitDx=0;exitDy=0;endArrow=none;endFill=0;" parent="1" edge="1">
          <mxGeometry relative="1" as="geometry">
            <Array as="points">
              <mxPoint x="3260" y="2130" />
              <mxPoint x="3260" y="2270" />
              <mxPoint x="3180" y="2270" />
            </Array>
            <mxPoint x="3240" y="2130" as="sourcePoint" />
          </mxGeometry>
        </mxCell>
        <mxCell id="LSEXf3g2ld3hCHJIZ-9w-254" style="edgeStyle=orthogonalEdgeStyle;rounded=0;orthogonalLoop=1;jettySize=auto;html=1;exitX=1;exitY=0.5;exitDx=0;exitDy=0;endArrow=none;endFill=0;" parent="1" edge="1">
          <mxGeometry relative="1" as="geometry">
            <Array as="points">
              <mxPoint x="3400" y="2670" />
              <mxPoint x="3400" y="3040" />
              <mxPoint x="3165" y="3040" />
            </Array>
            <mxPoint x="3230" y="2670" as="sourcePoint" />
          </mxGeometry>
        </mxCell>
        <mxCell id="LSEXf3g2ld3hCHJIZ-9w-255" style="edgeStyle=orthogonalEdgeStyle;rounded=0;orthogonalLoop=1;jettySize=auto;html=1;exitX=1;exitY=0.5;exitDx=0;exitDy=0;entryX=0;entryY=0.5;entryDx=0;entryDy=0;endArrow=none;endFill=0;" parent="1" edge="1">
          <mxGeometry relative="1" as="geometry">
            <Array as="points">
              <mxPoint x="3250" y="2840" />
              <mxPoint x="3250" y="3020" />
              <mxPoint x="2990" y="3020" />
              <mxPoint x="2990" y="2670" />
            </Array>
            <mxPoint x="3110" y="2670" as="targetPoint" />
          </mxGeometry>
        </mxCell>
        <mxCell id="LSEXf3g2ld3hCHJIZ-9w-256" style="edgeStyle=orthogonalEdgeStyle;rounded=0;orthogonalLoop=1;jettySize=auto;html=1;exitX=0.5;exitY=1;exitDx=0;exitDy=0;entryX=0;entryY=0.5;entryDx=0;entryDy=0;endArrow=none;endFill=0;" parent="1" edge="1">
          <mxGeometry relative="1" as="geometry">
            <Array as="points">
              <mxPoint x="3168" y="3020" />
              <mxPoint x="2990" y="3020" />
              <mxPoint x="2990" y="2670" />
            </Array>
            <mxPoint x="3110" y="2670" as="targetPoint" />
          </mxGeometry>
        </mxCell>
        <mxCell id="LSEXf3g2ld3hCHJIZ-9w-257" style="edgeStyle=orthogonalEdgeStyle;rounded=0;orthogonalLoop=1;jettySize=auto;html=1;exitX=1;exitY=0.5;exitDx=0;exitDy=0;endArrow=none;endFill=0;" parent="1" edge="1">
          <mxGeometry relative="1" as="geometry">
            <Array as="points">
              <mxPoint x="3320" y="3100" />
              <mxPoint x="3320" y="3340" />
              <mxPoint x="3158" y="3340" />
            </Array>
            <mxPoint x="3227.5" y="3100" as="sourcePoint" />
          </mxGeometry>
        </mxCell>
        <mxCell id="LSEXf3g2ld3hCHJIZ-9w-258" style="edgeStyle=orthogonalEdgeStyle;rounded=0;orthogonalLoop=1;jettySize=auto;html=1;exitX=1;exitY=0.5;exitDx=0;exitDy=0;entryX=0;entryY=0.5;entryDx=0;entryDy=0;endArrow=none;endFill=0;" parent="1" edge="1">
          <mxGeometry relative="1" as="geometry">
            <Array as="points">
              <mxPoint x="2530" y="6345" />
              <mxPoint x="2530" y="6830" />
              <mxPoint x="2150" y="6830" />
              <mxPoint x="2150" y="6275" />
            </Array>
            <mxPoint x="2320" y="6275" as="targetPoint" />
          </mxGeometry>
        </mxCell>
        <mxCell id="LSEXf3g2ld3hCHJIZ-9w-259" style="edgeStyle=orthogonalEdgeStyle;rounded=0;orthogonalLoop=1;jettySize=auto;html=1;exitX=1;exitY=0.5;exitDx=0;exitDy=0;" parent="1" edge="1">
          <mxGeometry relative="1" as="geometry">
            <Array as="points">
              <mxPoint x="2490" y="4300" />
              <mxPoint x="2490" y="4800" />
              <mxPoint x="2380" y="4800" />
            </Array>
            <mxPoint x="2445" y="4300" as="sourcePoint" />
          </mxGeometry>
        </mxCell>
        <mxCell id="LSEXf3g2ld3hCHJIZ-9w-260" style="edgeStyle=orthogonalEdgeStyle;rounded=0;orthogonalLoop=1;jettySize=auto;html=1;exitX=1;exitY=0.5;exitDx=0;exitDy=0;endArrow=none;endFill=0;" parent="1" edge="1">
          <mxGeometry relative="1" as="geometry">
            <Array as="points">
              <mxPoint x="3170" y="4620" />
              <mxPoint x="3170" y="4760" />
              <mxPoint x="3090" y="4760" />
            </Array>
            <mxPoint x="3150" y="4620" as="sourcePoint" />
          </mxGeometry>
        </mxCell>
        <mxCell id="LSEXf3g2ld3hCHJIZ-9w-261" style="edgeStyle=orthogonalEdgeStyle;rounded=0;orthogonalLoop=1;jettySize=auto;html=1;exitX=1;exitY=0.5;exitDx=0;exitDy=0;endArrow=none;endFill=0;" parent="1" edge="1">
          <mxGeometry relative="1" as="geometry">
            <Array as="points">
              <mxPoint x="3310" y="5160" />
              <mxPoint x="3310" y="5530" />
              <mxPoint x="3075" y="5530" />
            </Array>
            <mxPoint x="3140" y="5160" as="sourcePoint" />
          </mxGeometry>
        </mxCell>
        <mxCell id="LSEXf3g2ld3hCHJIZ-9w-262" style="edgeStyle=orthogonalEdgeStyle;rounded=0;orthogonalLoop=1;jettySize=auto;html=1;exitX=1;exitY=0.5;exitDx=0;exitDy=0;entryX=0;entryY=0.5;entryDx=0;entryDy=0;endArrow=none;endFill=0;" parent="1" edge="1">
          <mxGeometry relative="1" as="geometry">
            <Array as="points">
              <mxPoint x="3160" y="5330" />
              <mxPoint x="3160" y="5510" />
              <mxPoint x="2900" y="5510" />
              <mxPoint x="2900" y="5160" />
            </Array>
            <mxPoint x="3020" y="5160" as="targetPoint" />
          </mxGeometry>
        </mxCell>
        <mxCell id="LSEXf3g2ld3hCHJIZ-9w-263" style="edgeStyle=orthogonalEdgeStyle;rounded=0;orthogonalLoop=1;jettySize=auto;html=1;exitX=0.5;exitY=1;exitDx=0;exitDy=0;entryX=0;entryY=0.5;entryDx=0;entryDy=0;endArrow=none;endFill=0;" parent="1" edge="1">
          <mxGeometry relative="1" as="geometry">
            <Array as="points">
              <mxPoint x="3078" y="5510" />
              <mxPoint x="2900" y="5510" />
              <mxPoint x="2900" y="5160" />
            </Array>
            <mxPoint x="3020" y="5160" as="targetPoint" />
          </mxGeometry>
        </mxCell>
        <mxCell id="LSEXf3g2ld3hCHJIZ-9w-264" style="edgeStyle=orthogonalEdgeStyle;rounded=0;orthogonalLoop=1;jettySize=auto;html=1;exitX=1;exitY=0.5;exitDx=0;exitDy=0;endArrow=none;endFill=0;" parent="1" edge="1">
          <mxGeometry relative="1" as="geometry">
            <Array as="points">
              <mxPoint x="3230" y="5590" />
              <mxPoint x="3230" y="5830" />
              <mxPoint x="3068" y="5830" />
            </Array>
            <mxPoint x="3137.5" y="5590" as="sourcePoint" />
          </mxGeometry>
        </mxCell>
        <mxCell id="LSEXf3g2ld3hCHJIZ-9w-323" value="" style="edgeStyle=orthogonalEdgeStyle;rounded=0;orthogonalLoop=1;jettySize=auto;html=1;" parent="1" source="LSEXf3g2ld3hCHJIZ-9w-272" target="LSEXf3g2ld3hCHJIZ-9w-288" edge="1">
          <mxGeometry relative="1" as="geometry" />
        </mxCell>
        <mxCell id="LSEXf3g2ld3hCHJIZ-9w-272" value="Цикл 1&lt;br&gt;i&amp;gt;=N" style="strokeWidth=1;html=1;shape=mxgraph.flowchart.loop_limit;whiteSpace=wrap;" parent="1" vertex="1">
          <mxGeometry x="310" y="160" width="120" height="70" as="geometry" />
        </mxCell>
        <mxCell id="LSEXf3g2ld3hCHJIZ-9w-325" value="" style="edgeStyle=orthogonalEdgeStyle;rounded=0;orthogonalLoop=1;jettySize=auto;html=1;" parent="1" source="LSEXf3g2ld3hCHJIZ-9w-274" target="LSEXf3g2ld3hCHJIZ-9w-281" edge="1">
          <mxGeometry relative="1" as="geometry" />
        </mxCell>
        <mxCell id="LSEXf3g2ld3hCHJIZ-9w-274" value="Вывод a[i]" style="shape=parallelogram;perimeter=parallelogramPerimeter;whiteSpace=wrap;html=1;fixedSize=1;" parent="1" vertex="1">
          <mxGeometry x="310" y="340" width="120" height="60" as="geometry" />
        </mxCell>
        <mxCell id="LSEXf3g2ld3hCHJIZ-9w-330" value="" style="edgeStyle=orthogonalEdgeStyle;rounded=0;orthogonalLoop=1;jettySize=auto;html=1;" parent="1" source="LSEXf3g2ld3hCHJIZ-9w-276" target="LSEXf3g2ld3hCHJIZ-9w-302" edge="1">
          <mxGeometry relative="1" as="geometry" />
        </mxCell>
        <mxCell id="LSEXf3g2ld3hCHJIZ-9w-276" value="Цикл 1" style="strokeWidth=1;html=1;shape=mxgraph.flowchart.loop_limit;whiteSpace=wrap;direction=west;" parent="1" vertex="1">
          <mxGeometry x="310" y="620" width="120" height="70" as="geometry" />
        </mxCell>
        <mxCell id="LSEXf3g2ld3hCHJIZ-9w-326" value="" style="edgeStyle=orthogonalEdgeStyle;rounded=0;orthogonalLoop=1;jettySize=auto;html=1;" parent="1" source="LSEXf3g2ld3hCHJIZ-9w-281" target="LSEXf3g2ld3hCHJIZ-9w-283" edge="1">
          <mxGeometry relative="1" as="geometry" />
        </mxCell>
        <mxCell id="LSEXf3g2ld3hCHJIZ-9w-328" style="edgeStyle=orthogonalEdgeStyle;rounded=0;orthogonalLoop=1;jettySize=auto;html=1;" parent="1" source="LSEXf3g2ld3hCHJIZ-9w-281" edge="1">
          <mxGeometry relative="1" as="geometry">
            <mxPoint x="380" y="250" as="targetPoint" />
            <Array as="points">
              <mxPoint x="511" y="470" />
            </Array>
          </mxGeometry>
        </mxCell>
        <mxCell id="LSEXf3g2ld3hCHJIZ-9w-281" value="&lt;span style=&quot;font-family: monospace; font-size: 13.2px; text-align: left;&quot; class=&quot;lit&quot;&gt;&lt;span style=&quot;background-color: rgb(26, 26, 26);&quot;&gt;&lt;font color=&quot;#ffffff&quot;&gt;a[i] mod 5=0&lt;/font&gt;&lt;/span&gt;&lt;br&gt;&lt;/span&gt;" style="rhombus;whiteSpace=wrap;html=1;" parent="1" vertex="1">
          <mxGeometry x="280" y="430" width="180" height="80" as="geometry" />
        </mxCell>
        <mxCell id="LSEXf3g2ld3hCHJIZ-9w-327" value="" style="edgeStyle=orthogonalEdgeStyle;rounded=0;orthogonalLoop=1;jettySize=auto;html=1;" parent="1" source="LSEXf3g2ld3hCHJIZ-9w-283" target="LSEXf3g2ld3hCHJIZ-9w-276" edge="1">
          <mxGeometry relative="1" as="geometry" />
        </mxCell>
        <mxCell id="LSEXf3g2ld3hCHJIZ-9w-283" value="p:=i" style="whiteSpace=wrap;html=1;" parent="1" vertex="1">
          <mxGeometry x="310" y="540" width="120" height="60" as="geometry" />
        </mxCell>
        <mxCell id="LSEXf3g2ld3hCHJIZ-9w-286" value="Конец" style="ellipse;whiteSpace=wrap;html=1;" parent="1" vertex="1">
          <mxGeometry x="310" y="1920" width="120" height="50" as="geometry" />
        </mxCell>
        <mxCell id="LSEXf3g2ld3hCHJIZ-9w-324" value="" style="edgeStyle=orthogonalEdgeStyle;rounded=0;orthogonalLoop=1;jettySize=auto;html=1;" parent="1" source="LSEXf3g2ld3hCHJIZ-9w-288" target="LSEXf3g2ld3hCHJIZ-9w-274" edge="1">
          <mxGeometry relative="1" as="geometry" />
        </mxCell>
        <mxCell id="LSEXf3g2ld3hCHJIZ-9w-288" value="m[i]:=random(118)-52" style="rounded=0;whiteSpace=wrap;html=1;" parent="1" vertex="1">
          <mxGeometry x="310" y="260" width="120" height="60" as="geometry" />
        </mxCell>
        <mxCell id="LSEXf3g2ld3hCHJIZ-9w-289" value="Присваиваем массиву рандомные значения в назначенном диапозоне" style="text;html=1;strokeColor=none;fillColor=none;align=center;verticalAlign=middle;whiteSpace=wrap;rounded=0;" parent="1" vertex="1">
          <mxGeometry x="110" y="275" width="160" height="30" as="geometry" />
        </mxCell>
        <mxCell id="LSEXf3g2ld3hCHJIZ-9w-294" value="mod - это&lt;br&gt;Остаток от деления равен 0" style="text;html=1;strokeColor=none;fillColor=none;align=center;verticalAlign=middle;whiteSpace=wrap;rounded=0;" parent="1" vertex="1">
          <mxGeometry x="120" y="455" width="120" height="30" as="geometry" />
        </mxCell>
        <mxCell id="LSEXf3g2ld3hCHJIZ-9w-335" value="" style="edgeStyle=orthogonalEdgeStyle;rounded=0;orthogonalLoop=1;jettySize=auto;html=1;" parent="1" source="LSEXf3g2ld3hCHJIZ-9w-302" target="LSEXf3g2ld3hCHJIZ-9w-331" edge="1">
          <mxGeometry relative="1" as="geometry" />
        </mxCell>
        <mxCell id="LSEXf3g2ld3hCHJIZ-9w-302" value="i:=1" style="rounded=0;whiteSpace=wrap;html=1;" parent="1" vertex="1">
          <mxGeometry x="310" y="710" width="120" height="60" as="geometry" />
        </mxCell>
        <mxCell id="LSEXf3g2ld3hCHJIZ-9w-359" value="" style="edgeStyle=orthogonalEdgeStyle;rounded=0;orthogonalLoop=1;jettySize=auto;html=1;" parent="1" source="LSEXf3g2ld3hCHJIZ-9w-315" target="LSEXf3g2ld3hCHJIZ-9w-319" edge="1">
          <mxGeometry relative="1" as="geometry" />
        </mxCell>
        <mxCell id="LSEXf3g2ld3hCHJIZ-9w-315" value="&lt;font style=&quot;font-size: 10px;&quot;&gt;Вывод&lt;br&gt;(&#39;минимальный элемент массива и его номер: &#39;, min, &#39; &#39;, hn)&lt;/font&gt;" style="shape=parallelogram;perimeter=parallelogramPerimeter;whiteSpace=wrap;html=1;fixedSize=1;" parent="1" vertex="1">
          <mxGeometry x="310" y="1754" width="120" height="60" as="geometry" />
        </mxCell>
        <mxCell id="LSEXf3g2ld3hCHJIZ-9w-360" value="" style="edgeStyle=orthogonalEdgeStyle;rounded=0;orthogonalLoop=1;jettySize=auto;html=1;entryX=0.5;entryY=0;entryDx=0;entryDy=0;" parent="1" source="LSEXf3g2ld3hCHJIZ-9w-317" target="LSEXf3g2ld3hCHJIZ-9w-315" edge="1">
          <mxGeometry relative="1" as="geometry" />
        </mxCell>
        <mxCell id="LSEXf3g2ld3hCHJIZ-9w-317" value="&lt;font style=&quot;font-size: 10px;&quot;&gt;Вывод (&#39;максимальный элемент массива и его номер: &#39;, max, &#39; &#39;,hx)&lt;/font&gt;" style="shape=parallelogram;perimeter=parallelogramPerimeter;whiteSpace=wrap;html=1;fixedSize=1;" parent="1" vertex="1">
          <mxGeometry x="310" y="1670" width="120" height="60" as="geometry" />
        </mxCell>
        <mxCell id="LSEXf3g2ld3hCHJIZ-9w-369" value="" style="edgeStyle=orthogonalEdgeStyle;rounded=0;orthogonalLoop=1;jettySize=auto;html=1;" parent="1" source="LSEXf3g2ld3hCHJIZ-9w-319" target="LSEXf3g2ld3hCHJIZ-9w-286" edge="1">
          <mxGeometry relative="1" as="geometry" />
        </mxCell>
        <mxCell id="LSEXf3g2ld3hCHJIZ-9w-319" value="&lt;font style=&quot;font-size: 10px;&quot;&gt;Вывод&amp;nbsp;(&#39;номер последнего элемента массива, кратного 5 : &#39;, p)&lt;/font&gt;" style="shape=parallelogram;perimeter=parallelogramPerimeter;whiteSpace=wrap;html=1;fixedSize=1;" parent="1" vertex="1">
          <mxGeometry x="310" y="1839" width="120" height="60" as="geometry" />
        </mxCell>
        <mxCell id="LSEXf3g2ld3hCHJIZ-9w-320" value="a[i] - элемент массива m с индексом i" style="text;html=1;strokeColor=none;fillColor=none;align=center;verticalAlign=middle;whiteSpace=wrap;rounded=0;" parent="1" vertex="1">
          <mxGeometry x="50" y="355" width="240" height="30" as="geometry" />
        </mxCell>
        <mxCell id="LSEXf3g2ld3hCHJIZ-9w-336" value="" style="edgeStyle=orthogonalEdgeStyle;rounded=0;orthogonalLoop=1;jettySize=auto;html=1;" parent="1" source="LSEXf3g2ld3hCHJIZ-9w-331" target="LSEXf3g2ld3hCHJIZ-9w-332" edge="1">
          <mxGeometry relative="1" as="geometry" />
        </mxCell>
        <mxCell id="LSEXf3g2ld3hCHJIZ-9w-331" value="max:=a[1]" style="rounded=0;whiteSpace=wrap;html=1;" parent="1" vertex="1">
          <mxGeometry x="310" y="790" width="120" height="60" as="geometry" />
        </mxCell>
        <mxCell id="LSEXf3g2ld3hCHJIZ-9w-342" value="" style="edgeStyle=orthogonalEdgeStyle;rounded=0;orthogonalLoop=1;jettySize=auto;html=1;" parent="1" source="LSEXf3g2ld3hCHJIZ-9w-332" target="LSEXf3g2ld3hCHJIZ-9w-341" edge="1">
          <mxGeometry relative="1" as="geometry" />
        </mxCell>
        <mxCell id="LSEXf3g2ld3hCHJIZ-9w-332" value="min:=a[1]" style="rounded=0;whiteSpace=wrap;html=1;" parent="1" vertex="1">
          <mxGeometry x="310" y="870" width="120" height="60" as="geometry" />
        </mxCell>
        <mxCell id="LSEXf3g2ld3hCHJIZ-9w-337" value="Присваивается первый элемент массива" style="text;html=1;strokeColor=none;fillColor=none;align=center;verticalAlign=middle;whiteSpace=wrap;rounded=0;" parent="1" vertex="1">
          <mxGeometry x="105" y="805" width="170" height="30" as="geometry" />
        </mxCell>
        <mxCell id="LSEXf3g2ld3hCHJIZ-9w-339" value="Присваивается первый элемент массива" style="text;html=1;strokeColor=none;fillColor=none;align=center;verticalAlign=middle;whiteSpace=wrap;rounded=0;" parent="1" vertex="1">
          <mxGeometry x="105" y="885" width="170" height="30" as="geometry" />
        </mxCell>
        <mxCell id="LSEXf3g2ld3hCHJIZ-9w-345" value="" style="edgeStyle=orthogonalEdgeStyle;rounded=0;orthogonalLoop=1;jettySize=auto;html=1;entryX=0.5;entryY=0;entryDx=0;entryDy=0;" parent="1" source="LSEXf3g2ld3hCHJIZ-9w-341" target="LSEXf3g2ld3hCHJIZ-9w-343" edge="1">
          <mxGeometry relative="1" as="geometry">
            <mxPoint x="370" y="1060" as="targetPoint" />
          </mxGeometry>
        </mxCell>
        <mxCell id="LSEXf3g2ld3hCHJIZ-9w-352" style="edgeStyle=elbowEdgeStyle;rounded=0;orthogonalLoop=1;jettySize=auto;html=1;entryX=0.5;entryY=0;entryDx=0;entryDy=0;" parent="1" source="LSEXf3g2ld3hCHJIZ-9w-341" target="LSEXf3g2ld3hCHJIZ-9w-348" edge="1">
          <mxGeometry relative="1" as="geometry">
            <mxPoint x="370" y="1210" as="targetPoint" />
            <Array as="points">
              <mxPoint x="530" y="1110" />
            </Array>
          </mxGeometry>
        </mxCell>
        <mxCell id="LSEXf3g2ld3hCHJIZ-9w-341" value="max&amp;lt;a[i+1]" style="rhombus;whiteSpace=wrap;html=1;" parent="1" vertex="1">
          <mxGeometry x="280" y="950" width="180" height="80" as="geometry" />
        </mxCell>
        <mxCell id="LSEXf3g2ld3hCHJIZ-9w-346" value="" style="edgeStyle=orthogonalEdgeStyle;rounded=0;orthogonalLoop=1;jettySize=auto;html=1;" parent="1" source="LSEXf3g2ld3hCHJIZ-9w-343" target="LSEXf3g2ld3hCHJIZ-9w-344" edge="1">
          <mxGeometry relative="1" as="geometry" />
        </mxCell>
        <mxCell id="LSEXf3g2ld3hCHJIZ-9w-343" value="max:=a[i+1]" style="rounded=0;whiteSpace=wrap;html=1;" parent="1" vertex="1">
          <mxGeometry x="310" y="1050" width="120" height="60" as="geometry" />
        </mxCell>
        <mxCell id="LSEXf3g2ld3hCHJIZ-9w-368" style="edgeStyle=elbowEdgeStyle;rounded=0;orthogonalLoop=1;jettySize=auto;html=1;" parent="1" source="LSEXf3g2ld3hCHJIZ-9w-344" edge="1">
          <mxGeometry relative="1" as="geometry">
            <mxPoint x="370" y="1470" as="targetPoint" />
            <Array as="points">
              <mxPoint x="540" y="1320" />
            </Array>
          </mxGeometry>
        </mxCell>
        <mxCell id="LSEXf3g2ld3hCHJIZ-9w-344" value="hx:=i+1" style="rounded=0;whiteSpace=wrap;html=1;" parent="1" vertex="1">
          <mxGeometry x="310" y="1130" width="120" height="60" as="geometry" />
        </mxCell>
        <mxCell id="LSEXf3g2ld3hCHJIZ-9w-348" value="min&amp;gt;a[i+1]" style="rhombus;whiteSpace=wrap;html=1;" parent="1" vertex="1">
          <mxGeometry x="280" y="1220" width="180" height="80" as="geometry" />
        </mxCell>
        <mxCell id="LSEXf3g2ld3hCHJIZ-9w-353" value="" style="edgeStyle=orthogonalEdgeStyle;rounded=0;orthogonalLoop=1;jettySize=auto;html=1;entryX=0.5;entryY=0;entryDx=0;entryDy=0;" parent="1" target="LSEXf3g2ld3hCHJIZ-9w-355" edge="1">
          <mxGeometry relative="1" as="geometry">
            <mxPoint x="370" y="1300" as="sourcePoint" />
            <mxPoint x="370" y="1330" as="targetPoint" />
          </mxGeometry>
        </mxCell>
        <mxCell id="LSEXf3g2ld3hCHJIZ-9w-354" value="" style="edgeStyle=orthogonalEdgeStyle;rounded=0;orthogonalLoop=1;jettySize=auto;html=1;" parent="1" source="LSEXf3g2ld3hCHJIZ-9w-355" target="LSEXf3g2ld3hCHJIZ-9w-356" edge="1">
          <mxGeometry relative="1" as="geometry" />
        </mxCell>
        <mxCell id="LSEXf3g2ld3hCHJIZ-9w-355" value="min:=a[i+1]" style="rounded=0;whiteSpace=wrap;html=1;" parent="1" vertex="1">
          <mxGeometry x="310" y="1320" width="120" height="60" as="geometry" />
        </mxCell>
        <mxCell id="LSEXf3g2ld3hCHJIZ-9w-358" value="" style="edgeStyle=orthogonalEdgeStyle;rounded=0;orthogonalLoop=1;jettySize=auto;html=1;" parent="1" source="LSEXf3g2ld3hCHJIZ-9w-356" target="LSEXf3g2ld3hCHJIZ-9w-357" edge="1">
          <mxGeometry relative="1" as="geometry" />
        </mxCell>
        <mxCell id="LSEXf3g2ld3hCHJIZ-9w-356" value="hx:=i+1" style="rounded=0;whiteSpace=wrap;html=1;" parent="1" vertex="1">
          <mxGeometry x="310" y="1400" width="120" height="60" as="geometry" />
        </mxCell>
        <mxCell id="LSEXf3g2ld3hCHJIZ-9w-361" value="" style="edgeStyle=orthogonalEdgeStyle;rounded=0;orthogonalLoop=1;jettySize=auto;html=1;" parent="1" source="LSEXf3g2ld3hCHJIZ-9w-357" edge="1">
          <mxGeometry relative="1" as="geometry">
            <mxPoint x="370" y="1580" as="targetPoint" />
          </mxGeometry>
        </mxCell>
        <mxCell id="LSEXf3g2ld3hCHJIZ-9w-363" style="edgeStyle=elbowEdgeStyle;rounded=0;orthogonalLoop=1;jettySize=auto;html=1;" parent="1" edge="1">
          <mxGeometry relative="1" as="geometry">
            <mxPoint x="380" y="940" as="targetPoint" />
            <mxPoint x="430" y="1610" as="sourcePoint" />
            <Array as="points">
              <mxPoint x="580" y="1270" />
            </Array>
          </mxGeometry>
        </mxCell>
        <mxCell id="LSEXf3g2ld3hCHJIZ-9w-357" value="i:=i+1" style="rounded=0;whiteSpace=wrap;html=1;" parent="1" vertex="1">
          <mxGeometry x="310" y="1480" width="120" height="60" as="geometry" />
        </mxCell>
        <mxCell id="LSEXf3g2ld3hCHJIZ-9w-365" value="" style="edgeStyle=orthogonalEdgeStyle;rounded=0;orthogonalLoop=1;jettySize=auto;html=1;" parent="1" source="LSEXf3g2ld3hCHJIZ-9w-364" target="LSEXf3g2ld3hCHJIZ-9w-317" edge="1">
          <mxGeometry relative="1" as="geometry" />
        </mxCell>
        <mxCell id="LSEXf3g2ld3hCHJIZ-9w-364" value="I=N" style="rounded=0;whiteSpace=wrap;html=1;" parent="1" vertex="1">
          <mxGeometry x="310" y="1580" width="120" height="60" as="geometry" />
        </mxCell>
        <mxCell id="LSEXf3g2ld3hCHJIZ-9w-366" value="Повторять пока I не равен 20" style="text;html=1;strokeColor=none;fillColor=none;align=center;verticalAlign=middle;whiteSpace=wrap;rounded=0;" parent="1" vertex="1">
          <mxGeometry x="170" y="1595" width="110" height="30" as="geometry" />
        </mxCell>
        <mxCell id="LSEXf3g2ld3hCHJIZ-9w-370" value="переменная меньше следующего элемента масива" style="text;html=1;strokeColor=none;fillColor=none;align=center;verticalAlign=middle;whiteSpace=wrap;rounded=0;" parent="1" vertex="1">
          <mxGeometry x="105" y="975" width="150" height="30" as="geometry" />
        </mxCell>
        <mxCell id="LSEXf3g2ld3hCHJIZ-9w-371" value="переменная больше следующего элемента масива" style="text;html=1;strokeColor=none;fillColor=none;align=center;verticalAlign=middle;whiteSpace=wrap;rounded=0;" parent="1" vertex="1">
          <mxGeometry x="105" y="1245" width="150" height="30" as="geometry" />
        </mxCell>
        <mxCell id="LSEXf3g2ld3hCHJIZ-9w-372" value="Присвоить переменной значение масива" style="text;html=1;strokeColor=none;fillColor=none;align=center;verticalAlign=middle;whiteSpace=wrap;rounded=0;" parent="1" vertex="1">
          <mxGeometry x="115" y="1065" width="130" height="30" as="geometry" />
        </mxCell>
        <mxCell id="LSEXf3g2ld3hCHJIZ-9w-373" value="Счётчик" style="text;html=1;strokeColor=none;fillColor=none;align=center;verticalAlign=middle;whiteSpace=wrap;rounded=0;" parent="1" vertex="1">
          <mxGeometry x="140" y="1145" width="60" height="30" as="geometry" />
        </mxCell>
        <mxCell id="DUzALMlsr9-K8HdvV8tb-1" value="" style="endArrow=none;dashed=1;html=1;rounded=0;entryX=0;entryY=0.5;entryDx=0;entryDy=0;exitX=1;exitY=0.5;exitDx=0;exitDy=0;" edge="1" parent="1" source="LSEXf3g2ld3hCHJIZ-9w-366" target="LSEXf3g2ld3hCHJIZ-9w-364">
          <mxGeometry width="50" height="50" relative="1" as="geometry">
            <mxPoint x="390" y="1010" as="sourcePoint" />
            <mxPoint x="440" y="960" as="targetPoint" />
          </mxGeometry>
        </mxCell>
        <mxCell id="DUzALMlsr9-K8HdvV8tb-2" value="" style="endArrow=none;dashed=1;html=1;rounded=0;entryX=0;entryY=0.5;entryDx=0;entryDy=0;exitX=1;exitY=0.5;exitDx=0;exitDy=0;" edge="1" parent="1" source="LSEXf3g2ld3hCHJIZ-9w-371" target="LSEXf3g2ld3hCHJIZ-9w-348">
          <mxGeometry width="50" height="50" relative="1" as="geometry">
            <mxPoint x="390" y="1010" as="sourcePoint" />
            <mxPoint x="440" y="960" as="targetPoint" />
          </mxGeometry>
        </mxCell>
        <mxCell id="DUzALMlsr9-K8HdvV8tb-3" value="" style="endArrow=none;dashed=1;html=1;rounded=0;entryX=0;entryY=0.5;entryDx=0;entryDy=0;exitX=1;exitY=0.5;exitDx=0;exitDy=0;" edge="1" parent="1" source="LSEXf3g2ld3hCHJIZ-9w-373" target="LSEXf3g2ld3hCHJIZ-9w-344">
          <mxGeometry width="50" height="50" relative="1" as="geometry">
            <mxPoint x="390" y="1010" as="sourcePoint" />
            <mxPoint x="440" y="960" as="targetPoint" />
          </mxGeometry>
        </mxCell>
        <mxCell id="DUzALMlsr9-K8HdvV8tb-4" value="" style="endArrow=none;dashed=1;html=1;rounded=0;entryX=0;entryY=0.5;entryDx=0;entryDy=0;exitX=1;exitY=0.5;exitDx=0;exitDy=0;" edge="1" parent="1" source="LSEXf3g2ld3hCHJIZ-9w-372" target="LSEXf3g2ld3hCHJIZ-9w-343">
          <mxGeometry width="50" height="50" relative="1" as="geometry">
            <mxPoint x="390" y="1010" as="sourcePoint" />
            <mxPoint x="440" y="960" as="targetPoint" />
          </mxGeometry>
        </mxCell>
        <mxCell id="DUzALMlsr9-K8HdvV8tb-5" value="" style="endArrow=none;dashed=1;html=1;rounded=0;entryX=0;entryY=0.5;entryDx=0;entryDy=0;exitX=1;exitY=0.5;exitDx=0;exitDy=0;" edge="1" parent="1" source="LSEXf3g2ld3hCHJIZ-9w-370" target="LSEXf3g2ld3hCHJIZ-9w-341">
          <mxGeometry width="50" height="50" relative="1" as="geometry">
            <mxPoint x="390" y="1010" as="sourcePoint" />
            <mxPoint x="440" y="960" as="targetPoint" />
          </mxGeometry>
        </mxCell>
        <mxCell id="DUzALMlsr9-K8HdvV8tb-6" value="" style="endArrow=none;dashed=1;html=1;rounded=0;entryX=0;entryY=0.5;entryDx=0;entryDy=0;exitX=1;exitY=0.5;exitDx=0;exitDy=0;" edge="1" parent="1" source="LSEXf3g2ld3hCHJIZ-9w-339" target="LSEXf3g2ld3hCHJIZ-9w-332">
          <mxGeometry width="50" height="50" relative="1" as="geometry">
            <mxPoint x="390" y="1010" as="sourcePoint" />
            <mxPoint x="440" y="960" as="targetPoint" />
          </mxGeometry>
        </mxCell>
        <mxCell id="DUzALMlsr9-K8HdvV8tb-7" value="" style="endArrow=none;dashed=1;html=1;rounded=0;entryX=0;entryY=0.5;entryDx=0;entryDy=0;exitX=1;exitY=0.5;exitDx=0;exitDy=0;" edge="1" parent="1" source="LSEXf3g2ld3hCHJIZ-9w-337" target="LSEXf3g2ld3hCHJIZ-9w-331">
          <mxGeometry width="50" height="50" relative="1" as="geometry">
            <mxPoint x="390" y="1010" as="sourcePoint" />
            <mxPoint x="440" y="960" as="targetPoint" />
          </mxGeometry>
        </mxCell>
      </root>
    </mxGraphModel>
  </diagram>
</mxfile>
